SplineFontDB: 3.0
FontName: Shabnam-Light
FullName: Shabnam Light
FamilyName: Shabnam
Weight: Light
Copyright: Copyright (c) 2003 by Bitstream, Inc. All Rights Reserved.\nDejaVu changes are in public domain\nCopyright (c) 2015 by Saber Rastikerdar. All Rights Reserved.\nNon-Arabic(Latin) glyphs and data are imported from Roboto font under the Apache License, Version 2.0.
Version: 4.0.0
ItalicAngle: 0
UnderlinePosition: -500
UnderlineWidth: 100
Ascent: 1638
Descent: 410
InvalidEm: 0
LayerCount: 2
Layer: 0 1 "Back" 1
Layer: 1 1 "Fore" 0
XUID: [1021 502 1027637223 8382011]
UniqueID: 4252161
UseUniqueID: 1
FSType: 0
OS2Version: 1
OS2_WeightWidthSlopeOnly: 0
OS2_UseTypoMetrics: 1
CreationTime: 1431850356
ModificationTime: 1530376028
PfmFamily: 33
TTFWeight: 300
TTFWidth: 5
LineGap: 0
VLineGap: 0
Panose: 2 11 6 3 3 8 4 2 2 4
OS2TypoAscent: 1900
OS2TypoAOffset: 0
OS2TypoDescent: -900
OS2TypoDOffset: 0
OS2TypoLinegap: 0
OS2WinAscent: 1900
OS2WinAOffset: 0
OS2WinDescent: 900
OS2WinDOffset: 0
HheadAscent: 1900
HheadAOffset: 0
HheadDescent: -900
HheadDOffset: 0
OS2SubXSize: 1331
OS2SubYSize: 1433
OS2SubXOff: 0
OS2SubYOff: 286
OS2SupXSize: 1331
OS2SupYSize: 1433
OS2SupXOff: 0
OS2SupYOff: 983
OS2StrikeYSize: 102
OS2StrikeYPos: 530
OS2Vendor: '    '
OS2CodePages: 00000041.20080000
OS2UnicodeRanges: 80002003.80000000.00000008.00000000
Lookup: 1 9 0 "'fina' Terminal Forms in Arabic lookup 9" { "'fina' Terminal Forms in Arabic lookup 9 subtable"  } ['fina' ('arab' <'KUR ' 'SND ' 'URD ' 'dflt' > ) ]
Lookup: 1 9 0 "'medi' Medial Forms in Arabic lookup 11" { "'medi' Medial Forms in Arabic lookup 11 subtable"  } ['medi' ('arab' <'KUR ' 'SND ' 'URD ' 'dflt' > ) ]
Lookup: 1 9 0 "'init' Initial Forms in Arabic lookup 13" { "'init' Initial Forms in Arabic lookup 13 subtable"  } ['init' ('arab' <'KUR ' 'SND ' 'URD ' 'dflt' > ) ]
Lookup: 4 1 1 "'rlig' Required Ligatures in Arabic lookup 14" { "'rlig' Required Ligatures in Arabic lookup 14 subtable"  } ['rlig' ('arab' <'KUR ' 'dflt' > ) ]

StartChar: exclam
Encoding: 33 33 1
Width: 568
VWidth: 2389
GlyphClass: 2
Flags: W
LayerCount: 2
Fore
SplineSet
167.919921875 130.381835938 m 0,0,1
 167.919921875 139.921874104 167.919921875 139.921874104 169.215318057 148.756015403 c 128,-1,2
 170.51071424 157.590156703 170.51071424 157.590156703 173.119221427 165.824761723 c 128,-1,3
 175.727728613 174.059366742 175.727728613 174.059366742 179.686173136 181.724240133 c 128,-1,4
 183.644617659 189.389113524 183.644617659 189.389113524 188.941780974 196.52432172 c 128,-1,5
 194.238944289 203.659529916 194.238944289 203.659529916 200.940586093 210.36117172 c 0,6,7
 234.025938848 243.446524475 234.025938848 243.446524475 281.421180187 243.8812166 c 0,8,9
 329.814943388 243.445485989 329.814943388 243.445485989 362.899257657 210.36117172 c 128,-1,10
 395.919921875 177.340507502 395.919921875 177.340507502 395.919921875 130.381835938 c 0,11,12
 395.919921875 122.432593543 395.919921875 122.432593543 395.023393755 114.980912221 c 128,-1,13
 394.126865635 107.529230899 394.126865635 107.529230899 392.313369436 100.490154058 c 128,-1,14
 390.499873237 93.451077217 390.499873237 93.451077217 387.772549407 86.8471650298 c 128,-1,15
 385.045225577 80.2432528425 385.045225577 80.2432528425 381.369813024 73.9927643006 c 128,-1,16
 377.694400471 67.7422757587 377.694400471 67.7422757587 373.088782186 61.8643410784 c 128,-1,17
 368.4831639 55.9864063982 368.4831639 55.9864063982 362.899257657 50.4025001553 c 0,18,19
 329.814233023 17.3174755212 329.814233023 17.3174755212 282.418612266 16.8824557378 c 0,20,21
 234.024900362 17.3181858864 234.024900362 17.3181858864 200.940586093 50.4025001553 c 0,22,23
 184.211061617 67.1320246316 184.211061617 67.1320246316 176.065491746 86.8539626205 c 128,-1,24
 167.919921875 106.575900609 167.919921875 106.575900609 167.919921875 130.381835938 c 0,0,1
193.93745548 1336.35449219 m 1,25,-1
 361.88504269 1336.35449219 l 1,26,-1
 341.02093706 437.609375 l 1,27,-1
 215.843915875 437.609375 l 1,28,-1
 193.93745548 1336.35449219 l 1,25,-1
EndSplineSet
EndChar

StartChar: period
Encoding: 46 46 2
Width: 572
VWidth: 2389
GlyphClass: 2
Flags: W
LayerCount: 2
Fore
SplineSet
173.255859375 127.43359375 m 128,-1,1
 173.255859375 151.255859375 173.255859375 151.255859375 181.396484375 170.965820312 c 0,2,3
 185.46484375 180.814453125 185.46484375 180.814453125 191.6796875 189.922851562 c 128,-1,4
 197.895507812 199.03125 197.895507812 199.03125 206.276367188 207.413085938 c 0,5,6
 239.362304688 240.498046875 239.362304688 240.498046875 286.756835938 240.932617188 c 0,7,8
 296.452148438 240.845703125 296.452148438 240.845703125 305.51953125 239.454101562 c 128,-1,9
 314.587890625 238.0625 314.587890625 238.0625 323.038085938 235.366210938 c 128,-1,10
 331.487304688 232.669921875 331.487304688 232.669921875 339.323242188 228.665039062 c 128,-1,11
 347.16015625 224.66015625 347.16015625 224.66015625 354.384765625 219.348632812 c 128,-1,12
 361.610351562 214.037109375 361.610351562 214.037109375 368.235351562 207.413085938 c 0,13,14
 401.255859375 174.391601562 401.255859375 174.391601562 401.255859375 127.43359375 c 0,15,16
 401.255859375 103.911132812 401.255859375 103.911132812 393.015625 83.9521484375 c 128,-1,17
 384.774414062 63.994140625 384.774414062 63.994140625 368.235351562 47.4541015625 c 128,-1,18
 351.517578125 30.7373046875 351.517578125 30.7373046875 331.607421875 22.4462890625 c 128,-1,19
 311.690429688 14.154296875 311.690429688 14.154296875 287.754882812 13.9345703125 c 0,20,21
 275.526367188 14.044921875 275.526367188 14.044921875 264.359375 16.1796875 c 128,-1,22
 253.19140625 18.3154296875 253.19140625 18.3154296875 243.122070312 22.462890625 c 0,23,24
 222.963867188 30.7666015625 222.963867188 30.7666015625 206.276367188 47.4541015625 c 128,-1,25
 189.536132812 64.1943359375 189.536132812 64.1943359375 181.396484375 83.90234375 c 128,-1,0
 173.255859375 103.611328125 173.255859375 103.611328125 173.255859375 127.43359375 c 128,-1,1
EndSplineSet
EndChar

StartChar: colon
Encoding: 58 58 3
Width: 579
VWidth: 2389
GlyphClass: 2
Flags: W
LayerCount: 2
Fore
SplineSet
175.203125 832.43359375 m 0,0,1
 175.203125 879.391601562 175.203125 879.391601562 208.223632812 912.413085938 c 128,-1,2
 241.309570312 945.498046875 241.309570312 945.498046875 288.704101562 945.932617188 c 0,3,4
 313.166015625 945.712890625 313.166015625 945.712890625 333.336914062 937.404296875 c 128,-1,5
 353.495117188 929.100585938 353.495117188 929.100585938 370.182617188 912.413085938 c 0,6,7
 403.203125 879.391601562 403.203125 879.391601562 403.203125 832.43359375 c 0,8,9
 403.203125 808.911132812 403.203125 808.911132812 394.962890625 788.952148438 c 128,-1,10
 386.721679688 768.994140625 386.721679688 768.994140625 370.182617188 752.454101562 c 128,-1,11
 353.46484375 735.737304688 353.46484375 735.737304688 333.5546875 727.446289062 c 128,-1,12
 313.637695312 719.154296875 313.637695312 719.154296875 289.702148438 718.934570312 c 0,13,14
 265.470703125 719.15234375 265.470703125 719.15234375 245.127929688 727.5234375 c 128,-1,15
 224.784179688 735.893554688 224.784179688 735.893554688 208.223632812 752.454101562 c 0,16,17
 202.634765625 758.043945312 202.634765625 758.043945312 198.006835938 763.959960938 c 128,-1,18
 193.37890625 769.875976562 193.37890625 769.875976562 189.716796875 776.106445312 c 128,-1,19
 186.0546875 782.337890625 186.0546875 782.337890625 183.34375 788.90234375 c 0,20,21
 175.203125 808.611328125 175.203125 808.611328125 175.203125 832.43359375 c 0,0,1
175.203125 127.43359375 m 128,-1,23
 175.203125 151.255859375 175.203125 151.255859375 183.34375 170.965820312 c 0,24,25
 187.412109375 180.814453125 187.412109375 180.814453125 193.626953125 189.922851562 c 128,-1,26
 199.842773438 199.03125 199.842773438 199.03125 208.223632812 207.413085938 c 0,27,28
 241.309570312 240.498046875 241.309570312 240.498046875 288.704101562 240.932617188 c 0,29,30
 298.399414062 240.845703125 298.399414062 240.845703125 307.466796875 239.454101562 c 128,-1,31
 316.53515625 238.0625 316.53515625 238.0625 324.985351562 235.366210938 c 128,-1,32
 333.434570312 232.669921875 333.434570312 232.669921875 341.270507812 228.665039062 c 128,-1,33
 349.107421875 224.66015625 349.107421875 224.66015625 356.33203125 219.348632812 c 128,-1,34
 363.557617188 214.037109375 363.557617188 214.037109375 370.182617188 207.413085938 c 0,35,36
 403.203125 174.391601562 403.203125 174.391601562 403.203125 127.43359375 c 0,37,38
 403.203125 103.911132812 403.203125 103.911132812 394.962890625 83.9521484375 c 128,-1,39
 386.721679688 63.994140625 386.721679688 63.994140625 370.182617188 47.4541015625 c 128,-1,40
 353.46484375 30.7373046875 353.46484375 30.7373046875 333.5546875 22.4462890625 c 128,-1,41
 313.637695312 14.154296875 313.637695312 14.154296875 289.702148438 13.9345703125 c 0,42,43
 277.473632812 14.044921875 277.473632812 14.044921875 266.306640625 16.1796875 c 128,-1,44
 255.138671875 18.3154296875 255.138671875 18.3154296875 245.069335938 22.462890625 c 0,45,46
 224.911132812 30.7666015625 224.911132812 30.7666015625 208.223632812 47.4541015625 c 128,-1,47
 191.483398438 64.1943359375 191.483398438 64.1943359375 183.34375 83.90234375 c 128,-1,22
 175.203125 103.611328125 175.203125 103.611328125 175.203125 127.43359375 c 128,-1,23
EndSplineSet
EndChar

StartChar: afii57388
Encoding: 1548 1548 5
Width: 627
VWidth: 2396
GlyphClass: 2
Flags: W
LayerCount: 2
Fore
SplineSet
322.659179688 13.93359375 m 0,0,1
 307.689453125 13.93359375 307.689453125 13.93359375 294.341796875 15.5888671875 c 128,-1,2
 280.994140625 17.244140625 280.994140625 17.244140625 269.309570312 20.5439453125 c 128,-1,3
 257.625 23.8427734375 257.625 23.8427734375 247.577148438 28.759765625 c 128,-1,4
 237.530273438 33.67578125 237.530273438 33.67578125 229.0859375 40.21875 c 0,5,6
 195.354492188 67.48046875 195.354492188 67.48046875 183.21875 121.499023438 c 0,7,8
 177.409179688 146.500976562 177.409179688 146.500976562 179.915039062 184.356445312 c 0,9,10
 181.170898438 203.342773438 181.170898438 203.342773438 184.581054688 224.837890625 c 128,-1,11
 187.991210938 246.33203125 187.991210938 246.33203125 193.55859375 270.346679688 c 0,12,13
 232.276367188 440.143554688 232.276367188 440.143554688 412.26171875 617.487304688 c 1,14,-1
 449.95703125 589.911132812 l 1,15,16
 431.018554688 569.353515625 431.018554688 569.353515625 414.240234375 549.025390625 c 128,-1,17
 397.4609375 528.697265625 397.4609375 528.697265625 382.8359375 508.58984375 c 128,-1,18
 368.2109375 488.482421875 368.2109375 488.482421875 355.744140625 468.595703125 c 128,-1,19
 343.276367188 448.709960938 343.276367188 448.709960938 332.97265625 429.051757812 c 0,20,21
 291.296875 349.544921875 291.296875 349.544921875 285.412109375 273.077148438 c 2,22,-1
 284.15234375 256.696289062 l 1,23,-1
 283.983398438 254.512695312 l 1,24,-1
 286.173828125 254.543945312 l 1,25,-1
 302.600585938 254.774414062 l 2,26,27
 323.848632812 255.072265625 323.848632812 255.072265625 341.65625 252.760742188 c 0,28,29
 350.541015625 251.606445312 350.541015625 251.606445312 358.633789062 249.798828125 c 128,-1,30
 366.727539062 247.991210938 366.727539062 247.991210938 374.02734375 245.53125 c 128,-1,31
 381.309570312 243.079101562 381.309570312 243.079101562 387.790039062 239.9453125 c 128,-1,32
 394.271484375 236.811523438 394.271484375 236.811523438 399.95703125 233 c 128,-1,33
 405.640625 229.189453125 405.640625 229.189453125 410.586914062 224.725585938 c 128,-1,34
 415.532226562 220.26171875 415.532226562 220.26171875 419.749023438 215.138671875 c 0,35,36
 422.55859375 211.725585938 422.55859375 211.725585938 425.047851562 207.990234375 c 128,-1,37
 427.537109375 204.254882812 427.537109375 204.254882812 429.7109375 200.186523438 c 128,-1,38
 431.884765625 196.118164062 431.884765625 196.118164062 433.740234375 191.723632812 c 128,-1,39
 435.598632812 187.318359375 435.598632812 187.318359375 437.150390625 182.61328125 c 128,-1,40
 438.702148438 177.908203125 438.702148438 177.908203125 439.948242188 172.889648438 c 128,-1,41
 441.1953125 167.872070312 441.1953125 167.872070312 442.133789062 162.551757812 c 0,42,43
 442.837890625 158.556640625 442.837890625 158.556640625 443.375 154.365234375 c 128,-1,44
 443.913085938 150.173828125 443.913085938 150.173828125 444.284179688 145.783203125 c 128,-1,45
 444.655273438 141.392578125 444.655273438 141.392578125 444.858398438 136.801757812 c 128,-1,46
 445.0625 132.211914062 445.0625 132.211914062 445.09765625 127.426757812 c 0,47,48
 445.427734375 79.7578125 445.427734375 79.7578125 425.220703125 52.3857421875 c 128,-1,49
 405.013671875 25.013671875 405.013671875 25.013671875 364.028320312 17.365234375 c 0,50,51
 357.711914062 16.25390625 357.711914062 16.25390625 351.009765625 15.5009765625 c 128,-1,52
 344.30859375 14.7490234375 344.30859375 14.7490234375 337.213867188 14.3564453125 c 128,-1,53
 330.120117188 13.9638671875 330.120117188 13.9638671875 322.659179688 13.93359375 c 0,0,1
EndSplineSet
EndChar

StartChar: uni0615
Encoding: 1557 1557 6
Width: 11
VWidth: 2551
GlyphClass: 4
Flags: W
AnchorPoint: "Anchor-10" 648 1488.29 mark 0
AnchorPoint: "Anchor-9" 648 1488.29 mark 0
AnchorPoint: "Anchor-1" 648 2304.6 basemark 0
AnchorPoint: "Anchor-1" 648 1488.29 mark 0
LayerCount: 2
Fore
SplineSet
791.159179688 1869.37109375 m 0,0,1
 753.11328125 1872.26171875 753.11328125 1872.26171875 697.624023438 1836.75683594 c 128,-1,2
 642.135742188 1801.25195312 642.135742188 1801.25195312 568.583007812 1727.41113281 c 2,3,-1
 528.93359375 1687.60644531 l 1,4,-1
 525.53515625 1684.1953125 l 1,5,-1
 530.350585938 1684.1953125 l 1,6,-1
 653.021484375 1684.1953125 l 2,7,8
 748.443359375 1684.09765625 748.443359375 1684.09765625 798.1796875 1706.88476562 c 128,-1,9
 847.916015625 1729.671875 847.916015625 1729.671875 850.995117188 1775.86035156 c 0,10,11
 857.1328125 1863.828125 857.1328125 1863.828125 791.159179688 1869.37109375 c 0,0,1
928.143554688 1834.63378906 m 0,12,13
 929.412109375 1821.02929688 929.412109375 1821.02929688 929.418945312 1808.2734375 c 0,14,15
 929.543945312 1612.640625 929.543945312 1612.640625 631.908203125 1612.640625 c 2,16,-1
 349.12109375 1612.640625 l 1,17,-1
 349.12109375 1684.1953125 l 1,18,-1
 448.844726562 1684.1953125 l 1,19,-1
 450.844726562 1684.1953125 l 1,20,-1
 450.844726562 1686.1953125 l 1,21,-1
 450.844726562 2185.28320312 l 1,22,-1
 523.657226562 2185.28320312 l 1,23,-1
 524 1781.99804688 l 1,24,-1
 524.00390625 1777.06054688 l 1,25,-1
 527.4375 1780.609375 l 1,26,-1
 561.737304688 1816.06542969 l 2,27,28
 690.856445312 1950.00585938 690.856445312 1950.00585938 784.01953125 1950.69824219 c 0,29,30
 917.1796875 1951.98242188 917.1796875 1951.98242188 928.143554688 1834.63378906 c 0,12,13
EndSplineSet
EndChar

StartChar: uni061B
Encoding: 1563 1563 7
Width: 627
VWidth: 2396
GlyphClass: 2
Flags: W
LayerCount: 2
Fore
SplineSet
322.744140625 457.862304688 m 0,0,1
 292.844726562 457.862304688 292.844726562 457.862304688 269.461914062 464.453125 c 128,-1,2
 246.079101562 471.043945312 246.079101562 471.043945312 229.16796875 484.147460938 c 128,-1,3
 212.26953125 497.2421875 212.26953125 497.2421875 200.797851562 517.534179688 c 128,-1,4
 189.327148438 537.825195312 189.327148438 537.825195312 183.302734375 565.418945312 c 0,5,6
 179.388671875 583.151367188 179.388671875 583.151367188 179.21875 605.57421875 c 128,-1,7
 179.047851562 627.997070312 179.047851562 627.997070312 182.65234375 655.212890625 c 128,-1,8
 186.256835938 682.428710938 186.256835938 682.428710938 193.640625 714.275390625 c 0,9,10
 232.358398438 884.072265625 232.358398438 884.072265625 412.34375 1061.41601562 c 1,11,-1
 450.0390625 1033.83984375 l 1,12,13
 374.250976562 951.572265625 374.250976562 951.572265625 333.0546875 872.98046875 c 0,14,15
 312.2265625 833.245117188 312.2265625 833.245117188 300.33203125 794.249023438 c 128,-1,16
 288.4375 755.251953125 288.4375 755.251953125 285.494140625 717.005859375 c 2,17,-1
 284.234375 700.625 l 1,18,-1
 284.065429688 698.44140625 l 1,19,-1
 286.255859375 698.47265625 l 1,20,-1
 302.682617188 698.703125 l 2,21,22
 376.286132812 699.736328125 376.286132812 699.736328125 410.518554688 668.822265625 c 0,23,24
 414.295898438 665.411132812 414.295898438 665.411132812 417.661132812 661.564453125 c 128,-1,25
 421.026367188 657.717773438 421.026367188 657.717773438 423.98828125 653.421875 c 128,-1,26
 426.94921875 649.126953125 426.94921875 649.126953125 429.49609375 644.392578125 c 128,-1,27
 432.043945312 639.659179688 432.043945312 639.659179688 434.182617188 634.471679688 c 128,-1,28
 436.321289062 629.284179688 436.321289062 629.284179688 438.044921875 623.655273438 c 128,-1,29
 439.767578125 618.026367188 439.767578125 618.026367188 441.078125 611.938476562 c 128,-1,30
 442.387695312 605.8515625 442.387695312 605.8515625 443.280273438 599.319335938 c 128,-1,31
 444.172851562 592.788085938 444.172851562 592.788085938 444.6484375 585.79296875 c 128,-1,32
 445.124023438 578.797851562 445.124023438 578.797851562 445.1796875 571.35546875 c 0,33,34
 445.383789062 541.887695312 445.383789062 541.887695312 438.165039062 520.405273438 c 128,-1,35
 430.947265625 498.921875 430.947265625 498.921875 416.403320312 485.293945312 c 0,36,37
 387.125 457.862304688 387.125 457.862304688 322.744140625 457.862304688 c 0,0,1
201.907226562 127.43359375 m 128,-1,39
 201.907226562 151.255859375 201.907226562 151.255859375 210.047851562 170.965820312 c 0,40,41
 214.116210938 180.814453125 214.116210938 180.814453125 220.331054688 189.922851562 c 128,-1,42
 226.546875 199.03125 226.546875 199.03125 234.927734375 207.413085938 c 0,43,44
 268.013671875 240.498046875 268.013671875 240.498046875 315.408203125 240.932617188 c 0,45,46
 339.639648438 240.71484375 339.639648438 240.71484375 359.982421875 232.34375 c 128,-1,47
 380.326171875 223.973632812 380.326171875 223.973632812 396.88671875 207.413085938 c 0,48,49
 429.907226562 174.391601562 429.907226562 174.391601562 429.907226562 127.43359375 c 0,50,51
 429.907226562 103.911132812 429.907226562 103.911132812 421.666992188 83.9521484375 c 128,-1,52
 413.42578125 63.994140625 413.42578125 63.994140625 396.88671875 47.4541015625 c 0,53,54
 385.72265625 36.2900390625 385.72265625 36.2900390625 373.177734375 28.908203125 c 128,-1,55
 360.651367188 21.5361328125 360.651367188 21.5361328125 346.530273438 17.8115234375 c 0,56,57
 341.826171875 16.5712890625 341.826171875 16.5712890625 336.904296875 15.7255859375 c 128,-1,58
 331.982421875 14.8798828125 331.982421875 14.8798828125 326.852539062 14.431640625 c 128,-1,59
 321.723632812 13.9833984375 321.723632812 13.9833984375 316.40625 13.9345703125 c 0,60,61
 268.01171875 14.3701171875 268.01171875 14.3701171875 234.927734375 47.4541015625 c 0,62,63
 218.1875 64.1943359375 218.1875 64.1943359375 210.047851562 83.90234375 c 128,-1,38
 201.907226562 103.611328125 201.907226562 103.611328125 201.907226562 127.43359375 c 128,-1,39
EndSplineSet
EndChar

StartChar: uni061F
Encoding: 1567 1567 8
Width: 911
VWidth: 2396
GlyphClass: 2
Flags: W
LayerCount: 2
Fore
SplineSet
402.284179688 127.43359375 m 0,0,1
 402.284179688 143.330221222 402.284179688 143.330221222 405.898643433 157.345728367 c 128,-1,2
 409.513107179 171.361235512 409.513107179 171.361235512 416.824534414 183.802641394 c 128,-1,3
 424.135961649 196.244047276 424.135961649 196.244047276 435.304843905 207.412929532 c 0,4,5
 468.39019666 240.498282287 468.39019666 240.498282287 515.785438 240.932974412 c 0,6,7
 564.179201201 240.497243801 564.179201201 240.497243801 597.26351547 207.412929532 c 128,-1,8
 630.284179688 174.392265314 630.284179688 174.392265314 630.284179688 127.43359375 c 128,-1,9
 630.284179688 80.4749221856 630.284179688 80.4749221856 597.26351547 47.4542579678 c 128,-1,10
 564.177297753 14.3680402506 564.177297753 14.3680402506 516.783056603 13.9342118708 c 0,11,12
 468.389158174 14.3699436989 468.389158174 14.3699436989 435.304843905 47.4542579678 c 128,-1,13
 402.284179688 80.4749221856 402.284179688 80.4749221856 402.284179688 127.43359375 c 0,0,1
440.490234375 426.693124337 m 1,14,-1
 440.490082667 446.067462764 l 2,15,16
 440.315229962 484.944672892 440.315229962 484.944672892 427.540426506 521.56073055 c 128,-1,17
 414.76562305 558.176788208 414.76562305 558.176788208 390.042658989 591.727975389 c 128,-1,18
 365.319694929 625.279162569 365.319694929 625.279162569 328.737702655 656.156903433 c 2,19,-1
 271.524795227 704.448548236 l 2,20,21
 115.041433947 836.91979613 115.041433947 836.91979613 115.999542397 997.863302703 c 0,22,23
 116.120780398 1013.38413471 116.120780398 1013.38413471 117.191787145 1028.23801119 c 128,-1,24
 118.262793893 1043.09188766 118.262793893 1043.09188766 120.27940467 1057.23837413 c 128,-1,25
 122.296015446 1071.38486059 122.296015446 1071.38486059 125.247516912 1084.86422392 c 128,-1,26
 128.199018378 1098.34358725 128.199018378 1098.34358725 132.090885876 1111.14390406 c 128,-1,27
 135.982753374 1123.94422087 135.982753374 1123.94422087 140.793990833 1136.07534619 c 128,-1,28
 145.605228291 1148.20647151 145.605228291 1148.20647151 151.351593785 1159.68689381 c 128,-1,29
 157.097959279 1171.16731611 157.097959279 1171.16731611 163.748174005 1181.97647857 c 128,-1,30
 170.39838873 1192.78564104 170.39838873 1192.78564104 177.977850824 1202.97054323 c 0,31,32
 271.490539465 1327.01798734 271.490539465 1327.01798734 449.03530405 1327.44534536 c 0,33,34
 473.912676207 1327.49741846 473.912676207 1327.49741846 497.015328832 1324.77009245 c 128,-1,35
 520.117981457 1322.04276643 520.117981457 1322.04276643 541.534666663 1316.51311208 c 128,-1,36
 562.951351869 1310.98345772 562.951351869 1310.98345772 582.621552428 1302.64656491 c 128,-1,37
 602.291752988 1294.3096721 602.291752988 1294.3096721 620.28966552 1283.13557348 c 128,-1,38
 638.287578052 1271.96147485 638.287578052 1271.96147485 654.568211191 1257.95276764 c 128,-1,39
 670.84884433 1243.94406044 670.84884433 1243.94406044 685.470868834 1227.06326994 c 128,-1,40
 700.092893337 1210.18247944 700.092893337 1210.18247944 713.0268437 1190.43971023 c 128,-1,41
 725.960794063 1170.69694102 725.960794063 1170.69694102 737.249815182 1148.04721105 c 128,-1,42
 748.538836301 1125.39748107 748.538836301 1125.39748107 758.168988533 1099.85840225 c 128,-1,43
 767.799140764 1074.31932344 767.799140764 1074.31932344 775.79901351 1045.83887559 c 1,44,-1
 651.995936634 1005.43748829 l 1,45,46
 618.595419405 1088.34884721 618.595419405 1088.34884721 568.917624711 1130.62552826 c 128,-1,47
 519.239830016 1172.90220932 519.239830016 1172.90220932 453.715361812 1171.69574135 c 0,48,49
 404.459973382 1170.79620111 404.459973382 1170.79620111 366.504481269 1154.59236671 c 128,-1,50
 328.548989156 1138.38853231 328.548989156 1138.38853231 303.227361118 1106.66392551 c 0,51,52
 263.043061506 1055.21915533 263.043061506 1055.21915533 262.500216629 990.11381834 c 0,53,54
 261.957965322 889.219066434 261.957965322 889.219066434 393.991824455 790.053011012 c 2,55,-1
 437.988376324 757.00872656 l 2,56,57
 518.191108352 696.735158247 518.191108352 696.735158247 557.825534645 619.603093768 c 128,-1,58
 597.459960938 542.47102929 597.459960938 542.47102929 597.459960938 447 c 2,59,-1
 597.459960938 426.690664729 l 1,60,-1
 440.490234375 426.693124337 l 1,14,-1
EndSplineSet
EndChar

StartChar: uni0621
Encoding: 1569 1569 9
Width: 807
VWidth: 2551
GlyphClass: 2
Flags: W
AnchorPoint: "Anchor-7" 470.143 -68.166 basechar 0
AnchorPoint: "Anchor-10" 322.188 1089.55 basechar 0
LayerCount: 2
Fore
SplineSet
444.830078125 685.458007812 m 0,0,1
 428.899414062 685.376953125 428.899414062 685.376953125 413.95703125 683.806640625 c 128,-1,2
 399.014648438 682.236328125 399.014648438 682.236328125 385.036132812 679.169921875 c 128,-1,3
 371.057617188 676.104492188 371.057617188 676.104492188 358.053710938 671.541992188 c 0,4,5
 319.008789062 657.842773438 319.008789062 657.842773438 289.35546875 630.385742188 c 0,6,7
 239.969726562 583.24609375 239.969726562 583.24609375 240.30078125 504.038085938 c 0,8,9
 239.969726562 357.7578125 239.969726562 357.7578125 421.530273438 312.04296875 c 0,10,11
 456.879882812 302.995117188 456.879882812 302.995117188 497.69921875 303.09765625 c 0,12,13
 568.536132812 303.004882812 568.536132812 303.004882812 657.788085938 346.056640625 c 1,14,-1
 694.52734375 222.248046875 l 1,15,-1
 176.229492188 23.7392578125 l 1,16,-1
 128.703125 135.513671875 l 1,17,-1
 324.791015625 204.651367188 l 1,18,-1
 371.068359375 220.966796875 l 1,19,-1
 377.23828125 223.142578125 l 1,20,-1
 370.90625 224.7890625 l 1,21,-1
 323.416015625 237.13671875 l 2,22,23
 214.34765625 265.495117188 214.34765625 265.495117188 161.354492188 333.768554688 c 128,-1,24
 108.365234375 402.037109375 108.365234375 402.037109375 108.69921875 513.671875 c 0,25,26
 108.734375 534.30859375 108.734375 534.30859375 110.815429688 553.618164062 c 128,-1,27
 112.895507812 572.926757812 112.895507812 572.926757812 117.0234375 590.918945312 c 128,-1,28
 121.151367188 608.911132812 121.151367188 608.911132812 127.325195312 625.583007812 c 128,-1,29
 133.498046875 642.254882812 133.498046875 642.254882812 141.72265625 657.616210938 c 128,-1,30
 149.947265625 672.977539062 149.947265625 672.977539062 160.21875 687.026367188 c 128,-1,31
 170.490234375 701.07421875 170.490234375 701.07421875 182.815429688 713.8203125 c 128,-1,32
 195.141601562 726.565429688 195.141601562 726.565429688 209.514648438 738.004882812 c 128,-1,33
 223.887695312 749.444335938 223.887695312 749.444335938 240.318359375 759.588867188 c 0,34,35
 280.604492188 784.796875 280.604492188 784.796875 329.607421875 797.556640625 c 128,-1,36
 378.610351562 810.315429688 378.610351562 810.315429688 436.377929688 810.607421875 c 0,37,38
 515.514648438 810.954101562 515.514648438 810.954101562 580.30078125 782.791015625 c 1,39,-1
 580.30078125 665.288085938 l 1,40,41
 547.471679688 674.975585938 547.471679688 674.975585938 514.263671875 680.013671875 c 0,42,43
 479.737304688 685.250976562 479.737304688 685.250976562 444.830078125 685.458007812 c 0,0,1
EndSplineSet
EndChar

StartChar: uni0627
Encoding: 1575 1575 15
Width: 469
VWidth: 2551
GlyphClass: 2
Flags: W
AnchorPoint: "Anchor-10" 235.338 1463.41 basechar 0
AnchorPoint: "Anchor-7" 239.805 -256.859 basechar 0
LayerCount: 2
Fore
SplineSet
175.299804688 1318.72716543 m 1,0,-1
 311.393554688 1318.72753906 l 1,1,-1
 311.393554688 15.6947095661 l 1,2,-1
 175.299804688 15.6943359375 l 1,3,-1
 175.299804688 1318.72716543 l 1,0,-1
EndSplineSet
Substitution2: "'fina' Terminal Forms in Arabic lookup 9 subtable" uniFE8E
EndChar

StartChar: uni062D
Encoding: 1581 1581 21
Width: 1319
VWidth: 2551
GlyphClass: 2
Flags: W
AnchorPoint: "Anchor-7" 471.334 -835.653 basechar 0
AnchorPoint: "Anchor-10" 552.649 1189.29 basechar 0
LayerCount: 2
Fore
SplineSet
1073.55566406 336.823242188 m 0,0,1
 676.723321536 281.235607675 676.723321536 281.235607675 465.174804688 149.169921875 c 0,2,3
 259.376953125 20.6943359375 259.376953125 20.6943359375 258.6875 -179.690429688 c 0,4,5
 258.490234375 -219.21484375 258.490234375 -219.21484375 265.302734375 -254.396484375 c 128,-1,6
 272.116210938 -289.578125 272.116210938 -289.578125 285.9609375 -320.432617188 c 128,-1,7
 299.8046875 -351.288085938 299.8046875 -351.288085938 320.66796875 -377.7421875 c 0,8,9
 383.189453125 -457.018554688 383.189453125 -457.018554688 504.528320312 -495.696289062 c 0,10,11
 625.581054688 -534.282226562 625.581054688 -534.282226562 804.486328125 -534.172851562 c 2,12,-1
 1201.33007812 -533.9296875 l 1,13,-1
 1201.33007812 -680.438476562 l 1,14,-1
 792.473632812 -679.58203125 l 2,15,16
 599.881835938 -679.294921875 599.881835938 -679.294921875 464.86328125 -641.392578125 c 0,17,18
 330.0625 -603.552734375 330.0625 -603.552734375 252.8515625 -529.59375 c 0,19,20
 114.103515625 -395.874023438 114.103515625 -395.874023438 117.108398438 -185.842773438 c 0,21,22
 122.837890625 327.340820312 122.837890625 327.340820312 926.52734375 448.189453125 c 2,23,-1
 968.987304688 454.573242188 l 1,24,-1
 974.6484375 455.424804688 l 1,25,-1
 969.688476562 458.284179688 l 1,26,-1
 932.490234375 479.727539062 l 1,27,-1
 814.174804688 547.93359375 l 2,28,29
 536.299804688 707.583007812 536.299804688 707.583007812 307.130859375 525.50390625 c 2,30,-1
 246.716796875 477.502929688 l 1,31,-1
 151.274414062 584.72265625 l 1,32,-1
 200.776367188 627.291015625 l 2,33,34
 505.05859375 888.366210938 505.05859375 888.366210938 838.154296875 694.500976562 c 2,35,-1
 1027.17480469 584.489257812 l 2,36,37
 1074.57714844 556.985351562 1074.57714844 556.985351562 1117.98632812 538.451171875 c 0,38,39
 1139.07421875 529.447265625 1139.07421875 529.447265625 1159.74070312 522.415039062 c 128,-1,40
 1180.4071875 515.3828125 1180.4071875 515.3828125 1199.54 510.646484375 c 1,41,-1
 1199.54 354.091796875 l 1,42,43
 1136.91304688 345.698242188 1136.91304688 345.698242188 1073.55566406 336.823242188 c 0,0,1
EndSplineSet
Substitution2: "'fina' Terminal Forms in Arabic lookup 9 subtable" uniFEA2
Substitution2: "'medi' Medial Forms in Arabic lookup 11 subtable" uniFEA4
Substitution2: "'init' Initial Forms in Arabic lookup 13 subtable" uniFEA3
EndChar

StartChar: uni062F
Encoding: 1583 1583 23
Width: 1011
VWidth: 2551
GlyphClass: 2
Flags: W
AnchorPoint: "Anchor-10" 403.659 1298.16 basechar 0
AnchorPoint: "Anchor-7" 428.382 -244.53 basechar 0
LayerCount: 2
Fore
SplineSet
467.978515625 15 m 2,0,-1
 118.899414062 15 l 1,1,-1
 118.899414062 165 l 1,2,-1
 468.911132812 165 l 2,3,4
 745.915188041 165 745.915188041 165 746.720834631 307.08418184 c 0,5,6
 746.492003961 381.083346752 746.492003961 381.083346752 640.853272239 503.125373489 c 2,7,-1
 375.822063645 809.322080385 l 1,8,-1
 476.439548506 921.865227002 l 1,9,-1
 764.103853398 586.923413804 l 2,10,11
 893.969166446 435.736206916 893.969166446 435.736206916 893.288226973 295.073835507 c 0,12,13
 892.680826612 155.005921298 892.680826612 155.005921298 788.230201423 85.0029606488 c 128,-1,14
 683.779576235 15 683.779576235 15 467.978515625 15 c 2,0,-1
EndSplineSet
Substitution2: "'fina' Terminal Forms in Arabic lookup 9 subtable" uniFEAA
EndChar

StartChar: uni0631
Encoding: 1585 1585 25
Width: 755
VWidth: 2551
GlyphClass: 2
Flags: W
AnchorPoint: "Anchor-7" 297.433 -669.366 basechar 0
AnchorPoint: "Anchor-10" 450.527 953.269 basechar 0
LayerCount: 2
Fore
SplineSet
94.18359375 -299.440429688 m 6,0,1
 497.382135698 -299.832528275 497.382135698 -299.832528275 497.3828125 70.53125 c 6,2,-1
 497.383761279 589.727663759 l 1,3,-1
 641.180664062 590.583328381 l 1,4,-1
 641.180664062 68.0322265625 l 6,5,6
 640.999961527 -442.108614227 640.999961527 -442.108614227 96.3017578125 -446.412109375 c 6,7,-1
 38.94921875 -446.865234375 l 5,8,-1
 38.9521484375 -299.38671875 l 5,9,-1
 94.18359375 -299.440429688 l 6,0,1
EndSplineSet
PairPos2: "'kern' Horizontal Kerning lookup 15-2" uniFBFE dx=60 dy=0 dh=60 dv=0 dx=0 dy=0 dh=0 dv=0
PairPos2: "'kern' Horizontal Kerning lookup 15-1" uniFEFB dx=-100 dy=0 dh=-100 dv=0 dx=0 dy=0 dh=0 dv=0
PairPos2: "'kern' Horizontal Kerning lookup 15-1" uniFEDF dx=-100 dy=0 dh=-100 dv=0 dx=0 dy=0 dh=0 dv=0
PairPos2: "'kern' Horizontal Kerning lookup 15-1" uni062F dx=-100 dy=0 dh=-100 dv=0 dx=0 dy=0 dh=0 dv=0
PairPos2: "'kern' Horizontal Kerning lookup 15-2" uniFB90 dx=-142 dy=0 dh=-142 dv=0 dx=0 dy=0 dh=0 dv=0
PairPos2: "'kern' Horizontal Kerning lookup 15-2" uniFB8E dx=-142 dy=0 dh=-142 dv=0 dx=0 dy=0 dh=0 dv=0
PairPos2: "'kern' Horizontal Kerning lookup 15-2" uni06A9 dx=-142 dy=0 dh=-142 dv=0 dx=0 dy=0 dh=0 dv=0
PairPos2: "'kern' Horizontal Kerning lookup 15-2" uniFEEB dx=-100 dy=0 dh=-100 dv=0 dx=0 dy=0 dh=0 dv=0
PairPos2: "'kern' Horizontal Kerning lookup 15-2" uni0647 dx=-100 dy=0 dh=-100 dv=0 dx=0 dy=0 dh=0 dv=0
PairPos2: "'kern' Horizontal Kerning lookup 15-2" uniFEE7 dx=-100 dy=0 dh=-100 dv=0 dx=0 dy=0 dh=0 dv=0
PairPos2: "'kern' Horizontal Kerning lookup 15-2" uniFEE3 dx=-100 dy=0 dh=-100 dv=0 dx=0 dy=0 dh=0 dv=0
PairPos2: "'kern' Horizontal Kerning lookup 15-2" uni0645 dx=-100 dy=0 dh=-100 dv=0 dx=0 dy=0 dh=0 dv=0
PairPos2: "'kern' Horizontal Kerning lookup 15-2" uniFEDB dx=-100 dy=0 dh=-100 dv=0 dx=0 dy=0 dh=0 dv=0
PairPos2: "'kern' Horizontal Kerning lookup 15-2" uni0643 dx=-100 dy=0 dh=-100 dv=0 dx=0 dy=0 dh=0 dv=0
PairPos2: "'kern' Horizontal Kerning lookup 15-2" uniFED7 dx=-100 dy=0 dh=-100 dv=0 dx=0 dy=0 dh=0 dv=0
PairPos2: "'kern' Horizontal Kerning lookup 15-2" uniFED3 dx=-100 dy=0 dh=-100 dv=0 dx=0 dy=0 dh=0 dv=0
PairPos2: "'kern' Horizontal Kerning lookup 15-2" uni0641 dx=-100 dy=0 dh=-100 dv=0 dx=0 dy=0 dh=0 dv=0
PairPos2: "'kern' Horizontal Kerning lookup 15-2" uniFECF dx=-100 dy=0 dh=-100 dv=0 dx=0 dy=0 dh=0 dv=0
PairPos2: "'kern' Horizontal Kerning lookup 15-2" uniFECB dx=-100 dy=0 dh=-100 dv=0 dx=0 dy=0 dh=0 dv=0
PairPos2: "'kern' Horizontal Kerning lookup 15-2" uniFEC7 dx=-100 dy=0 dh=-100 dv=0 dx=0 dy=0 dh=0 dv=0
PairPos2: "'kern' Horizontal Kerning lookup 15-2" uni0638 dx=-100 dy=0 dh=-100 dv=0 dx=0 dy=0 dh=0 dv=0
PairPos2: "'kern' Horizontal Kerning lookup 15-2" uniFEC3 dx=-100 dy=0 dh=-100 dv=0 dx=0 dy=0 dh=0 dv=0
PairPos2: "'kern' Horizontal Kerning lookup 15-2" uni0637 dx=-100 dy=0 dh=-100 dv=0 dx=0 dy=0 dh=0 dv=0
PairPos2: "'kern' Horizontal Kerning lookup 15-2" uniFEBF dx=-100 dy=0 dh=-100 dv=0 dx=0 dy=0 dh=0 dv=0
PairPos2: "'kern' Horizontal Kerning lookup 15-2" uni0636 dx=-100 dy=0 dh=-100 dv=0 dx=0 dy=0 dh=0 dv=0
PairPos2: "'kern' Horizontal Kerning lookup 15-2" uniFEBB dx=-100 dy=0 dh=-100 dv=0 dx=0 dy=0 dh=0 dv=0
PairPos2: "'kern' Horizontal Kerning lookup 15-2" uni0635 dx=-100 dy=0 dh=-100 dv=0 dx=0 dy=0 dh=0 dv=0
PairPos2: "'kern' Horizontal Kerning lookup 15-2" uniFEB7 dx=-100 dy=0 dh=-100 dv=0 dx=0 dy=0 dh=0 dv=0
PairPos2: "'kern' Horizontal Kerning lookup 15-2" uni0634 dx=-100 dy=0 dh=-100 dv=0 dx=0 dy=0 dh=0 dv=0
PairPos2: "'kern' Horizontal Kerning lookup 15-2" uniFEB3 dx=-100 dy=0 dh=-100 dv=0 dx=0 dy=0 dh=0 dv=0
PairPos2: "'kern' Horizontal Kerning lookup 15-2" uni0633 dx=-100 dy=0 dh=-100 dv=0 dx=0 dy=0 dh=0 dv=0
PairPos2: "'kern' Horizontal Kerning lookup 15-2" uniFEA7 dx=-100 dy=0 dh=-100 dv=0 dx=0 dy=0 dh=0 dv=0
PairPos2: "'kern' Horizontal Kerning lookup 15-2" uniFEA3 dx=-100 dy=0 dh=-100 dv=0 dx=0 dy=0 dh=0 dv=0
PairPos2: "'kern' Horizontal Kerning lookup 15-2" uniFE9F dx=-100 dy=0 dh=-100 dv=0 dx=0 dy=0 dh=0 dv=0
PairPos2: "'kern' Horizontal Kerning lookup 15-2" uniFE9B dx=-100 dy=0 dh=-100 dv=0 dx=0 dy=0 dh=0 dv=0
PairPos2: "'kern' Horizontal Kerning lookup 15-2" uni062B dx=-100 dy=0 dh=-100 dv=0 dx=0 dy=0 dh=0 dv=0
PairPos2: "'kern' Horizontal Kerning lookup 15-2" uniFE97 dx=-100 dy=0 dh=-100 dv=0 dx=0 dy=0 dh=0 dv=0
PairPos2: "'kern' Horizontal Kerning lookup 15-2" uni062A dx=-100 dy=0 dh=-100 dv=0 dx=0 dy=0 dh=0 dv=0
PairPos2: "'kern' Horizontal Kerning lookup 15-2" uni0629 dx=-100 dy=0 dh=-100 dv=0 dx=0 dy=0 dh=0 dv=0
PairPos2: "'kern' Horizontal Kerning lookup 15-2" uniFE91 dx=-47 dy=0 dh=-47 dv=0 dx=0 dy=0 dh=0 dv=0
PairPos2: "'kern' Horizontal Kerning lookup 15-2" uni0628 dx=-100 dy=0 dh=-100 dv=0 dx=0 dy=0 dh=0 dv=0
PairPos2: "'kern' Horizontal Kerning lookup 15-2" uni0627 dx=-160 dy=0 dh=-160 dv=0 dx=0 dy=0 dh=0 dv=0
PairPos2: "'kern' Horizontal Kerning lookup 15-2" uni0622 dx=-160 dy=0 dh=-160 dv=0 dx=0 dy=0 dh=0 dv=0
PairPos2: "'kern' Horizontal Kerning lookup 15-2" uni0621 dx=-100 dy=0 dh=-100 dv=0 dx=0 dy=0 dh=0 dv=0
PairPos2: "'kern' Horizontal Kerning lookup 15-2" uniFB94 dx=-142 dy=0 dh=-142 dv=0 dx=0 dy=0 dh=0 dv=0
PairPos2: "'kern' Horizontal Kerning lookup 15-2" uniFB92 dx=-142 dy=0 dh=-142 dv=0 dx=0 dy=0 dh=0 dv=0
PairPos2: "'kern' Horizontal Kerning lookup 15-2" afii57509 dx=-142 dy=0 dh=-142 dv=0 dx=0 dy=0 dh=0 dv=0
PairPos2: "'kern' Horizontal Kerning lookup 15-2" uniFB7C dx=-100 dy=0 dh=-100 dv=0 dx=0 dy=0 dh=0 dv=0
PairPos2: "'kern' Horizontal Kerning lookup 15-2" afii57506 dx=-100 dy=0 dh=-100 dv=0 dx=0 dy=0 dh=0 dv=0
PairPos2: "'kern' Horizontal Kerning lookup 15-2" afii57440 dx=-94 dy=0 dh=-94 dv=0 dx=0 dy=0 dh=0 dv=0
Substitution2: "'fina' Terminal Forms in Arabic lookup 9 subtable" uniFEAE
EndChar

StartChar: uni0633
Encoding: 1587 1587 27
Width: 2484
VWidth: 2551
GlyphClass: 2
Flags: W
AnchorPoint: "Anchor-7" 691 -667.5 basechar 0
AnchorPoint: "Anchor-10" 1778.4 1063.57 basechar 0
LayerCount: 2
Fore
SplineSet
1533.51757812 13.9326171875 m 0,0,1
 1405.86132812 14.9931640625 1405.86132812 14.9931640625 1316.015625 108.858398438 c 2,2,-1
 1312.57128906 112.45703125 l 1,3,-1
 1312.57128906 107.475585938 l 1,4,-1
 1312.57128906 80.068359375 l 1,5,-1
 1312.57128906 51.8466796875 l 2,6,7
 1312.78515625 -71.232421875 1312.78515625 -71.232421875 1277.99707031 -162.828125 c 128,-1,8
 1243.20898438 -254.423828125 1243.20898438 -254.423828125 1173.45996094 -314.7265625 c 0,9,10
 1034.31933594 -435.940429688 1034.31933594 -435.940429688 748.819335938 -435.940429688 c 2,11,-1
 694.099609375 -435.940429688 l 2,12,13
 403.788085938 -436 403.788085938 -436 260.813476562 -302.63671875 c 0,14,15
 189.549804688 -236.017578125 189.549804688 -236.017578125 153.859375 -135.073242188 c 128,-1,16
 118.168945312 -34.12890625 118.168945312 -34.12890625 118.12109375 101.282226562 c 2,17,-1
 118.005859375 427.002929688 l 1,18,-1
 264.877929688 427.030273438 l 1,19,-1
 264.877929688 102.443359375 l 2,20,21
 265.000976562 -88.892578125 265.000976562 -88.892578125 374.319335938 -187.041015625 c 0,22,23
 482.83203125 -284.639648438 482.83203125 -284.639648438 696.272460938 -284.639648438 c 2,24,-1
 747.369140625 -284.639648438 l 2,25,26
 959.671875 -285.000976562 959.671875 -285.000976562 1069.3203125 -201.74609375 c 0,27,28
 1179.01269531 -117.979492188 1179.01269531 -117.979492188 1179.16210938 46.1982421875 c 2,29,-1
 1178.82421875 615.827148438 l 1,30,-1
 1325.26757812 615.90234375 l 1,31,-1
 1325.26757812 397.315429688 l 2,32,33
 1324.99804688 164.000976562 1324.99804688 164.000976562 1532.8984375 163.93359375 c 0,34,35
 1717.03808594 164.000976562 1717.03808594 164.000976562 1717.61328125 371.62890625 c 2,36,-1
 1718.29394531 617.62109375 l 1,37,-1
 1863.54199219 617.62109375 l 1,38,-1
 1864.80957031 373.514648438 l 2,39,40
 1865.40820312 270.110351562 1865.40820312 270.110351562 1913.15429688 217.54296875 c 128,-1,41
 1960.90039062 164.975585938 1960.90039062 164.975585938 2055.34179688 163.93359375 c 0,42,43
 2221.94824219 161.953125 2221.94824219 161.953125 2221.94824219 369.92578125 c 2,44,-1
 2221.94824219 650.295898438 l 1,45,-1
 2366.70605469 650.295898438 l 1,46,-1
 2366.70605469 361.947265625 l 2,47,48
 2366.80371094 302.807617188 2366.80371094 302.807617188 2358.29394531 253.892578125 c 128,-1,49
 2349.78417969 204.977539062 2349.78417969 204.977539062 2332.74121094 166.407226562 c 128,-1,50
 2315.69824219 127.836914062 2315.69824219 127.836914062 2290.11816406 99.4501953125 c 0,51,52
 2213.109375 14 2213.109375 14 2056.42871094 13.93359375 c 0,53,54
 1876.22070312 14 1876.22070312 14 1800.06738281 161.970703125 c 2,55,-1
 1798.2109375 165.577148438 l 1,56,-1
 1796.48046875 161.909179688 l 2,57,58
 1725.73828125 12.0126953125 1725.73828125 12.0126953125 1533.51757812 13.9326171875 c 0,0,1
EndSplineSet
Substitution2: "'fina' Terminal Forms in Arabic lookup 9 subtable" uniFEB2
Substitution2: "'medi' Medial Forms in Arabic lookup 11 subtable" uniFEB4
Substitution2: "'init' Initial Forms in Arabic lookup 13 subtable" uniFEB3
EndChar

StartChar: uni0635
Encoding: 1589 1589 29
Width: 2515
VWidth: 2551
GlyphClass: 2
Flags: W
AnchorPoint: "Anchor-10" 2006.4 1267.57 basechar 0
AnchorPoint: "Anchor-7" 691 -667.5 basechar 0
LayerCount: 2
Fore
SplineSet
1325.26757812 417.294921875 m 2,0,1
 1325.26757812 321.617959575 1325.26757812 321.617959575 1351.75067219 264.302023429 c 128,-1,2
 1378.23376626 206.986087283 1378.23376626 206.986087283 1433.71861138 192.547889243 c 2,3,-1
 1435.41490044 192.106482993 l 1,4,-1
 1448.13493721 188.796490695 l 1,5,-1
 1453.08701164 200.971561261 l 1,6,-1
 1453.75036113 202.602465316 l 2,7,8
 1680.09838613 760 1680.09838613 760 2017.5 760 c 0,9,10
 2215.51855662 760 2215.51855662 760 2317.47840856 624.603739462 c 0,11,12
 2397.98584258 518.954720827 2397.98584258 518.954720827 2397.56257536 367.499696228 c 0,13,14
 2397.0232468 197.357452929 2397.0232468 197.357452929 2269.610914 98.3289215582 c 0,15,16
 2161.87596127 15 2161.87596127 15 1961.26464844 15 c 2,17,-1
 1621.32421875 15 l 2,18,19
 1544.40666254 15 1544.40666254 15 1486.59974191 24.6850812389 c 128,-1,20
 1428.79282128 34.3701624777 1428.79282128 34.3701624777 1392.9544798 52.0006786845 c 128,-1,21
 1357.11613833 69.6311948912 1357.11613833 69.6311948912 1340.00588335 94.9918694814 c 2,22,-1
 1312.57128906 135.655192109 l 1,23,-1
 1312.57128906 86.6025390625 l 1,24,-1
 1312.57129451 51.8485399837 l 2,25,26
 1312.78048752 -193.526757496 1312.78048752 -193.526757496 1173.27516149 -314.733593592 c 128,-1,27
 1033.76983545 -435.940429688 1033.76983545 -435.940429688 748.819335938 -435.940429688 c 2,28,-1
 694.100050823 -435.940429764 l 2,29,30
 207.529578749 -435.989465593 207.529578749 -435.989465593 132.314043592 -55.8013413087 c 0,31,32
 118.240263999 16.4185726963 118.240263999 16.4185726963 118.121092818 101.282631798 c 2,33,-1
 118.00626455 427.00281651 l 1,34,-1
 264.877929688 427.030387079 l 1,35,-1
 264.877930493 102.443325922 l 2,36,37
 264.940828992 -89.4660319109 264.940828992 -89.4660319109 374.155876234 -187.052840174 c 128,-1,38
 483.370923476 -284.639648438 483.370923476 -284.639648438 696.272460938 -284.639648438 c 2,39,-1
 747.37081484 -284.639642826 l 2,40,41
 959.962997307 -284.823524114 959.962997307 -284.823524114 1069.6115191 -201.65243695 c 128,-1,42
 1179.26004089 -118.481349787 1179.26004089 -118.481349787 1179.16210673 46.5674942186 c 2,43,-1
 1178.82432822 615.827059064 l 1,44,-1
 1325.26757812 615.90243373 l 1,45,-1
 1325.26757812 417.294921875 l 2,0,1
2241.16031799 425.489229208 m 0,46,47
 2232.73442616 461.310290565 2232.73442616 461.310290565 2218.07320358 490.301812953 c 128,-1,48
 2203.411981 519.293335341 2203.411981 519.293335341 2182.75735368 541.084014298 c 128,-1,49
 2162.10272637 562.874693254 2162.10272637 562.874693254 2135.63076485 577.561321006 c 128,-1,50
 2109.15880332 592.247948758 2109.15880332 592.247948758 2076.94567329 599.629377599 c 128,-1,51
 2044.73254325 607.01080644 2044.73254325 607.01080644 2007.12007555 607.01367184 c 0,52,53
 1979.94043536 607.011826884 1979.94043536 607.011826884 1953.25763426 600.220710851 c 128,-1,54
 1926.57483317 593.429594819 1926.57483317 593.429594819 1900.57217756 579.909412585 c 128,-1,55
 1874.56952195 566.389230352 1874.56952195 566.389230352 1849.07874927 546.38891826 c 128,-1,56
 1823.5879766 526.388606168 1823.5879766 526.388606168 1798.61277467 499.741958746 c 128,-1,57
 1773.63757275 473.095311324 1773.63757275 473.095311324 1749.20127218 440.292769284 c 128,-1,58
 1724.76497161 407.490227245 1724.76497161 407.490227245 1700.67966705 368.124080746 c 128,-1,59
 1676.5943625 328.757934248 1676.5943625 328.757934248 1653.07497771 283.560128372 c 128,-1,60
 1629.55559292 238.362322496 1629.55559292 238.362322496 1606.23460399 186.698737055 c 2,61,-1
 1596.67781801 165.52734375 l 1,62,-1
 1619.90625 165.52734375 l 1,63,-1
 1623.00390625 165.52734375 l 1,64,-1
 1981.31652623 165.527423614 l 2,65,66
 2134.81535142 166.028324764 2134.81535142 166.028324764 2198.27584081 222.277775428 c 0,67,68
 2248 266.351906652 2248 266.351906652 2248 347 c 0,69,70
 2248 393.817744555 2248 393.817744555 2241.16031799 425.489229208 c 0,46,47
EndSplineSet
Substitution2: "'fina' Terminal Forms in Arabic lookup 9 subtable" uniFEBA
Substitution2: "'medi' Medial Forms in Arabic lookup 11 subtable" uniFEBC
Substitution2: "'init' Initial Forms in Arabic lookup 13 subtable" uniFEBB
EndChar

StartChar: uni0637
Encoding: 1591 1591 31
Width: 1369
VWidth: 2551
GlyphClass: 2
Flags: W
AnchorPoint: "Anchor-7" 609.72 -238 basechar 0
AnchorPoint: "Anchor-10" 471.723 1494.59 basechar 0
LayerCount: 2
Fore
SplineSet
814.940429688 15 m 2,0,-1
 118.770507812 15 l 1,1,-1
 118.770507812 165.181641629 l 1,2,-1
 282.977749194 165.000013733 l 1,3,-1
 284.421108569 164.998060608 l 1,4,-1
 295.250356887 164.983406686 l 1,5,-1
 298.672670462 175.257675695 l 1,6,-1
 299.09671481 176.530716754 l 2,7,8
 312.993403541 216.44446774 312.993403541 216.44446774 405.932536141 392.169717298 c 2,9,-1
 407.905273438 395.899682751 l 1,10,-1
 407.905273438 399.622070312 l 1,11,-1
 407.905273438 1319.64321002 l 1,12,-1
 544 1319.64355469 l 1,13,-1
 544 630.859375 l 1,14,-1
 544 626.07421875 l 1,15,-1
 544 590.183702132 l 1,16,-1
 569.53904579 615.400488669 l 1,17,-1
 572.938130742 618.756686501 l 2,18,19
 716.152408987 760 716.152408987 760 872.17578125 760 c 0,20,21
 1065.67114068 760 1065.67114068 760 1171.24681355 624.482203593 c 0,22,23
 1251.00773802 521.846816661 1251.00773802 521.846816661 1251.23841945 367.383853407 c 0,24,25
 1251.60567967 281.827759022 1251.60567967 281.827759022 1219.76887721 214.953191232 c 128,-1,26
 1187.93207474 148.078623443 1187.93207474 148.078623443 1123.36925904 98.3926048528 c 0,27,28
 1013.93606837 15 1013.93606837 15 814.940429688 15 c 2,0,-1
860.796875 607.013671875 m 0,29,30
 649.013047843 607.013671875 649.013047843 607.013671875 461.175582813 189.500762843 c 2,31,-1
 459.907028125 186.680450343 l 1,32,-1
 450.392524844 165.52734375 l 1,33,-1
 473.586914062 165.52734375 l 1,34,-1
 476.6796875 165.52734375 l 1,35,-1
 834.991895053 165.527422274 l 2,36,37
 990.724097327 166.031329452 990.724097327 166.031329452 1052.14446444 222.451310147 c 0,38,39
 1099.85153475 266.274427983 1099.85153475 266.274427983 1101.67455634 346.773154683 c 0,40,41
 1101.8450548 370.410672769 1101.8450548 370.410672769 1100.16884461 389.887442538 c 128,-1,42
 1098.49263442 409.364212308 1098.49263442 409.364212308 1094.80698713 425.609948737 c 0,43,44
 1073.93056024 515.098176303 1073.93056024 515.098176303 1014.55056651 561.055924089 c 128,-1,45
 955.170572771 607.013671875 955.170572771 607.013671875 860.796875 607.013671875 c 0,29,30
EndSplineSet
Substitution2: "'fina' Terminal Forms in Arabic lookup 9 subtable" uniFEC2
Substitution2: "'medi' Medial Forms in Arabic lookup 11 subtable" uniFEC4
Substitution2: "'init' Initial Forms in Arabic lookup 13 subtable" uniFEC3
EndChar

StartChar: uni0639
Encoding: 1593 1593 33
Width: 1249
VWidth: 2551
GlyphClass: 2
Flags: W
AnchorPoint: "Anchor-7" 471.334 -835.653 basechar 0
AnchorPoint: "Anchor-10" 711.349 1351.99 basechar 0
LayerCount: 2
Fore
SplineSet
117.107421875 -177.887695312 m 0,0,1
 121.833984375 164.86328125 121.833984375 164.86328125 502.956054688 297.647460938 c 2,2,-1
 527.375 306.155273438 l 1,3,-1
 530.630859375 307.2890625 l 1,4,-1
 528.029296875 309.552734375 l 1,5,-1
 508.522460938 326.526367188 l 2,6,7
 383.000976562 435.741210938 383.000976562 435.741210938 383.03125 572.813476562 c 0,8,9
 383.9609375 739.041015625 383.9609375 739.041015625 487.76953125 845.427734375 c 0,10,11
 593.139648438 952.994140625 593.139648438 952.994140625 762.997070312 952.866210938 c 0,12,13
 936.420898438 952.990234375 936.420898438 952.990234375 1051.25292969 816.766601562 c 1,14,-1
 992.935546875 709.96484375 l 1,15,16
 942.610351562 754.346679688 942.610351562 754.346679688 887.159179688 776.294921875 c 0,17,18
 830.500976562 798.720703125 830.500976562 798.720703125 767.233398438 798.451171875 c 0,19,20
 754.64453125 798.403320312 754.64453125 798.403320312 742.569335938 797.424804688 c 128,-1,21
 730.493164062 796.447265625 730.493164062 796.447265625 718.931640625 794.537109375 c 128,-1,22
 707.364257812 792.625976562 707.364257812 792.625976562 696.325195312 789.77734375 c 128,-1,23
 685.286132812 786.9296875 685.286132812 786.9296875 674.776367188 783.143554688 c 0,24,25
 653.75 775.567382812 653.75 775.567382812 635.001953125 764.302734375 c 128,-1,26
 616.25 753.036132812 616.25 753.036132812 599.776367188 737.991210938 c 0,27,28
 591.537109375 730.466796875 591.537109375 730.466796875 583.930664062 722.043945312 c 128,-1,29
 576.323242188 713.620117188 576.323242188 713.620117188 569.32421875 704.270507812 c 0,30,31
 549.190429688 676.96875 549.190429688 676.96875 538.92578125 644.59765625 c 128,-1,32
 528.661132812 612.2265625 528.661132812 612.2265625 528.263671875 574.831054688 c 0,33,34
 528.232421875 560.499023438 528.232421875 560.499023438 530.243164062 546.60546875 c 128,-1,35
 532.25390625 532.7109375 532.25390625 532.7109375 536.298828125 519.274414062 c 128,-1,36
 540.344726562 505.837890625 540.344726562 505.837890625 546.42578125 492.83984375 c 128,-1,37
 552.506835938 479.841796875 552.506835938 479.841796875 560.610351562 467.30078125 c 128,-1,38
 568.71484375 454.759765625 568.71484375 454.759765625 578.846679688 442.658203125 c 128,-1,39
 588.979492188 430.557617188 588.979492188 430.557617188 601.123046875 418.912109375 c 128,-1,40
 613.267578125 407.266601562 613.267578125 407.266601562 627.432617188 396.063476562 c 128,-1,41
 641.59765625 384.859375 641.59765625 384.859375 657.762695312 374.110351562 c 128,-1,42
 673.927734375 363.360351562 673.927734375 363.360351562 692.106445312 353.0546875 c 2,43,-1
 696.077148438 350.802734375 l 1,44,-1
 696.607421875 350.502929688 l 1,45,-1
 701.765625 350.890625 l 2,46,47
 810.950195312 359.098632812 810.950195312 359.098632812 941.159179688 359.096679688 c 2,48,-1
 1093.67871094 359.092773438 l 1,49,-1
 1093.67871094 207.69140625 l 1,50,-1
 924.984375 207.591796875 l 2,51,52
 256.921875 206.984375 256.921875 206.984375 258.6875 -179.841796875 c 0,53,54
 259.376953125 -357.547851562 259.376953125 -357.547851562 398.189453125 -446.095703125 c 0,55,56
 536.57421875 -534.37109375 536.57421875 -534.37109375 804.48828125 -534.172851562 c 2,57,-1
 1131.33007812 -533.931640625 l 1,58,-1
 1131.33007812 -680.431640625 l 1,59,-1
 792.473632812 -679.58203125 l 2,60,61
 599.881835938 -679.294921875 599.881835938 -679.294921875 464.86328125 -641.392578125 c 0,62,63
 330.0625 -603.552734375 330.0625 -603.552734375 252.8515625 -529.59375 c 0,64,65
 114.099609375 -395.870117188 114.099609375 -395.870117188 117.107421875 -177.887695312 c 0,0,1
EndSplineSet
Substitution2: "'fina' Terminal Forms in Arabic lookup 9 subtable" uniFECA
Substitution2: "'medi' Medial Forms in Arabic lookup 11 subtable" uniFECC
Substitution2: "'init' Initial Forms in Arabic lookup 13 subtable" uniFECB
EndChar

StartChar: afii57440
Encoding: 1600 1600 35
Width: 250
VWidth: 2551
GlyphClass: 2
Flags: W
AnchorPoint: "Anchor-10" 125.758 1501.26 basechar 0
AnchorPoint: "Anchor-7" 129.758 -172.351 basechar 0
LayerCount: 2
Fore
SplineSet
253.552734375 165 m 1,0,1
 262.9765625 153.268554688 262.9765625 153.268554688 262.9765625 97 c 2,2,-1
 262.9765625 85.9951171875 l 2,3,4
 262.9921875 27.4443359375 262.9921875 27.4443359375 253.37890625 15 c 1,5,-1
 -5.0234375 15 l 2,6,7
 -23.537109375 15 -23.537109375 15 -33.138671875 30.328125 c 0,8,9
 -37.9970703125 38.0849609375 -37.9970703125 38.0849609375 -40.5107421875 52.0625 c 128,-1,10
 -43.0234375 66.041015625 -43.0234375 66.041015625 -43.0234375 86 c 2,11,-1
 -43.0234375 96.9951171875 l 2,12,13
 -43.0185546875 116.159179688 -43.0185546875 116.159179688 -40.5302734375 129.556640625 c 128,-1,14
 -38.0419921875 142.954101562 -38.0419921875 142.954101562 -33.2451171875 150.3515625 c 0,15,16
 -23.74609375 165 -23.74609375 165 -5.0234375 165 c 2,17,-1
 253.552734375 165 l 1,0,1
EndSplineSet
EndChar

StartChar: uni0643
Encoding: 1603 1603 38
Width: 1889
VWidth: 2551
GlyphClass: 2
Flags: W
AnchorPoint: "Anchor-7" 849.692 -232.794 basechar 0
AnchorPoint: "Anchor-10" 927.382 1477.15 basechar 0
LayerCount: 2
Fore
SplineSet
701.389082896 724.776899826 m 2,0,1
 734.25803645 720.63454101 734.25803645 720.63454101 767.118597414 718.562875974 c 128,-1,2
 799.979158378 716.491210938 799.979158378 716.491210938 832.82421875 716.491210938 c 0,3,4
 840.325258785 716.491210938 840.325258785 716.491210938 847.715432555 716.770059697 c 128,-1,5
 855.105606325 717.048908455 855.105606325 717.048908455 862.39950844 717.60813976 c 128,-1,6
 869.693410555 718.167371065 869.693410555 718.167371065 876.874231527 719.006701031 c 128,-1,7
 884.061973853 719.846839999 884.061973853 719.846839999 891.138731763 720.968112874 c 128,-1,8
 898.215489672 722.089385749 898.215489672 722.089385749 905.190601935 723.494026112 c 128,-1,9
 912.165714197 724.898666474 912.165714197 724.898666474 919.026578427 726.584915044 c 0,10,11
 939.631418548 731.649380243 939.631418548 731.649380243 959.186982023 739.249371682 c 0,12,13
 971.842732092 744.168299566 971.842732092 744.168299566 982.849139519 749.597563782 c 128,-1,14
 993.855546947 755.026827998 993.855546947 755.026827998 1003.53782452 761.221927894 c 128,-1,15
 1013.2201021 767.417027791 1013.2201021 767.417027791 1021.06676331 774.148519734 c 128,-1,16
 1028.91342452 780.880011677 1028.91342452 780.880011677 1035.1068241 788.44634537 c 128,-1,17
 1041.30022369 796.012679063 1041.30022369 796.012679063 1045.48125704 804.138597161 c 128,-1,18
 1049.6622904 812.264515258 1049.6622904 812.264515258 1051.86093035 821.294281174 c 128,-1,19
 1054.05957031 830.32404709 1054.05957031 830.32404709 1054.05957031 839.939453125 c 0,20,21
 1054.05957031 856.926770728 1054.05957031 856.926770728 1046.42834349 871.368762384 c 128,-1,22
 1038.79711667 885.81075404 1038.79711667 885.81075404 1024.57387368 896.225347143 c 0,23,24
 998.296809201 915.466836696 998.296809201 915.466836696 948.832329691 923.293254938 c 0,25,26
 864.666884869 936.609376911 864.666884869 936.609376911 832.728474672 978.383418496 c 0,27,28
 783.407129643 1042.88947007 783.407129643 1042.88947007 805.192479131 1111.36161179 c 0,29,30
 826.692948543 1178.94248388 826.692948543 1178.94248388 898.667716172 1217.7436549 c 0,31,32
 909.152400882 1223.3958253 909.152400882 1223.3958253 920.754706891 1228.4527823 c 128,-1,33
 932.3570129 1233.50973931 932.3570129 1233.50973931 945.151787385 1237.99145861 c 128,-1,34
 957.946561871 1242.4731779 957.946561871 1242.4731779 971.846053321 1246.34237285 c 128,-1,35
 985.745544772 1250.21156779 985.745544772 1250.21156779 1000.85381111 1253.48305854 c 128,-1,36
 1015.96207745 1256.75454929 1015.96207745 1256.75454929 1032.16020903 1259.39654842 c 128,-1,37
 1048.35834062 1262.03854756 1048.35834062 1262.03854756 1065.78155351 1264.06037602 c 128,-1,38
 1083.20476639 1266.08220447 1083.20476639 1266.08220447 1101.70494019 1267.45723036 c 2,39,-1
 1112.71484375 1268.275084 l 1,40,-1
 1112.71484375 1201.83113581 l 1,41,-1
 1103.29660883 1201.064881 l 2,42,43
 991.783139246 1191.99435456 991.783139246 1191.99435456 934.371648038 1162.04418612 c 0,44,45
 871.592773438 1129.29340074 871.592773438 1129.29340074 871.592773438 1071.37695312 c 0,46,47
 871.592773438 1041.48608612 871.592773438 1041.48608612 888.782030973 1020.40599751 c 128,-1,48
 905.971288507 999.325908901 905.971288507 999.325908901 937.32617323 989.237334303 c 0,49,50
 952.19673609 984.453361375 952.19673609 984.453361375 972.552177385 980.20983716 c 128,-1,51
 992.907618679 975.966312944 992.907618679 975.966312944 1019.30684795 972.083441094 c 0,52,53
 1025.16113944 971.222515877 1025.16113944 971.222515877 1030.72673141 970.013032089 c 128,-1,54
 1036.29232339 968.803548302 1036.29232339 968.803548302 1041.57451842 967.248941665 c 0,55,56
 1052.05844316 964.163410206 1052.05844316 964.163410206 1061.49987294 959.700955492 c 128,-1,57
 1070.8835957 955.266188385 1070.8835957 955.266188385 1079.26425548 949.467075014 c 0,58,59
 1083.45437642 946.567528746 1083.45437642 946.567528746 1087.40243131 943.322589369 c 128,-1,60
 1091.3504862 940.077649991 1091.3504862 940.077649991 1095.0693718 936.474993228 c 0,61,62
 1123.609375 908.82912783 1123.609375 908.82912783 1123.609375 858.932617188 c 0,63,64
 1123.609375 806.740775633 1123.609375 806.740775633 1102.92253967 773.874153038 c 0,65,66
 996.18569604 604.296566277 996.18569604 604.296566277 698.524710971 650.820840283 c 2,67,-1
 689.857421875 652.176318347 l 1,68,-1
 689.857421875 726.230200706 l 1,69,-1
 701.389082896 724.776899826 l 2,0,1
537.549804688 165 m 2,70,-1
 1351.84545467 165.00000005 l 2,71,72
 1471.78111894 164.99020511 1471.78111894 164.99020511 1533.09856728 237.319922698 c 128,-1,73
 1594.41601562 309.649640287 1594.41601562 309.649640287 1594.41601562 448.396484375 c 2,74,-1
 1594.41601562 1318.17503778 l 1,75,-1
 1731.17382812 1318.18847656 l 1,76,-1
 1731.17382926 445.398432335 l 2,77,78
 1731.11702517 299.851670937 1731.11702517 299.851670937 1688.636835 204.364600729 c 128,-1,79
 1646.15664483 108.87753052 1646.15664483 108.87753052 1561.03945149 61.9387652601 c 128,-1,80
 1475.92225815 15 1475.92225815 15 1346.62988281 15 c 2,81,-1
 534.767578125 15 l 2,82,83
 323.894817771 15 323.894817771 15 220.561677325 120.503269777 c 128,-1,84
 117.228536879 226.006539554 117.228536879 226.006539554 117.227539062 441.629952226 c 2,85,-1
 117.226631914 637.660156249 l 1,86,-1
 261.984375 637.66015625 l 1,87,-1
 261.984375027 442.540122907 l 2,88,89
 261.989782032 351.688241729 261.989782032 351.688241729 293.161777353 289.776850741 c 128,-1,90
 324.333772674 227.865459752 324.333772674 227.865459752 385.815459138 196.432729876 c 128,-1,91
 447.297145602 165 447.297145602 165 537.549804688 165 c 2,70,-1
EndSplineSet
Substitution2: "'fina' Terminal Forms in Arabic lookup 9 subtable" uniFEDA
Substitution2: "'medi' Medial Forms in Arabic lookup 11 subtable" uniFEDC
Substitution2: "'init' Initial Forms in Arabic lookup 13 subtable" uniFEDB
EndChar

StartChar: uni0644
Encoding: 1604 1604 39
Width: 1337
VWidth: 2551
GlyphClass: 2
Flags: W
AnchorPoint: "Anchor-10" 604.754 1189.62 basechar 0
AnchorPoint: "Anchor-7" 691 -667.5 basechar 0
LayerCount: 2
Fore
SplineSet
262.877929688 102.44921875 m 2,0,1
 262.877929688 -86.8060451178 262.877929688 -86.8060451178 359.340570023 -183.663708683 c 128,-1,2
 455.803210357 -280.521372249 455.803210357 -280.521372249 644.355892571 -280.528320302 c 2,3,-1
 697.338129438 -280.530258392 l 2,4,5
 868.937191473 -280.773306542 868.937191473 -280.773306542 956.65036089 -187.787799424 c 128,-1,6
 1044.36353031 -94.802292307 1044.36353031 -94.802292307 1044.36523438 86.4158745736 c 2,7,-1
 1044.37681207 1317.63671876 l 1,8,-1
 1179.28437239 1317.63671875 l 1,9,-1
 1178.25488455 81.9935556118 l 2,10,11
 1178.19230718 -47.8801461626 1178.19230718 -47.8801461626 1148.03284754 -144.310145229 c 128,-1,12
 1117.8733879 -240.740144294 1117.8733879 -240.740144294 1057.02326861 -304.683424772 c 128,-1,13
 996.173149321 -368.626705249 996.173149321 -368.626705249 904.780889949 -400.228391687 c 128,-1,14
 813.388630577 -431.830078125 813.388630577 -431.830078125 690.430664062 -431.830078125 c 2,15,-1
 644.180837163 -431.830078864 l 2,16,17
 204.512913316 -431.968126154 204.512913316 -431.968126154 132.641312366 -62.9831040592 c 0,18,19
 118.23990256 12.0410845896 118.23990256 12.0410845896 118.121092818 101.282631798 c 2,20,-1
 118.006264538 427.002848718 l 1,21,-1
 262.877929688 427.03035487 l 1,22,-1
 262.877929688 102.44921875 l 2,0,1
EndSplineSet
Substitution2: "'fina' Terminal Forms in Arabic lookup 9 subtable" uniFEDE
Substitution2: "'medi' Medial Forms in Arabic lookup 11 subtable" uniFEE0
Substitution2: "'init' Initial Forms in Arabic lookup 13 subtable" uniFEDF
EndChar

StartChar: uni0645
Encoding: 1605 1605 40
Width: 1310
VWidth: 2551
GlyphClass: 2
Flags: W
AnchorPoint: "Anchor-10" 675.565 1148.03 basechar 0
AnchorPoint: "Anchor-7" 722.389 -325.648 basechar 0
LayerCount: 2
Fore
SplineSet
842.860144873 584.490234375 m 2,0,-1
 685.830078125 584.490234375 l 1,1,-1
 683.830078125 584.490234375 l 1,2,-1
 668.830078125 584.490234375 l 1,3,-1
 668.830078125 569.490234375 l 1,4,-1
 668.830078125 567.490234375 l 1,5,-1
 668.830082346 368.103005194 l 2,6,7
 668.889267557 289.207773059 668.889267557 289.207773059 691.093105104 234.910735264 c 128,-1,8
 713.296942651 180.613697469 713.296942651 180.613697469 758.062898146 152.271851796 c 128,-1,9
 802.82885364 123.930006123 802.82885364 123.930006123 868.751161505 123.8906283 c 0,10,11
 958.935471308 123.950453986 958.935471308 123.950453986 1004.5129101 186.748402063 c 128,-1,12
 1050.09034889 249.546350139 1050.09034889 249.546350139 1050.08984375 368 c 2,13,-1
 1050.08984131 409.831800888 l 2,14,15
 1050.04085747 495.680986994 1050.04085747 495.680986994 996.710971 539.95610894 c 128,-1,16
 943.381084533 584.231230887 943.381084533 584.231230887 842.860144873 584.490234375 c 2,0,-1
858.190802645 725.5390625 m 2,17,18
 1027.97101214 725.5390625 1027.97101214 725.5390625 1110.37027169 647.859389364 c 128,-1,19
 1192.76953125 570.179716229 1192.76953125 570.179716229 1192.76953125 411 c 2,20,-1
 1192.76953387 366.996010738 l 2,21,22
 1192.88151611 177.667875999 1192.88151611 177.667875999 1112.64206874 85.9703698164 c 128,-1,23
 1032.40262136 -5.72713636636 1032.40262136 -5.72713636636 868.762976131 -5.47559902144 c 0,24,25
 695.511473425 -5.24676745061 695.511473425 -5.24676745061 610.700323017 86.4160299305 c 128,-1,26
 525.889172609 178.078827312 525.889172609 178.078827312 525.889648438 366.30859375 c 2,27,-1
 525.889648438 551.943359375 l 1,28,-1
 525.889648438 554.149414062 l 1,29,-1
 525.889648438 570.696369735 l 1,30,-1
 509.422079123 569.077449443 l 1,31,-1
 507.229916857 568.861938493 l 2,32,33
 445.068536446 562.76412168 445.068536446 562.76412168 397.620937042 533.105739676 c 128,-1,34
 350.173337637 503.447357671 350.173337637 503.447357671 319.013863144 451.097931789 c 0,35,36
 288.200477966 399.330463666 288.200477966 399.330463666 273.105610077 326.416194372 c 128,-1,37
 258.010742188 253.501925078 258.010742188 253.501925078 258.010742188 159.032226562 c 2,38,-1
 258.010742188 -481.416992188 l 1,39,-1
 117.94921875 -481.416992188 l 1,40,-1
 117.949213791 151.575693524 l 1,41,-1
 117.954081633 157.617224819 l 2,42,43
 117.48620633 444.640691079 117.48620633 444.640691079 233.209265883 585.077097189 c 128,-1,44
 348.932325435 725.513503299 348.932325435 725.513503299 583.256605291 725.525390644 c 2,45,-1
 858.190802645 725.5390625 l 2,17,18
EndSplineSet
Substitution2: "'init' Initial Forms in Arabic lookup 13 subtable" uniFEE3
Substitution2: "'medi' Medial Forms in Arabic lookup 11 subtable" uniFEE4
Substitution2: "'fina' Terminal Forms in Arabic lookup 9 subtable" uniFEE2
EndChar

StartChar: uni0647
Encoding: 1607 1607 42
Width: 924
VWidth: 2328
GlyphClass: 2
Flags: W
AnchorPoint: "Anchor-10" 421.833 1139.93 basechar 0
AnchorPoint: "Anchor-7" 439.418 -198.202 basechar 0
LayerCount: 2
Fore
SplineSet
446.736434251 635.516093366 m 2,0,1
 383.490084841 582.17343588 383.490084841 582.17343588 341.137894512 531.024615988 c 128,-1,2
 298.785704183 479.875796096 298.785704183 479.875796096 276.806463528 429.134667732 c 128,-1,3
 254.827222873 378.393539367 254.827222873 378.393539367 254.731468622 329.308517145 c 0,4,5
 254.877705436 246.357146538 254.877705436 246.357146538 310.822256874 204.163114935 c 128,-1,6
 366.766808312 161.969083332 366.766808312 161.969083332 471.721959094 161.935547763 c 0,7,8
 536.782902257 161.957938352 536.782902257 161.957938352 581.822467069 180.97572891 c 128,-1,9
 626.862031881 199.993519469 626.862031881 199.993519469 650.480977701 238.249593774 c 128,-1,10
 674.099923522 276.505668078 674.099923522 276.505668078 674.15623924 332.569724696 c 0,11,12
 673.991433881 470.160568615 673.991433881 470.160568615 468.359468562 635.760759696 c 2,13,-1
 467.075288875 636.794939384 l 1,14,-1
 457.446589366 644.549154425 l 1,15,-1
 447.996199876 636.578593366 l 1,16,-1
 446.736434251 635.516093366 l 2,0,1
117.951172146 312.148874312 m 0,17,18
 117.998513558 518.518613389 117.998513558 518.518613389 349.598495392 728.974945128 c 2,19,-1
 351.213729767 730.442718566 l 1,20,-1
 363.325826923 741.449055945 l 1,21,-1
 351.308259931 752.558531342 l 1,22,-1
 349.706483839 754.039271288 l 1,23,-1
 322.964484921 778.763982086 l 1,24,-1
 407.895206253 877.624812184 l 1,25,26
 812.978558438 583.5463255 812.978558438 583.5463255 812.499040896 327.09417503 c 0,27,28
 812.258286181 169.298068985 812.258286181 169.298068985 727.994984244 92.4000780148 c 128,-1,29
 643.731682308 15.5020870446 643.731682308 15.5020870446 470.187281045 15.9774808956 c 0,30,31
 291.130358859 16.4761352564 291.130358859 16.4761352564 204.552487785 89.8542058456 c 128,-1,32
 117.974616711 163.232276435 117.974616711 163.232276435 117.951172146 312.148874312 c 0,17,18
EndSplineSet
Substitution2: "'fina' Terminal Forms in Arabic lookup 9 subtable" uniFEEA
Substitution2: "'medi' Medial Forms in Arabic lookup 11 subtable" uniFEEC
Substitution2: "'init' Initial Forms in Arabic lookup 13 subtable" uniFEEB
EndChar

StartChar: uni0648
Encoding: 1608 1608 43
Width: 877
VWidth: 2551
GlyphClass: 2
Flags: W
AnchorPoint: "Anchor-10" 438.019 1059.88 basechar 0
AnchorPoint: "Anchor-7" 367.433 -669.366 basechar 0
LayerCount: 2
Fore
SplineSet
627.950109556 15.1064453125 m 1,0,-1
 610.900390625 15.1064453125 l 1,1,-1
 451.033553315 15.1064446277 l 2,2,3
 282 15 282 15 200 95.5 c 128,-1,4
 118 176 118 176 118.5 348 c 0,5,6
 119 562 119 562 238.728362214 647.872809047 c 24,7,8
 321 707 321 707 444.5234375 708.58203125 c 4,9,10
 583 710 583 710 675.5 625.5 c 0,11,12
 767.660154031 541.310452323 767.660154031 541.310452323 767.66015625 354.965331154 c 2,13,-1
 767.660160501 -2.01324648374 l 2,14,15
 767.999838603 -445.789141718 767.999838603 -445.789141718 214.764648438 -445.412109375 c 2,16,-1
 156.013671875 -445.372070312 l 1,17,-1
 155.930664062 -296.211914062 l 1,18,-1
 208.852539062 -296.265625 l 2,19,20
 627.03884965 -297.00006823 627.03884965 -297.00006823 627.90032669 -1.94418605877 c 2,21,-1
 627.950109556 15.1064453125 l 1,0,-1
254.922073429 336.065819357 m 0,22,23
 254.935781086 256.325384529 254.935781086 256.325384529 305.066515584 211.183008042 c 128,-1,24
 355.197250081 166.040631554 355.197250081 166.040631554 449.992591929 166.000001379 c 2,25,-1
 611.701685106 165.930665838 l 1,26,-1
 628.759701247 165.922365101 l 1,27,-1
 628.258776839 349.022079368 l 2,28,29
 627.977860315 569.064622234 627.977860315 569.064622234 445.576116589 568.3739887 c 0,30,31
 254.882209399 567.963590962 254.882209399 567.963590962 254.922073429 336.065819357 c 0,22,23
EndSplineSet
Substitution2: "'fina' Terminal Forms in Arabic lookup 9 subtable" uniFEEE
EndChar

StartChar: uni0649
Encoding: 1609 1609 44
Width: 1446
VWidth: 2551
GlyphClass: 2
Flags: W
AnchorPoint: "Anchor-7" 641 -667.5 basechar 0
AnchorPoint: "Anchor-10" 604 1219.43 basechar 0
LayerCount: 2
Fore
SplineSet
1060.77441406 214.370117188 m 2,0,1
 1197.74907444 214.370117188 1197.74907444 214.370117188 1262.93850206 163.560583043 c 128,-1,2
 1328.12792969 112.751048898 1328.12792969 112.751048898 1328.12792969 9.36328125 c 2,3,-1
 1328.12793034 -19.9721267201 l 2,4,5
 1328.06645867 -227.844280221 1328.06645867 -227.844280221 1191.59280209 -331.062276829 c 128,-1,6
 1055.11914551 -434.280273438 1055.11914551 -434.280273438 775.421875 -434.280273438 c 2,7,-1
 690.9495039 -434.280275128 l 2,8,9
 206.822598039 -434.050441096 206.822598039 -434.050441096 131.563784652 -53.8676382066 c 0,10,11
 117.412024254 18.7030667907 117.412024254 18.7030667907 117.267574969 104.043910479 c 2,12,-1
 117.010710512 500 l 1,13,-1
 262.022460938 500 l 1,14,-1
 262.022460965 105.206957491 l 2,15,16
 262.010878439 -87.2357060351 262.010878439 -87.2357060351 371.143208727 -185.108087393 c 128,-1,17
 480.275539015 -282.98046875 480.275539015 -282.98046875 693.11328125 -282.98046875 c 2,18,-1
 784.019750197 -282.980468731 l 2,19,20
 881.671837267 -282.985400916 881.671837267 -282.985400916 956.116206525 -267.990884635 c 128,-1,21
 1030.56057578 -252.996368354 1030.56057578 -252.996368354 1081.87902892 -222.815171629 c 128,-1,22
 1133.19748206 -192.633974905 1133.19748206 -192.633974905 1159.45811603 -146.118654188 c 128,-1,23
 1185.71875 -99.6033334717 1185.71875 -99.6033334717 1185.71875 -37.583984375 c 2,24,-1
 1185.71865482 -25.9089041729 l 2,25,26
 1186.00287083 53.8736218768 1186.00287083 53.8736218768 1094.94309453 67.353623392 c 0,27,28
 1078.22373537 69.6731880483 1078.22373537 69.6731880483 1060.29012987 69.7402343747 c 2,29,-1
 899.001907932 69.7411941886 l 2,30,31
 818.492679841 69.8615059433 818.492679841 69.8615059433 780.629152421 106.318505625 c 128,-1,32
 742.765625 142.775505306 742.765625 142.775505306 742.765625 219.583007812 c 2,33,-1
 742.765623143 285.369489573 l 2,34,35
 742.804022148 362.542530434 742.804022148 362.542530434 754.304335297 426.601623037 c 128,-1,36
 765.804648445 490.66071564 765.804648445 490.66071564 788.253463458 540.81375649 c 128,-1,37
 810.702278471 590.96679734 810.702278471 590.96679734 844.144588303 628.344922531 c 0,38,39
 894.280190173 684.380502344 894.280190173 684.380502344 970.072994113 712.615211593 c 128,-1,40
 1045.86579805 740.849920841 1045.86579805 740.849920841 1148.54171196 740.901369079 c 2,41,-1
 1328.08019288 740.991524636 l 1,42,-1
 1328.81111206 585.604492188 l 1,43,-1
 1107.3161914 585.60446207 l 2,44,45
 1000.63793963 585.818235667 1000.63793963 585.818235667 945.481083308 510.757316844 c 128,-1,46
 890.324226984 435.69639802 890.324226984 435.69639802 887.525318048 292.33474662 c 2,47,-1
 886.341618885 231.696483295 l 1,48,-1
 886.302556385 229.657420795 l 1,49,-1
 886.009696163 214.370117187 l 1,50,-1
 901.299804688 214.370117188 l 1,51,-1
 903.338867188 214.370117188 l 1,52,-1
 1060.77441406 214.370117188 l 2,0,1
EndSplineSet
Substitution2: "'fina' Terminal Forms in Arabic lookup 9 subtable" uniFEF0
Substitution2: "'medi' Medial Forms in Arabic lookup 11 subtable" uniFBE9
Substitution2: "'init' Initial Forms in Arabic lookup 13 subtable" uniFBE8
EndChar

StartChar: uni064B
Encoding: 1611 1611 46
Width: 0
VWidth: 2184
GlyphClass: 4
Flags: W
AnchorPoint: "Anchor-10" 544.872 1088.61 mark 0
AnchorPoint: "Anchor-9" 544.872 1088.61 mark 0
AnchorPoint: "Anchor-1" 544.872 1516.61 basemark 0
AnchorPoint: "Anchor-1" 544.872 1088.61 mark 0
LayerCount: 2
Fore
SplineSet
337.400390625 1052.78515625 m 1,0,-1
 337.400390625 1150.12011719 l 1,1,-1
 728.599609375 1310.08496094 l 1,2,-1
 728.599609375 1212.75 l 1,3,-1
 337.400390625 1052.78515625 l 1,0,-1
337.400390625 1259.98535156 m 1,4,-1
 337.400390625 1357.3203125 l 1,5,-1
 728.599609375 1517.28515625 l 1,6,-1
 728.599609375 1419.95019531 l 1,7,-1
 337.400390625 1259.98535156 l 1,4,-1
EndSplineSet
EndChar

StartChar: uni064C
Encoding: 1612 1612 47
Width: 0
VWidth: 2184
GlyphClass: 4
Flags: W
AnchorPoint: "Anchor-10" 552.791 1209.53 mark 0
AnchorPoint: "Anchor-9" 552.791 1209.53 mark 0
AnchorPoint: "Anchor-1" 546.391 1733.93 basemark 0
AnchorPoint: "Anchor-1" 552.791 1209.53 mark 0
LayerCount: 2
Fore
SplineSet
646.553710938 1470.50488281 m 1,0,-1
 655.373046875 1491.08105469 l 2,1,2
 659.725585938 1501.23535156 659.725585938 1501.23535156 661.90234375 1512.09375 c 128,-1,3
 664.079101562 1522.95117188 664.079101562 1522.95117188 664.079101562 1534.48535156 c 0,4,5
 664.079101562 1569.4453125 664.079101562 1569.4453125 645.009765625 1585.140625 c 0,6,7
 627.0234375 1599.95703125 627.0234375 1599.95703125 605.456054688 1599.95703125 c 0,8,9
 582.02734375 1599.95703125 582.02734375 1599.95703125 568.768554688 1589.67382812 c 0,10,11
 558.674804688 1582.07714844 558.674804688 1582.07714844 553.608398438 1570.78613281 c 128,-1,12
 548.54296875 1559.49511719 548.54296875 1559.49511719 548.54296875 1544.75683594 c 0,13,14
 548.54296875 1504.69042969 548.54296875 1504.69042969 594.858398438 1486.16308594 c 0,15,16
 603.663085938 1482.64257812 603.663085938 1482.64257812 613.74609375 1479.13476562 c 128,-1,17
 623.828125 1475.62792969 623.828125 1475.62792969 635.19140625 1472.13378906 c 2,18,-1
 644.126953125 1469.38183594 l 1,19,-1
 645.845703125 1468.85253906 l 1,20,-1
 646.553710938 1470.50488281 l 1,0,-1
564.450195312 1322.72167969 m 0,21,22
 581.033203125 1338.85644531 581.033203125 1338.85644531 594.060546875 1356.38769531 c 128,-1,23
 607.087890625 1373.91992188 607.087890625 1373.91992188 616.546875 1392.83886719 c 2,24,-1
 622.5625 1404.87011719 l 1,25,-1
 623.719726562 1407.18457031 l 1,26,-1
 621.188476562 1407.72070312 l 1,27,-1
 608.02734375 1410.51269531 l 2,28,29
 599.208984375 1412.38183594 599.208984375 1412.38183594 591.3203125 1414.77050781 c 128,-1,30
 583.430664062 1417.15820312 583.430664062 1417.15820312 576.477539062 1420.05859375 c 128,-1,31
 569.5234375 1422.95898438 569.5234375 1422.95898438 563.466796875 1426.38378906 c 0,32,33
 546.169921875 1435.51269531 546.169921875 1435.51269531 532.370117188 1445.72851562 c 128,-1,34
 518.571289062 1455.94335938 518.571289062 1455.94335938 508.272460938 1467.22265625 c 128,-1,35
 497.974609375 1478.50195312 497.974609375 1478.50195312 491.126953125 1490.88867188 c 128,-1,36
 484.279296875 1503.27636719 484.279296875 1503.27636719 480.875 1516.7265625 c 128,-1,37
 477.470703125 1530.17773438 477.470703125 1530.17773438 477.470703125 1544.75683594 c 0,38,39
 477.470703125 1613.04785156 477.470703125 1613.04785156 531.57421875 1653.82128906 c 0,40,41
 552.237304688 1669.31738281 552.237304688 1669.31738281 602.03125 1669.31738281 c 0,42,43
 659.475585938 1669.31738281 659.475585938 1669.31738281 690.071289062 1639.48242188 c 0,44,45
 733.438476562 1596.91015625 733.438476562 1596.91015625 733.438476562 1534.48535156 c 0,46,47
 733.438476562 1503.00976562 733.438476562 1503.00976562 723.743164062 1472.30371094 c 2,48,-1
 719.696289062 1459.49511719 l 1,49,-1
 718.91796875 1457.03027344 l 1,50,-1
 721.499023438 1456.89550781 l 1,51,-1
 734.916992188 1456.19238281 l 2,52,53
 750.9921875 1455.34277344 750.9921875 1455.34277344 763.470703125 1455.31738281 c 0,54,55
 773.236328125 1454.79394531 773.236328125 1454.79394531 783.942382812 1454.578125 c 1,56,-1
 783.942382812 1385.14648438 l 1,57,58
 767.985351562 1385.27734375 767.985351562 1385.27734375 757.6484375 1385.65917969 c 128,-1,59
 747.311523438 1386.04003906 747.311523438 1386.04003906 740.177734375 1386.75585938 c 2,60,-1
 688.08984375 1391.76464844 l 1,61,-1
 686.6328125 1391.90429688 l 1,62,-1
 686.05859375 1390.55859375 l 1,63,-1
 683.071289062 1383.55761719 l 2,64,65
 661.70703125 1333.43066406 661.70703125 1333.43066406 599.146484375 1268.36914062 c 0,66,67
 564.557617188 1233.375 564.557617188 1233.375 528.482421875 1215.93359375 c 128,-1,68
 492.407226562 1198.49316406 492.407226562 1198.49316406 454.796875 1198.49316406 c 0,69,70
 349.275390625 1198.3828125 349.275390625 1198.3828125 320.9921875 1321.95507812 c 0,71,72
 318.73828125 1331.10546875 318.73828125 1331.10546875 316.889648438 1341.33105469 c 128,-1,73
 315.041992188 1351.55664062 315.041992188 1351.55664062 313.622070312 1362.69726562 c 128,-1,74
 312.203125 1373.83789062 312.203125 1373.83789062 311.200195312 1385.89648438 c 128,-1,75
 310.196289062 1397.95507812 310.196289062 1397.95507812 309.62109375 1410.83007812 c 128,-1,76
 309.044921875 1423.70507812 309.044921875 1423.70507812 308.895507812 1437.34082031 c 1,77,-1
 361.140625 1437.34082031 l 1,78,79
 361.404296875 1415.41113281 361.404296875 1415.41113281 362.712890625 1397.56445312 c 128,-1,80
 364.021484375 1379.71777344 364.021484375 1379.71777344 366.427734375 1365.32128906 c 128,-1,81
 368.833007812 1350.92480469 368.833007812 1350.92480469 372.41796875 1339.45605469 c 0,82,83
 395.017578125 1267.1640625 395.017578125 1267.1640625 454.810546875 1267.85253906 c 0,84,85
 481.344726562 1267.85253906 481.344726562 1267.85253906 508.759765625 1281.60546875 c 128,-1,86
 536.173828125 1295.35742188 536.173828125 1295.35742188 564.450195312 1322.72167969 c 0,21,22
EndSplineSet
EndChar

StartChar: uni064D
Encoding: 1613 1613 48
Width: 0
VWidth: 2184
GlyphClass: 4
Flags: W
AnchorPoint: "Anchor-7" 533.072 17.8066 mark 0
AnchorPoint: "Anchor-6" 533.072 17.8066 mark 0
AnchorPoint: "Anchor-0" 545.872 -394.193 basemark 0
AnchorPoint: "Anchor-0" 533.072 17.8066 mark 0
LayerCount: 2
Fore
SplineSet
342.400390625 -437.21484375 m 1,0,-1
 342.400390625 -339.879882812 l 1,1,-1
 733.599609375 -179.915039062 l 1,2,-1
 733.599609375 -277.25 l 1,3,-1
 342.400390625 -437.21484375 l 1,0,-1
342.400390625 -230.014648438 m 1,4,-1
 342.400390625 -132.6796875 l 1,5,-1
 733.599609375 27.28515625 l 1,6,-1
 733.599609375 -70.0498046875 l 1,7,-1
 342.400390625 -230.014648438 l 1,4,-1
EndSplineSet
EndChar

StartChar: uni064E
Encoding: 1614 1614 49
Width: 0
VWidth: 2184
GlyphClass: 4
Flags: W
AnchorPoint: "Anchor-10" 515.072 1304.71 mark 0
AnchorPoint: "Anchor-9" 515.072 1304.71 mark 0
AnchorPoint: "Anchor-1" 515.072 1561.51 basemark 0
AnchorPoint: "Anchor-1" 515.072 1304.71 mark 0
LayerCount: 2
Fore
SplineSet
308.400390625 1284.88574219 m 1,0,-1
 308.400390625 1382.22070312 l 1,1,-1
 699.599609375 1542.18457031 l 1,2,-1
 699.599609375 1444.84960938 l 1,3,-1
 308.400390625 1284.88574219 l 1,0,-1
EndSplineSet
EndChar

StartChar: uni064F
Encoding: 1615 1615 50
Width: 0
VWidth: 2184
GlyphClass: 4
Flags: W
AnchorPoint: "Anchor-10" 535.04 1252.31 mark 0
AnchorPoint: "Anchor-9" 535.04 1252.31 mark 0
AnchorPoint: "Anchor-1" 547.84 1747.91 basemark 0
AnchorPoint: "Anchor-1" 535.04 1252.31 mark 0
LayerCount: 2
Fore
SplineSet
564.540039062 1440.54785156 m 0,0,1
 478.76953125 1477.22851562 478.76953125 1477.22851562 478.919921875 1558.73339844 c 0,2,3
 478.919921875 1627.02441406 478.919921875 1627.02441406 533.0234375 1667.79785156 c 0,4,5
 553.686523438 1683.29296875 553.686523438 1683.29296875 603.48046875 1683.29296875 c 0,6,7
 660.923828125 1683.29296875 660.923828125 1683.29296875 691.520507812 1653.45800781 c 0,8,9
 734.887695312 1610.88574219 734.887695312 1610.88574219 734.887695312 1548.4609375 c 0,10,11
 734.887695312 1522.95703125 734.887695312 1522.95703125 723.46484375 1486.23144531 c 2,12,-1
 719.515625 1473.54394531 l 1,13,-1
 718.755859375 1471.10351562 l 1,14,-1
 721.306640625 1470.953125 l 1,15,-1
 734.576171875 1470.16894531 l 2,16,17
 749.331054688 1469.30273438 749.331054688 1469.30273438 764.919921875 1468.87011719 c 0,18,19
 774.370117188 1468.60742188 774.370117188 1468.60742188 785.391601562 1468.49511719 c 1,20,-1
 785.391601562 1399.15625 l 1,21,22
 773.771484375 1399.30273438 773.771484375 1399.30273438 762.799804688 1399.70214844 c 128,-1,23
 751.827148438 1400.1015625 751.827148438 1400.1015625 741.265625 1400.75976562 c 0,24,25
 715.821289062 1402.46191406 715.821289062 1402.46191406 692.112304688 1405.00097656 c 2,26,-1
 686.029296875 1405.64941406 l 1,27,-1
 684.860351562 1405.77441406 l 1,28,-1
 684.182617188 1404.81347656 l 1,29,-1
 680.657226562 1399.81347656 l 2,30,31
 668.881835938 1383.10742188 668.881835938 1383.10742188 654.719726562 1368.13085938 c 128,-1,32
 640.557617188 1353.15332031 640.557617188 1353.15332031 623.983398438 1339.88476562 c 128,-1,33
 607.41015625 1326.61621094 607.41015625 1326.61621094 588.423828125 1315.06152344 c 0,34,35
 429.345703125 1217.23925781 429.345703125 1217.23925781 310.288085938 1211.87792969 c 1,36,-1
 310.288085938 1281.17871094 l 1,37,38
 438.364257812 1285.74511719 438.364257812 1285.74511719 554.625 1376.91015625 c 0,39,40
 575.030273438 1392.88085938 575.030273438 1392.88085938 591.92578125 1410.66015625 c 2,41,-1
 604.587890625 1423.99609375 l 1,42,-1
 607.022460938 1426.55957031 l 1,43,-1
 603.571289062 1427.32519531 l 2,44,45
 586.844726562 1431.03808594 586.844726562 1431.03808594 564.540039062 1440.54785156 c 0,0,1
648.002929688 1484.48046875 m 1,46,-1
 656.822265625 1505.05664062 l 2,47,48
 665.528320312 1525.37109375 665.528320312 1525.37109375 665.528320312 1548.4609375 c 0,49,50
 665.528320312 1565.81738281 665.528320312 1565.81738281 660.783203125 1578.52539062 c 128,-1,51
 656.037109375 1591.23242188 656.037109375 1591.23242188 646.458984375 1599.1171875 c 0,52,53
 628.47265625 1613.93261719 628.47265625 1613.93261719 606.904296875 1613.93261719 c 0,54,55
 583.4765625 1613.93261719 583.4765625 1613.93261719 570.217773438 1603.64941406 c 0,56,57
 549.9921875 1588.42675781 549.9921875 1588.42675781 549.9921875 1558.73339844 c 0,58,59
 549.9921875 1518.66699219 549.9921875 1518.66699219 596.307617188 1500.13964844 c 0,60,61
 613.907226562 1493.1015625 613.907226562 1493.1015625 636.640625 1486.11035156 c 2,62,-1
 645.576171875 1483.35742188 l 1,63,-1
 647.294921875 1482.828125 l 1,64,-1
 648.002929688 1484.48046875 l 1,46,-1
EndSplineSet
EndChar

StartChar: uni0650
Encoding: 1616 1616 51
Width: 0
VWidth: 2184
GlyphClass: 4
Flags: W
AnchorPoint: "Anchor-7" 517.472 -47.6934 mark 0
AnchorPoint: "Anchor-6" 517.472 -47.6934 mark 0
AnchorPoint: "Anchor-0" 555.072 -286.893 basemark 0
AnchorPoint: "Anchor-0" 517.472 -47.6934 mark 0
LayerCount: 2
Fore
SplineSet
352.400390625 -309.114257812 m 1,0,-1
 352.400390625 -211.779296875 l 1,1,-1
 743.599609375 -51.8154296875 l 1,2,-1
 743.599609375 -149.150390625 l 1,3,-1
 352.400390625 -309.114257812 l 1,0,-1
EndSplineSet
EndChar

StartChar: uni0651
Encoding: 1617 1617 52
Width: 0
VWidth: 2184
GlyphClass: 4
Flags: W
AnchorPoint: "Anchor-10" 548.269 1353.65 mark 0
AnchorPoint: "Anchor-9" 548.269 1353.65 mark 0
AnchorPoint: "Anchor-1" 538.668 1755.25 basemark 0
AnchorPoint: "Anchor-1" 548.269 1353.65 mark 0
LayerCount: 2
Fore
SplineSet
437.028320312 1333.9609375 m 0,0,1
 303.20703125 1333.64453125 303.20703125 1333.64453125 302.396484375 1485.29492188 c 2,2,-1
 301.763671875 1603.69726562 l 1,3,-1
 368.561523438 1603.69726562 l 1,4,-1
 369.708007812 1484.37988281 l 2,5,6
 370.376953125 1417.62792969 370.376953125 1417.62792969 437.08984375 1416.92089844 c 0,7,8
 511.71484375 1416.85058594 511.71484375 1416.85058594 513.009765625 1515.30664062 c 2,9,-1
 514.7421875 1647.11328125 l 1,10,-1
 580.814453125 1647.11328125 l 1,11,-1
 582.66796875 1522.51171875 l 2,12,13
 583.958007812 1456.05078125 583.958007812 1456.05078125 662.670898438 1456.12109375 c 0,14,15
 724.802734375 1456.05175781 724.802734375 1456.05175781 726.028320312 1555.72167969 c 2,16,-1
 727.637695312 1686.52832031 l 1,17,-1
 798.186523438 1686.52832031 l 1,18,-1
 796.540039062 1557.12109375 l 2,19,20
 794.372070312 1375.24707031 794.372070312 1375.24707031 663.598632812 1375.35546875 c 0,21,22
 626.217773438 1375.30566406 626.217773438 1375.30566406 599.71484375 1386.50976562 c 128,-1,23
 573.211914062 1397.71289062 573.211914062 1397.71289062 557.348632812 1420.1171875 c 2,24,-1
 554.834960938 1423.66894531 l 1,25,-1
 553.776367188 1419.44824219 l 2,26,27
 532.4609375 1334.4296875 532.4609375 1334.4296875 437.028320312 1333.9609375 c 0,0,1
EndSplineSet
EndChar

StartChar: uni0652
Encoding: 1618 1618 53
Width: 0
VWidth: 2184
GlyphClass: 4
Flags: W
AnchorPoint: "Anchor-10" 566.159 1177.48 mark 0
AnchorPoint: "Anchor-9" 566.159 1177.48 mark 0
AnchorPoint: "Anchor-1" 554.959 1636.28 basemark 0
AnchorPoint: "Anchor-1" 566.159 1177.48 mark 0
LayerCount: 2
Fore
SplineSet
665.276367188 1382.35546875 m 0,0,1
 665.276367188 1423.5234375 665.276367188 1423.5234375 636.504882812 1452.29296875 c 128,-1,2
 607.73828125 1481.0625 607.73828125 1481.0625 565.948242188 1481.0625 c 0,3,4
 559.869140625 1481.0625 559.869140625 1481.0625 554.086914062 1480.48632812 c 128,-1,5
 548.299804688 1479.90917969 548.299804688 1479.90917969 542.811523438 1478.75292969 c 128,-1,6
 537.3203125 1477.59472656 537.3203125 1477.59472656 532.116210938 1475.85351562 c 128,-1,7
 526.913085938 1474.11132812 526.913085938 1474.11132812 522 1471.78808594 c 0,8,9
 519.543945312 1470.62695312 519.543945312 1470.62695312 517.157226562 1469.31835938 c 128,-1,10
 514.771484375 1468.00976562 514.771484375 1468.00976562 512.456054688 1466.5546875 c 0,11,12
 507.828125 1463.64550781 507.828125 1463.64550781 503.485351562 1460.16015625 c 128,-1,13
 499.1484375 1456.67773438 499.1484375 1456.67773438 495.077148438 1452.60742188 c 0,14,15
 480.799804688 1438.328125 480.799804688 1438.328125 473.708007812 1420.83007812 c 0,16,17
 470.162109375 1412.08300781 470.162109375 1412.08300781 468.391601562 1402.45898438 c 128,-1,18
 466.62109375 1392.83496094 466.62109375 1392.83496094 466.62109375 1382.35546875 c 0,19,20
 466.62109375 1339.94335938 466.62109375 1339.94335938 495.077148438 1311.48632812 c 128,-1,21
 523.536132812 1283.02929688 523.536132812 1283.02929688 565.948242188 1283.02929688 c 0,22,23
 586.935546875 1283.02929688 586.935546875 1283.02929688 604.497070312 1290.1953125 c 0,24,25
 606.451171875 1290.9921875 606.451171875 1290.9921875 608.3671875 1291.87988281 c 128,-1,26
 610.283203125 1292.76660156 610.283203125 1292.76660156 612.16015625 1293.74414062 c 128,-1,27
 614.036132812 1294.72070312 614.036132812 1294.72070312 615.874023438 1295.78808594 c 128,-1,28
 617.711914062 1296.85546875 617.711914062 1296.85546875 619.509765625 1298.01074219 c 128,-1,29
 621.307617188 1299.16699219 621.307617188 1299.16699219 623.06640625 1300.41308594 c 128,-1,30
 624.826171875 1301.65917969 624.826171875 1301.65917969 626.544921875 1302.99316406 c 128,-1,31
 628.264648438 1304.328125 628.264648438 1304.328125 629.944335938 1305.75195312 c 128,-1,32
 631.625 1307.17578125 631.625 1307.17578125 633.264648438 1308.6875 c 128,-1,33
 634.904296875 1310.19921875 634.904296875 1310.19921875 636.504882812 1311.80078125 c 0,34,35
 650.943359375 1326.23730469 650.943359375 1326.23730469 658.112304688 1343.80957031 c 0,36,37
 661.696289062 1352.59570312 661.696289062 1352.59570312 663.486328125 1362.23730469 c 128,-1,38
 665.276367188 1371.87890625 665.276367188 1371.87890625 665.276367188 1382.35546875 c 0,0,1
742.818359375 1382.45996094 m 0,39,40
 742.818359375 1308.31152344 742.818359375 1308.31152344 691.588867188 1256.75488281 c 0,41,42
 666.03515625 1231.04101562 666.03515625 1231.04101562 634.631835938 1218.13085938 c 128,-1,43
 603.220703125 1205.21972656 603.220703125 1205.21972656 566.2421875 1205.21972656 c 0,44,45
 556.994140625 1205.21972656 556.994140625 1205.21972656 548.086914062 1206.02832031 c 128,-1,46
 539.18359375 1206.83789062 539.18359375 1206.83789062 530.63671875 1208.45117188 c 128,-1,47
 522.092773438 1210.06542969 522.092773438 1210.06542969 513.895507812 1212.48632812 c 0,48,49
 511.163085938 1213.29296875 511.163085938 1213.29296875 508.471679688 1214.18847656 c 128,-1,50
 505.779296875 1215.08398438 505.779296875 1215.08398438 503.127929688 1216.06835938 c 128,-1,51
 500.475585938 1217.05371094 500.475585938 1217.05371094 497.86328125 1218.12695312 c 0,52,53
 490.02734375 1221.34765625 490.02734375 1221.34765625 482.543945312 1225.37207031 c 128,-1,54
 475.0625 1229.3984375 475.0625 1229.3984375 467.94140625 1234.22460938 c 128,-1,55
 460.821289062 1239.05175781 460.821289062 1239.05175781 454.057617188 1244.68554688 c 128,-1,56
 447.29296875 1250.31933594 447.29296875 1250.31933594 440.897460938 1256.75488281 c 0,57,58
 415.333984375 1282.48144531 415.333984375 1282.48144531 402.502929688 1313.97265625 c 128,-1,59
 389.666992188 1345.47070312 389.666992188 1345.47070312 389.666992188 1382.45996094 c 0,60,61
 389.666992188 1394.79394531 389.666992188 1394.79394531 391.095703125 1406.50976562 c 0,62,63
 391.453125 1409.43847656 391.453125 1409.43847656 391.899414062 1412.328125 c 128,-1,64
 392.344726562 1415.21777344 392.344726562 1415.21777344 392.879882812 1418.06738281 c 128,-1,65
 393.4140625 1420.91699219 393.4140625 1420.91699219 394.038085938 1423.7265625 c 128,-1,66
 394.661132812 1426.53613281 394.661132812 1426.53613281 395.373046875 1429.30664062 c 0,67,68
 396.797851562 1434.84570312 396.797851562 1434.84570312 398.578125 1440.22949219 c 128,-1,69
 400.357421875 1445.61230469 400.357421875 1445.61230469 402.494140625 1450.84179688 c 0,70,71
 406.765625 1461.296875 406.765625 1461.296875 412.450195312 1471.11035156 c 128,-1,72
 418.134765625 1480.92382812 418.134765625 1480.92382812 425.245117188 1490.10742188 c 128,-1,73
 432.356445312 1499.2890625 432.356445312 1499.2890625 440.883789062 1507.81933594 c 0,74,75
 492.098632812 1559.03613281 492.098632812 1559.03613281 566.2421875 1559.03613281 c 0,76,77
 581.092773438 1559.03613281 581.092773438 1559.03613281 595.006835938 1556.99023438 c 128,-1,78
 608.920898438 1554.94433594 608.920898438 1554.94433594 621.91015625 1550.85058594 c 128,-1,79
 634.8984375 1546.75683594 634.8984375 1546.75683594 646.96875 1540.61132812 c 128,-1,80
 659.038085938 1534.46484375 659.038085938 1534.46484375 670.193359375 1526.26953125 c 128,-1,81
 681.34765625 1518.07421875 681.34765625 1518.07421875 691.602539062 1507.81933594 c 0,82,83
 717.157226562 1482.2578125 717.157226562 1482.2578125 729.986328125 1450.85449219 c 0,84,85
 733.193359375 1443.00292969 733.193359375 1443.00292969 735.598632812 1434.80859375 c 128,-1,86
 738.002929688 1426.61328125 738.002929688 1426.61328125 739.608398438 1418.06542969 c 128,-1,87
 741.212890625 1409.51757812 741.212890625 1409.51757812 742.015625 1400.61621094 c 128,-1,88
 742.818359375 1391.71386719 742.818359375 1391.71386719 742.818359375 1382.45996094 c 0,39,40
EndSplineSet
EndChar

StartChar: uni0653
Encoding: 1619 1619 54
Width: 11
VWidth: 2551
GlyphClass: 4
Flags: W
AnchorPoint: "Anchor-10" 397.919 1465.33 mark 0
AnchorPoint: "Anchor-9" 397.919 1465.33 mark 0
AnchorPoint: "Anchor-1" 392.604 1781.32 basemark 0
AnchorPoint: "Anchor-1" 397.919 1465.33 mark 0
LayerCount: 2
Fore
SplineSet
318.896484375 1684.04980469 m 2,0,-1
 685.580078125 1684.04980469 l 1,1,-1
 686.538085938 1555.84960938 l 1,2,-1
 329.008789062 1555.84960938 l 2,3,4
 219.216796875 1556.01171875 219.216796875 1556.01171875 163.5390625 1483.45410156 c 2,5,-1
 160.108398438 1478.98242188 l 1,6,-1
 82.130859375 1568.65429688 l 1,7,-1
 84.2001953125 1571.80566406 l 2,8,9
 121.204101562 1627.94238281 121.204101562 1627.94238281 179.810546875 1655.99609375 c 128,-1,10
 238.416992188 1684.04980469 238.416992188 1684.04980469 318.896484375 1684.04980469 c 2,0,-1
EndSplineSet
EndChar

StartChar: uni0657
Encoding: 1623 1623 57
Width: 11
VWidth: 2551
GlyphClass: 4
Flags: W
AnchorPoint: "Anchor-10" 648 1575.87 mark 0
AnchorPoint: "Anchor-9" 648 1575.87 mark 0
AnchorPoint: "Anchor-1" 648 2228.92 basemark 0
AnchorPoint: "Anchor-1" 648 1575.87 mark 0
LayerCount: 2
Fore
SplineSet
377.146484375 1975.00585938 m 1,0,-1
 489.893554688 1967.13671875 l 1,1,-1
 491.018554688 1967.05859375 l 1,2,-1
 491.66796875 1967.97949219 l 2,3,4
 539.140625 2035.31835938 539.140625 2035.31835938 604.537109375 2075.12109375 c 0,5,6
 782.124023438 2184.32226562 782.124023438 2184.32226562 918.853515625 2194.59082031 c 1,7,-1
 918.853515625 2129.2890625 l 1,8,9
 868.831054688 2126.328125 868.831054688 2126.328125 820.614257812 2112.69433594 c 128,-1,10
 772.3984375 2099.06152344 772.3984375 2099.06152344 726.032226562 2074.78222656 c 128,-1,11
 679.666992188 2050.50292969 679.666992188 2050.50292969 635.127929688 2015.57910156 c 0,12,13
 631.060546875 2012.39550781 631.060546875 2012.39550781 627.109375 2009.15136719 c 128,-1,14
 623.158203125 2005.90722656 623.158203125 2005.90722656 619.322265625 2002.6015625 c 128,-1,15
 615.486328125 1999.29589844 615.486328125 1999.29589844 611.766601562 1995.9296875 c 128,-1,16
 608.045898438 1992.5625 608.045898438 1992.5625 604.44140625 1989.13476562 c 128,-1,17
 600.8359375 1985.70800781 600.8359375 1985.70800781 597.346679688 1982.21875 c 128,-1,18
 593.857421875 1978.72949219 593.857421875 1978.72949219 590.483398438 1975.1796875 c 2,19,-1
 565.513671875 1948.89257812 l 1,20,-1
 563.080078125 1946.33105469 l 1,21,-1
 566.529296875 1945.56347656 l 1,22,-1
 601.922851562 1937.69042969 l 2,23,24
 604.735351562 1937.06640625 604.735351562 1937.06640625 614.71875 1932.36132812 c 128,-1,25
 624.702148438 1927.65722656 624.702148438 1927.65722656 640.627929688 1919.3671875 c 0,26,27
 673.040039062 1902.49609375 673.040039062 1902.49609375 697.038085938 1869.56152344 c 128,-1,28
 720.9296875 1836.7734375 720.9296875 1836.7734375 720.9296875 1797.32324219 c 128,-1,29
 720.9296875 1757.69042969 720.9296875 1757.69042969 709.702148438 1735.05371094 c 0,30,31
 671.323242188 1657.66992188 671.323242188 1657.66992188 577.603515625 1657.66992188 c 0,32,33
 530.6640625 1657.66992188 530.6640625 1657.66992188 498.475585938 1679.08300781 c 128,-1,34
 466.288085938 1700.49609375 466.288085938 1700.49609375 448.502929688 1743.546875 c 0,35,36
 444.474609375 1753.29785156 444.474609375 1753.29785156 441.790039062 1763.33789062 c 128,-1,37
 439.106445312 1773.37792969 439.106445312 1773.37792969 437.764648438 1783.71582031 c 128,-1,38
 436.422851562 1794.05371094 436.422851562 1794.05371094 436.422851562 1804.69433594 c 128,-1,39
 436.422851562 1815.3359375 436.422851562 1815.3359375 437.868164062 1827.08789062 c 128,-1,40
 439.313476562 1838.83984375 439.313476562 1838.83984375 442.215820312 1851.73925781 c 128,-1,41
 445.1171875 1864.63867188 445.1171875 1864.63867188 449.47265625 1878.63476562 c 2,42,-1
 457.259765625 1903.66308594 l 1,43,-1
 458.018554688 1906.10253906 l 1,44,-1
 455.467773438 1906.25292969 l 1,45,-1
 429.291015625 1907.79882812 l 2,46,47
 405.758789062 1909.18359375 405.758789062 1909.18359375 377.146484375 1909.67578125 c 1,48,-1
 377.146484375 1975.00585938 l 1,0,-1
526.065429688 1893.05566406 m 1,49,-1
 512.770507812 1862.04003906 l 2,50,51
 501.908203125 1836.70996094 501.908203125 1836.70996094 501.908203125 1800.21191406 c 0,52,53
 501.908203125 1781.79199219 501.908203125 1781.79199219 508.0078125 1767.46191406 c 128,-1,54
 514.108398438 1753.1328125 514.108398438 1753.1328125 526.29296875 1743.09570312 c 0,55,56
 550.502929688 1723.15429688 550.502929688 1723.15429688 578.704101562 1723.15429688 c 0,57,58
 607.916015625 1723.99316406 607.916015625 1723.99316406 625.977539062 1736.38085938 c 128,-1,59
 644.040039062 1748.76953125 644.040039062 1748.76953125 650.501953125 1772.57617188 c 0,60,61
 651.965820312 1777.96777344 651.965820312 1777.96777344 652.701171875 1783.06640625 c 128,-1,62
 653.435546875 1788.16503906 653.435546875 1788.16503906 653.435546875 1792.97167969 c 0,63,64
 653.435546875 1855.75292969 653.435546875 1855.75292969 546.119140625 1888.75097656 c 2,65,-1
 528.4921875 1894.17871094 l 1,66,-1
 526.7734375 1894.70800781 l 1,67,-1
 526.065429688 1893.05566406 l 1,49,-1
EndSplineSet
EndChar

StartChar: uni065A
Encoding: 1626 1626 58
Width: 1295
VWidth: 2551
GlyphClass: 4
Flags: W
AnchorPoint: "Anchor-10" 648 1488.29 mark 0
AnchorPoint: "Anchor-9" 648 1488.29 mark 0
AnchorPoint: "Anchor-1" 645.488 2053.43 basemark 0
AnchorPoint: "Anchor-1" 648 1488.29 mark 0
LayerCount: 2
Fore
SplineSet
570.741210938 1593.80273438 m 1,0,-1
 358.920898438 1947.92480469 l 1,1,-1
 469.943359375 1947.92480469 l 1,2,-1
 646.3359375 1683.33203125 l 1,3,-1
 648 1680.8359375 l 1,4,-1
 649.6640625 1683.33203125 l 1,5,-1
 826.053710938 1947.92480469 l 1,6,-1
 937.078125 1947.92480469 l 1,7,-1
 725.254882812 1593.80273438 l 1,8,-1
 570.741210938 1593.80273438 l 1,0,-1
EndSplineSet
EndChar

StartChar: afii57392
Encoding: 1632 1632 59
Width: 936
VWidth: 2551
GlyphClass: 2
Flags: W
LayerCount: 2
Fore
SplineSet
195.271720971 500.380859375 m 0,0,1
 197.791760894 614.18022853 197.791760894 614.18022853 276.129976776 692.520288966 c 0,2,3
 302.446647489 718.836649827 302.446647489 718.836649827 332.448241521 736.407224528 c 128,-1,4
 362.449835553 753.977799229 362.449835553 753.977799229 396.350652851 762.916064019 c 128,-1,5
 430.251470149 771.854328809 430.251470149 771.854328809 468.269568275 772.220009616 c 0,6,7
 525.145460675 771.673224058 525.145460675 771.673224058 573.116455076 751.77539154 c 128,-1,8
 621.024980894 731.904393794 621.024980894 731.904393794 660.409023282 692.520351407 c 0,9,10
 670.295739205 682.633635484 670.295739205 682.633635484 678.931945599 672.237861194 c 128,-1,11
 687.568151992 661.842086904 687.568151992 661.842086904 694.972190915 650.926243548 c 0,12,13
 709.739195076 629.156472927 709.739195076 629.156472927 719.664136972 605.227605859 c 0,14,15
 724.628807515 593.258330456 724.628807515 593.258330456 728.387762825 580.737793181 c 128,-1,16
 732.146718135 568.217255907 732.146718135 568.217255907 734.703586915 555.119665504 c 0,17,18
 736.400347216 546.426417752 736.400347216 546.426417752 737.573627531 537.381766753 c 128,-1,19
 738.746907846 528.337115755 738.746907846 528.337115755 739.382611528 519.059283909 c 128,-1,20
 740.01831521 509.781452063 740.01831521 509.781452063 740.108682136 500.380841142 c 0,21,22
 739.74336503 462.368341406 739.74336503 462.368341406 730.804249751 428.465955467 c 128,-1,23
 721.865134472 394.563569529 721.865134472 394.563569529 704.293829754 364.559219313 c 128,-1,24
 686.722525036 334.554869097 686.722525036 334.554869097 660.409023282 308.241367343 c 0,25,26
 621.024980891 268.857324952 621.024980891 268.857324952 573.116227199 248.986232691 c 0,27,28
 563.565158152 245.024555961 563.565158152 245.024555961 553.637012639 241.826001634 c 128,-1,29
 543.708867127 238.627447308 543.708867127 238.627447308 533.394789913 236.19238967 c 128,-1,30
 523.080712698 233.757332031 523.080712698 233.757332031 512.411415374 232.094048886 c 128,-1,31
 501.742118049 230.43076574 501.742118049 230.43076574 490.69572271 229.540938011 c 128,-1,32
 479.64932737 228.651110282 479.64932737 228.651110282 468.269568275 228.541709134 c 0,33,34
 354.738614339 229.633717755 354.738614339 229.633717755 276.130164087 308.241242472 c 0,35,36
 236.679422504 347.692912964 236.679422504 347.692912964 216.607008964 395.522592668 c 128,-1,37
 196.534595423 443.352272371 196.534595423 443.352272371 195.271720971 500.380859375 c 0,0,1
326.274156854 499.983945399 m 0,38,39
 326.314274296 497.103767768 326.314274296 497.103767768 326.455392042 494.249831319 c 128,-1,40
 326.596509787 491.395894871 326.596509787 491.395894871 326.838476869 488.567265091 c 128,-1,41
 327.080443952 485.738635311 327.080443952 485.738635311 327.424485015 482.939432457 c 128,-1,42
 327.768526078 480.140229602 327.768526078 480.140229602 328.213012996 477.374264627 c 128,-1,43
 328.657499914 474.608299651 328.657499914 474.608299651 329.205232968 471.87463098 c 128,-1,44
 329.752966022 469.140962309 329.752966022 469.140962309 330.400741449 466.448462727 c 128,-1,45
 331.048516875 463.755963145 331.048516875 463.755963145 331.800710592 461.098629246 c 128,-1,46
 332.552904309 458.441295347 332.552904309 458.441295347 333.404736918 455.833061747 c 128,-1,47
 334.256569526 453.224828148 334.256569526 453.224828148 335.213992579 450.65462961 c 128,-1,48
 336.171415632 448.084431073 336.171415632 448.084431073 337.228172572 445.570947681 c 0,49,50
 342.491179707 433.053495799 342.491179707 433.053495799 350.335771422 421.628854951 c 128,-1,51
 358.180363137 410.204214103 358.180363137 410.204214103 368.250544715 400.298231895 c 0,52,53
 408.852410591 359.024637951 408.852410591 359.024637951 468.278599207 358.819245381 c 0,54,55
 527.072715588 359.024639674 527.072715588 359.024639674 568.284226448 400.29075412 c 0,56,57
 610.031640872 441.983546781 610.031640872 441.983546781 609.770986443 500.484038425 c 0,58,59
 609.5974833 512.127183717 609.5974833 512.127183717 607.848107813 523.064837495 c 128,-1,60
 606.086019126 534.088795804 606.086019126 534.088795804 602.726089866 544.449579948 c 0,61,62
 601.042769707 549.642556883 601.042769707 549.642556883 598.957136408 554.670935298 c 128,-1,63
 596.871503109 559.699313713 596.871503109 559.699313713 594.390754069 564.545134877 c 0,64,65
 593.398416833 566.483965298 593.398416833 566.483965298 592.341856011 568.395243204 c 128,-1,66
 591.285295188 570.30652111 591.285295188 570.30652111 590.167264922 572.185716369 c 128,-1,67
 589.049234655 574.064911628 589.049234655 574.064911628 587.868083276 575.915290062 c 128,-1,68
 586.686931898 577.765668497 586.686931898 577.765668497 585.445227486 579.58346351 c 128,-1,69
 584.203523074 581.401258523 584.203523074 581.401258523 582.899800026 583.188972401 c 0,70,71
 576.4087729 592.08971194 576.4087729 592.08971194 568.293805423 600.339036799 c 0,72,73
 557.746540059 610.719646002 557.746540059 610.719646002 546.256958152 618.483438871 c 128,-1,74
 534.767376244 626.24723174 534.767376244 626.24723174 522.140453583 631.484343922 c 0,75,76
 496.976401595 641.921781264 496.976401595 641.921781264 468.107704127 641.818917175 c 0,77,78
 408.854702227 640.890347315 408.854702227 640.890347315 368.24332223 600.332498217 c 0,79,80
 324.818838752 556.854567206 324.818838752 556.854567206 326.274156854 499.983945399 c 0,38,39
EndSplineSet
EndChar

StartChar: afii57393
Encoding: 1633 1633 60
Width: 702
VWidth: 2551
GlyphClass: 2
Flags: W
LayerCount: 2
Fore
SplineSet
452.849609375 18.9091796875 m 1,0,-1
 311.870117188 18.9091796875 l 1,1,-1
 311.870116768 309.9964499 l 2,2,3
 311.998233153 851.31803918 311.998233153 851.31803918 194.045484253 1255.7778557 c 1,4,-1
 327.609872349 1297.6174576 l 1,5,6
 390.382003316 1083.03801937 390.382003316 1083.03801937 421.615806346 836.439631124 c 128,-1,7
 452.849609375 589.841242881 452.849609375 589.841242881 452.849609375 309 c 2,8,-1
 452.849609375 18.9091796875 l 1,0,-1
EndSplineSet
EndChar

StartChar: afii57394
Encoding: 1634 1634 61
Width: 1138
VWidth: 2551
GlyphClass: 2
Flags: W
LayerCount: 2
Fore
SplineSet
451.851562354 309.925086024 m 2,0,-1
 451.863635506 18.9091796873 l 1,1,-1
 311.093816994 18.9091796875 l 1,2,-1
 311.07617173 309.893686146 l 2,3,4
 311.001041132 850.509386602 311.001041132 850.509386602 194.894027221 1256.1466353 c 1,5,-1
 328.450595356 1297.33966857 l 1,6,-1
 368.462976998 1119.59934964 l 2,7,8
 380.399439314 1067.0166356 380.399439314 1067.0166356 405.031975172 1025.01317597 c 128,-1,9
 429.66451103 983.009716336 429.66451103 983.009716336 466.731265645 952.405956938 c 0,10,11
 538.493224098 892.030379746 538.493224098 892.030379746 655.097811919 891.383315917 c 0,12,13
 744.304277774 890.652445375 744.304277774 890.652445375 797.401679986 928.575518029 c 128,-1,14
 850.499082199 966.498590682 850.499082199 966.498590682 862.7041833 1041.68674727 c 0,15,16
 871.280637523 1096.63440305 871.280637523 1096.63440305 871.280273437 1222.87797295 c 2,17,-1
 871.280043261 1302.68977182 l 1,18,-1
 1005.61035156 1302.6877282 l 1,19,-1
 1005.61039604 1226.96347057 l 2,20,21
 1005.9807721 1074.87722045 1005.9807721 1074.87722045 995.148116379 1010.30293666 c 0,22,23
 972.520561454 875.418362604 972.520561454 875.418362604 888.843974044 809.05663794 c 128,-1,24
 805.167386634 742.694913276 805.167386634 742.694913276 656.302832623 742.407147409 c 0,25,26
 595.324274471 742.209047855 595.324274471 742.209047855 544.672225308 755.460309898 c 128,-1,27
 494.020176145 768.711571941 494.020176145 768.711571941 453.27768986 795.245234541 c 2,28,-1
 449.497416423 797.707148603 l 1,29,-1
 421.146347883 816.170864384 l 1,30,-1
 426.500542664 782.763911724 l 1,31,-1
 427.217159909 778.29271461 l 2,32,33
 451.999434972 624.800369225 451.999434972 624.800369225 451.851562354 309.925086024 c 2,0,-1
EndSplineSet
EndChar

StartChar: afii57395
Encoding: 1635 1635 62
Width: 1405
VWidth: 2551
GlyphClass: 2
Flags: W
LayerCount: 2
Fore
SplineSet
368.419525681 1109.79620758 m 2,0,1
 392.310149265 998.245607547 392.310149265 998.245607547 447.66679172 940.620445338 c 128,-1,2
 503.023434176 882.995283128 503.023434176 882.995283128 588.735443733 884.149263138 c 0,3,4
 655.977862829 885.191708846 655.977862829 885.191708846 689.595409263 936.610531378 c 128,-1,5
 723.212955697 988.02935391 723.212955697 988.02935391 723.405242296 1082.39423937 c 2,6,-1
 723.771223569 1262 l 1,7,-1
 857.027534987 1262 l 1,8,-1
 856.414105231 1072.50553062 l 2,9,10
 856.269654482 1011.98850233 856.269654482 1011.98850233 874.266777394 970.020463 c 128,-1,11
 892.263900306 928.052423674 892.263900306 928.052423674 928.492145018 906.10765461 c 128,-1,12
 964.72038973 884.162885547 964.72038973 884.162885547 1017.70302378 884.254917649 c 0,13,14
 1083.99336388 884.112049357 1083.99336388 884.112049357 1117.32406092 931.590734653 c 128,-1,15
 1150.65475795 979.06941995 1150.65475795 979.06941995 1150.40423574 1066.814311 c 2,16,-1
 1149.73429419 1301.45996094 l 1,17,-1
 1282.16473612 1301.45996094 l 1,18,-1
 1283.00799302 1132.98890923 l 2,19,20
 1283.98565363 933.714838891 1283.98565363 933.714838891 1219.44997773 837.791516893 c 128,-1,21
 1154.91430183 741.868194895 1154.91430183 741.868194895 1024.75253654 741.749982299 c 0,22,23
 871.357064755 741.985642519 871.357064755 741.985642519 813.847638905 853.751698639 c 2,24,-1
 812.121076405 857.107167389 l 1,25,-1
 799.172542149 882.271852742 l 1,26,-1
 785.616104903 857.429370226 l 1,27,-1
 783.816373775 854.131302787 l 2,28,29
 724.105159351 744.993884756 724.105159351 744.993884756 607.733131329 744.914057351 c 0,30,31
 510.026965603 744.995011523 510.026965603 744.995011523 455.566635948 792.953561073 c 2,32,-1
 451.370346886 796.648873573 l 1,33,-1
 419.900444542 824.361722181 l 1,34,-1
 426.652783053 782.976185382 l 1,35,-1
 427.555285744 777.444721125 l 2,36,37
 438.075307617 713.318729836 438.075307617 713.318729836 445.749866517 588.902117629 c 0,38,39
 446.616526961 575.674667139 446.616526961 575.674667139 447.36075365 560.531884957 c 128,-1,40
 448.104980338 545.389102776 448.104980338 545.389102776 448.72688783 528.317762223 c 128,-1,41
 449.348795322 511.246421669 449.348795322 511.246421669 449.84733383 492.275263247 c 128,-1,42
 450.345872339 473.304104825 450.345872339 473.304104825 450.721000156 452.403193228 c 128,-1,43
 451.096127973 431.502281632 451.096127973 431.502281632 451.346961997 408.718179897 c 128,-1,44
 451.597796021 385.934078161 451.597796021 385.934078161 451.724127859 361.219028449 c 128,-1,45
 451.850459696 336.503978736 451.850459696 336.503978736 451.851562513 309.921252707 c 2,46,-1
 451.863635506 18.9091796873 l 1,47,-1
 311.093816994 18.9091796875 l 1,48,-1
 311.07617173 309.893686146 l 2,49,50
 311.001041132 850.509386602 311.001041132 850.509386602 194.89403198 1256.14661867 c 1,51,-1
 328.265868715 1297.28250371 l 1,52,-1
 368.419525681 1109.79620758 l 2,0,1
EndSplineSet
EndChar

StartChar: afii57396
Encoding: 1636 1636 63
Width: 966
VWidth: 2551
GlyphClass: 2
Flags: W
LayerCount: 2
Fore
SplineSet
157.433151539 322.869190784 m 0,0,1
 158.916947643 514.221174619 158.916947643 514.221174619 494.602601208 673.397722675 c 2,2,-1
 522.412800442 686.584856137 l 1,3,-1
 494.891124417 700.364007748 l 2,4,5
 196.980656569 849.517478608 196.980656569 849.517478608 196.670888065 1024.98040634 c 0,6,7
 196.825589802 1156.52537169 196.825589802 1156.52537169 296.772669699 1222.74553862 c 128,-1,8
 396.719749595 1288.96570555 396.719749595 1288.96570555 604.062969385 1289.72764047 c 2,9,-1
 726.440471635 1290.17764096 l 1,10,-1
 727.692349007 1145.74511967 l 1,11,-1
 606.911439395 1145.13554033 l 2,12,13
 371 1143.91164021 371 1143.91164021 371 1019 c 0,14,15
 371 952.755856115 371 952.755856115 457.416045609 890.040039719 c 128,-1,16
 543.832091217 827.324223324 543.832091217 827.324223324 715.287968228 761.543561128 c 1,17,-1
 706.713954418 617.5038762 l 1,18,19
 519.354289646 554.680538281 519.354289646 554.680538281 424.448486073 484.16556149 c 128,-1,20
 329.5426825 413.650584699 329.5426825 413.650584699 330.210171789 330.909724805 c 0,21,22
 331.089089741 165.147301395 331.089089741 165.147301395 620.000186129 165.150390626 c 2,23,-1
 841.046048373 165.153133493 l 1,24,-1
 840.510387557 20.1476468896 l 1,25,-1
 619.994354087 20.1503898982 l 2,26,27
 383.68686246 20.0768297242 383.68686246 20.0768297242 269.98435865 95.7703699426 c 128,-1,28
 156.281854839 171.463910161 156.281854839 171.463910161 157.433151539 322.869190784 c 0,0,1
EndSplineSet
EndChar

StartChar: afii57397
Encoding: 1637 1637 64
Width: 1172
VWidth: 2551
GlyphClass: 2
Flags: W
LayerCount: 2
Fore
SplineSet
562.072265955 1003.08983125 m 2,0,1
 408.44362598 830.23443761 408.44362598 830.23443761 331.171882521 671.992234908 c 128,-1,2
 253.900139062 513.750032206 253.900139062 513.750032206 253.79395474 369.505643212 c 0,3,4
 254.018784021 168.976924908 254.018784021 168.976924908 598.96483607 169.440456408 c 0,5,6
 911.983534893 170.03128301 911.983534893 170.03128301 912.169919579 359.709471078 c 0,7,8
 912.082964644 516.87202114 912.082964644 516.87202114 830.513536067 677.860544764 c 128,-1,9
 748.94410749 838.849068387 748.94410749 838.849068387 586.899342659 1003.71350437 c 2,10,-1
 585.399342659 1005.238895 l 1,11,-1
 574.154515753 1016.67406403 l 1,12,-1
 563.495984306 1004.69053657 l 1,13,-1
 562.072265955 1003.08983125 l 2,0,1
399.324519302 1150.04791509 m 1,14,-1
 478.87121333 1272.99255193 l 1,15,16
 1054.01900668 858.696862145 1054.01900668 858.696862145 1054.62891329 378.073360627 c 0,17,18
 1054.8072974 193.919139881 1054.8072974 193.919139881 943.270119952 103.386740234 c 128,-1,19
 831.732942505 12.8543405877 831.732942505 12.8543405877 602.158937138 13.6708456453 c 0,20,21
 356.609392813 14.3223156533 356.609392813 14.3223156533 237.158823432 102.895098096 c 128,-1,22
 117.70825405 191.467880539 117.70825405 191.467880539 117.440417243 369.12967353 c 0,23,24
 117.008083786 704.757821956 117.008083786 704.757821956 447.460788722 1093.2940747 c 2,25,-1
 448.876804346 1094.95911376 l 1,26,-1
 459.498758348 1107.44906655 l 1,27,-1
 446.115434255 1116.92068014 l 1,28,-1
 444.333516622 1118.18177424 l 1,29,-1
 399.324519302 1150.04791509 l 1,14,-1
EndSplineSet
EndChar

StartChar: afii57398
Encoding: 1638 1638 65
Width: 1246
VWidth: 2551
GlyphClass: 2
Flags: W
LayerCount: 2
Fore
SplineSet
128.526367188 1301.13857695 m 1,0,-1
 693.016510377 1301.6865305 l 2,1,2
 847.810246985 1301.83675533 847.810246985 1301.83675533 923.405123492 1219.96246556 c 128,-1,3
 999 1138.08817579 999 1138.08817579 999 969 c 2,4,-1
 999 18.9091796875 l 1,5,-1
 860.570327742 18.9091796875 l 1,6,-1
 860.571231653 964.952640573 l 2,7,8
 860.803635886 1048.95374334 860.803635886 1048.95374334 816.810908429 1093.18683261 c 128,-1,9
 772.818180972 1137.41992188 772.818180972 1137.41992188 689 1137.41992188 c 2,10,-1
 128.526367188 1137.41992188 l 1,11,-1
 128.526367188 1301.13857695 l 1,0,-1
EndSplineSet
EndChar

StartChar: afii57399
Encoding: 1639 1639 66
Width: 1201
VWidth: 2551
GlyphClass: 2
Flags: W
LayerCount: 2
Fore
SplineSet
616.499304972 389.048504593 m 2,0,1
 716.401322568 807.123294135 716.401322568 807.123294135 946.877150907 1304.69539056 c 1,2,-1
 1077.21728557 1236.67400661 l 1,3,4
 771.811302593 655.918103398 771.811302593 655.918103398 660.644925431 18.9091796875 c 1,5,-1
 540.320585397 18.9091796875 l 1,6,7
 429.18808565 655.91809709 429.18808565 655.91809709 123.748172488 1236.67432721 c 1,8,-1
 254.088250033 1304.69568134 l 1,9,10
 484.572713313 807.134968593 484.572713313 807.134968593 583.420820926 389.089507362 c 2,11,-1
 585.3563678 380.9010308 l 1,12,-1
 599.872845542 319.487980385 l 1,13,-1
 614.543144409 380.86446789 l 1,14,-1
 616.499304972 389.048504593 l 2,0,1
EndSplineSet
EndChar

StartChar: afii57400
Encoding: 1640 1640 67
Width: 1201
VWidth: 2551
GlyphClass: 2
Flags: W
LayerCount: 2
Fore
SplineSet
584.465383049 920.860023392 m 2,0,1
 484.598033212 502.874092092 484.598033212 502.874092092 254.087548383 5.21386451814 c 1,2,-1
 123.747337968 73.2352880024 l 1,3,4
 429.188084143 654.080311085 429.188084143 654.080311085 540.320284707 1291 c 1,5,-1
 660.646184136 1291 l 1,6,7
 771.811309862 654.08031465 771.811309862 654.08031465 1077.21808594 73.2356735621 c 1,8,-1
 946.878332883 5.2152962662 l 1,9,10
 716.42656924 502.862684991 716.42656924 502.862684991 617.543356236 920.823467725 c 2,11,-1
 615.606832799 929.009014599 l 1,12,-1
 601.082826909 990.400954783 l 1,13,-1
 586.420517292 929.041898863 l 1,14,-1
 584.465383049 920.860023392 l 2,0,1
EndSplineSet
EndChar

StartChar: afii57401
Encoding: 1641 1641 68
Width: 1147
VWidth: 2551
GlyphClass: 2
Flags: W
LayerCount: 2
Fore
SplineSet
758.274414062 310.021399306 m 1,0,-1
 757.429640936 653.059836237 l 1,1,-1
 757.420851874 656.587179987 l 1,2,-1
 757.3549403 683.039691487 l 1,3,-1
 734.68819953 669.403028704 l 1,4,-1
 731.691045898 667.599860704 l 2,5,6
 682.837262341 638.339440549 682.837262341 638.339440549 625.380575994 623.757943083 c 128,-1,7
 567.923889646 609.176445617 567.923889646 609.176445617 501.497706576 609.343661874 c 0,8,9
 316.92246888 609.976358911 316.92246888 609.976358911 228.148313302 713.627665473 c 0,10,11
 200.935408908 745.776932741 200.935408908 745.776932741 182.915366976 780.182547401 c 128,-1,12
 164.895325045 814.588162062 164.895325045 814.588162062 155.967602276 851.344857886 c 128,-1,13
 147.039879506 888.10155371 147.039879506 888.10155371 147.058592874 927.562743728 c 0,14,15
 147.00199427 1093.16742975 147.00199427 1093.16742975 234.57630492 1188.70312633 c 0,16,17
 345.604953268 1310 345.604953268 1310 535 1310 c 0,18,19
 693.905228536 1310 693.905228536 1310 779.926914948 1222.0834447 c 128,-1,20
 865.94860136 1134.1668894 865.94860136 1134.1668894 882.029197326 953.739040417 c 0,21,22
 899.25390625 752.391539524 899.25390625 752.391539524 899.25390625 309 c 2,23,-1
 899.25390625 18.9091796875 l 1,24,-1
 758.274414062 18.9091796875 l 1,25,-1
 758.274414062 310.021399306 l 1,0,-1
514.000613237 746.966796604 m 0,26,27
 661.363810346 746.966796604 661.363810346 746.966796604 740.54901798 832.860143374 c 2,28,-1
 745.055196619 837.748060904 l 1,29,-1
 745.050776992 843.61384095 l 2,30,31
 744.999115972 912.178943103 744.999115972 912.178943103 729.917031405 1007.96975953 c 0,32,33
 724.025916125 1044.78456769 724.025916125 1044.78456769 709.953919163 1073.8040719 c 128,-1,34
 695.8819222 1102.82357611 695.8819222 1102.82357611 673.491808056 1123.38890026 c 0,35,36
 623.826737959 1169.01611629 623.826737959 1169.01611629 534.480815979 1168.76755604 c 0,37,38
 391.159577531 1169.01347514 391.159577531 1169.01347514 325.270554972 1074.04279849 c 0,39,40
 281.989962269 1012.74781708 281.989962269 1012.74781708 282.167178277 929.155751731 c 0,41,42
 282.616719509 838.90810945 282.616719509 838.90810945 342.225749004 792.937453027 c 128,-1,43
 401.834778499 746.966796604 401.834778499 746.966796604 514.000613237 746.966796604 c 0,26,27
EndSplineSet
EndChar

StartChar: afii57381
Encoding: 1642 1642 69
Width: 1291
VWidth: 2551
GlyphClass: 2
Flags: W
LayerCount: 2
Fore
SplineSet
812.73828125 256.346679688 m 0,0,1
 812.555664062 284.354492188 812.555664062 284.354492188 822.5 307.56640625 c 0,2,3
 825.814453125 315.303710938 825.814453125 315.303710938 830.329101562 322.67578125 c 128,-1,4
 834.842773438 330.048828125 834.842773438 330.048828125 840.583984375 337.088867188 c 128,-1,5
 846.325195312 344.12890625 846.325195312 344.12890625 853.291015625 350.825195312 c 0,6,7
 874.018554688 371.002929688 874.018554688 371.002929688 898.109375 380.806640625 c 0,8,9
 906.13671875 384.07421875 906.13671875 384.07421875 914.665039062 386.244140625 c 128,-1,10
 923.192382812 388.4140625 923.192382812 388.4140625 932.251953125 389.490234375 c 128,-1,11
 941.311523438 390.567382812 941.311523438 390.567382812 950.8984375 390.545898438 c 0,12,13
 1007.4453125 390.670898438 1007.4453125 390.670898438 1048.49902344 350.758789062 c 0,14,15
 1069.21582031 330.81640625 1069.21582031 330.81640625 1079.1796875 307.555664062 c 0,16,17
 1084.15917969 295.931640625 1084.15917969 295.931640625 1086.61035156 283.140625 c 128,-1,18
 1089.06152344 270.349609375 1089.06152344 270.349609375 1088.98339844 256.346679688 c 0,19,20
 1089.13867188 228.729492188 1089.13867188 228.729492188 1079.16796875 205.452148438 c 128,-1,21
 1069.18847656 182.157226562 1069.18847656 182.157226562 1048.39453125 161.834960938 c 0,22,23
 1007.4453125 121.737304688 1007.4453125 121.737304688 950.860351562 122.149414062 c 0,24,25
 922.124023438 121.940429688 922.124023438 121.940429688 898.099609375 131.716796875 c 128,-1,26
 874.071289062 141.495117188 874.071289062 141.495117188 853.306640625 161.854492188 c 0,27,28
 812.37890625 201.802734375 812.37890625 201.802734375 812.73828125 256.346679688 c 0,0,1
202.407226562 1122.66015625 m 0,29,30
 202.915039062 1178.06347656 202.915039062 1178.06347656 242.959960938 1217.13867188 c 0,31,32
 283.892578125 1256.98535156 283.892578125 1256.98535156 340.567382812 1256.859375 c 0,33,34
 369.173828125 1256.92285156 369.173828125 1256.92285156 393.260742188 1247.1171875 c 0,35,36
 396.26953125 1245.89257812 396.26953125 1245.89257812 399.2265625 1244.50585938 c 128,-1,37
 402.182617188 1243.11914062 402.182617188 1243.11914062 405.08984375 1241.56933594 c 128,-1,38
 407.99609375 1240.01953125 407.99609375 1240.01953125 410.8515625 1238.30761719 c 128,-1,39
 413.70703125 1236.59472656 413.70703125 1236.59472656 416.512695312 1234.71875 c 128,-1,40
 419.319335938 1232.84179688 419.319335938 1232.84179688 422.075195312 1230.80175781 c 128,-1,41
 424.831054688 1228.76074219 424.831054688 1228.76074219 427.537109375 1226.55566406 c 128,-1,42
 430.243164062 1224.35058594 430.243164062 1224.35058594 432.901367188 1221.97949219 c 128,-1,43
 435.55859375 1219.60839844 435.55859375 1219.60839844 438.16796875 1217.07226562 c 0,44,45
 458.604492188 1197.40039062 458.604492188 1197.40039062 468.705078125 1173.84082031 c 128,-1,46
 478.805664062 1150.28222656 478.805664062 1150.28222656 478.65234375 1122.66015625 c 0,47,48
 478.73046875 1108.82617188 478.73046875 1108.82617188 476.278320312 1096.1171875 c 128,-1,49
 473.827148438 1083.40820312 473.827148438 1083.40820312 468.84375 1071.76171875 c 0,50,51
 458.872070312 1048.4609375 458.872070312 1048.4609375 438.112304688 1028.15234375 c 0,52,53
 397.119140625 988.05078125 397.119140625 988.05078125 340.529296875 988.462890625 c 0,54,55
 330.90625 988.393554688 330.90625 988.393554688 321.8671875 989.430664062 c 128,-1,56
 312.827148438 990.467773438 312.827148438 990.467773438 304.319335938 992.614257812 c 128,-1,57
 295.825195312 994.7578125 295.825195312 994.7578125 287.7734375 998.034179688 c 128,-1,58
 279.72265625 1001.31152344 279.72265625 1001.31152344 272.104492188 1005.72558594 c 128,-1,59
 264.479492188 1010.14355469 264.479492188 1010.14355469 257.200195312 1015.75097656 c 128,-1,60
 249.920898438 1021.35742188 249.920898438 1021.35742188 242.975585938 1028.16796875 c 0,61,62
 232.576171875 1038.31835938 232.576171875 1038.31835938 224.889648438 1049.22363281 c 128,-1,63
 217.202148438 1060.12890625 217.202148438 1060.12890625 212.209960938 1071.796875 c 0,64,65
 202.225585938 1095.1328125 202.225585938 1095.1328125 202.407226562 1122.66015625 c 0,29,30
880.801757812 1307.73730469 m 1,66,-1
 1005.74316406 1244.69335938 l 1,67,-1
 350.40625 29.818359375 l 1,68,-1
 227.095703125 95.0185546875 l 1,69,-1
 880.801757812 1307.73730469 l 1,66,-1
EndSplineSet
EndChar

StartChar: uni066B
Encoding: 1643 1643 70
Width: 667
VWidth: 2551
GlyphClass: 2
Flags: W
LayerCount: 2
Fore
SplineSet
78.0556640625 -205.130859375 m 1,0,-1
 461.721679688 551.006835938 l 1,1,-1
 554.024414062 507.103515625 l 1,2,-1
 174.107421875 -250.752929688 l 1,3,-1
 78.0556640625 -205.130859375 l 1,0,-1
EndSplineSet
EndChar

StartChar: uni066C
Encoding: 1644 1644 71
Width: 592
VWidth: 2302
GlyphClass: 2
Flags: W
LayerCount: 2
Fore
SplineSet
298.626953125 243.00390625 m 0,0,1
 329.186523438 242.309570312 329.186523438 242.309570312 351.961914062 235.833007812 c 128,-1,2
 374.736328125 229.356445312 374.736328125 229.356445312 389.737304688 217.198242188 c 0,3,4
 399.71875 209.107421875 399.71875 209.107421875 406.87109375 198.252929688 c 128,-1,5
 414.0234375 187.397460938 414.0234375 187.397460938 418.375 173.658203125 c 128,-1,6
 422.7265625 159.918945312 422.7265625 159.918945312 424.229492188 143.329101562 c 0,7,8
 432.778320312 47.7236328125 432.778320312 47.7236328125 403.693359375 -50.1943359375 c 0,9,10
 351.409179688 -227.587890625 351.409179688 -227.587890625 173.140625 -312.7890625 c 1,11,-1
 148.461914062 -290.084960938 l 1,12,13
 326.571289062 -180.37890625 326.571289062 -180.37890625 345.723632812 -4.1162109375 c 2,14,-1
 347.5078125 12.818359375 l 1,15,-1
 347.745117188 15.076171875 l 1,16,-1
 345.475585938 15.02734375 l 1,17,-1
 328.451171875 14.66015625 l 2,18,19
 318.387695312 14.443359375 318.387695312 14.443359375 310.506835938 14.408203125 c 0,20,21
 308.536132812 14.3994140625 308.536132812 14.3994140625 306.73046875 14.4013671875 c 128,-1,22
 304.924804688 14.4033203125 304.924804688 14.4033203125 303.283203125 14.416015625 c 128,-1,23
 301.641601562 14.427734375 301.641601562 14.427734375 300.166015625 14.4501953125 c 128,-1,24
 298.690429688 14.4736328125 298.690429688 14.4736328125 297.37890625 14.5068359375 c 0,25,26
 295.61328125 14.55078125 295.61328125 14.55078125 294.134765625 14.611328125 c 128,-1,27
 292.65625 14.671875 292.65625 14.671875 291.421875 14.75 c 128,-1,28
 290.1875 14.828125 290.1875 14.828125 289.168945312 14.92578125 c 0,29,30
 226.55078125 18.189453125 226.55078125 18.189453125 198.79296875 44.107421875 c 128,-1,31
 171.153320312 69.916015625 171.153320312 69.916015625 172.072265625 121.767578125 c 0,32,33
 172.951171875 186.079101562 172.951171875 186.079101562 203.344726562 215.224609375 c 128,-1,34
 233.744140625 244.375 233.744140625 244.375 298.626953125 243.00390625 c 0,0,1
EndSplineSet
EndChar

StartChar: afii63167
Encoding: 1645 1645 72
Width: 1411
VWidth: 2551
GlyphClass: 2
Flags: W
LayerCount: 2
Fore
SplineSet
244.852539062 891.817382812 m 1,0,-1
 583.680664062 891.817382812 l 1,1,-1
 594.541992188 891.817382812 l 1,2,-1
 595.990234375 891.817382812 l 1,3,-1
 596.442382812 893.193359375 l 1,4,-1
 599.83203125 903.512695312 l 1,5,-1
 705.771484375 1226.05078125 l 1,6,-1
 811.705078125 903.512695312 l 1,7,-1
 815.094726562 893.193359375 l 1,8,-1
 815.546875 891.817382812 l 1,9,-1
 816.995117188 891.817382812 l 1,10,-1
 827.856445312 891.817382812 l 1,11,-1
 1166.68652344 891.817382812 l 1,12,-1
 892.911132812 691.6796875 l 1,13,-1
 884.134765625 685.264648438 l 1,14,-1
 882.96484375 684.409179688 l 1,15,-1
 883.413085938 683.03125 l 1,16,-1
 886.778320312 672.694335938 l 1,17,-1
 991.446289062 351.139648438 l 1,18,-1
 715.728515625 550.376953125 l 1,19,-1
 706.943359375 556.724609375 l 1,20,-1
 705.771484375 557.571289062 l 1,21,-1
 704.600585938 556.724609375 l 1,22,-1
 695.814453125 550.376953125 l 1,23,-1
 420.091796875 351.139648438 l 1,24,-1
 524.760742188 672.694335938 l 1,25,-1
 528.125976562 683.03125 l 1,26,-1
 528.57421875 684.409179688 l 1,27,-1
 527.404296875 685.264648438 l 1,28,-1
 518.627929688 691.6796875 l 1,29,-1
 244.852539062 891.817382812 l 1,0,-1
EndSplineSet
EndChar

StartChar: uni066E
Encoding: 1646 1646 73
Width: 1901
VWidth: 2551
GlyphClass: 2
Flags: W
AnchorPoint: "Anchor-10" 879.751 1227.53 basechar 0
AnchorPoint: "Anchor-7" 879.751 -216.707 basechar 0
LayerCount: 2
Fore
SplineSet
536.549804688 165 m 2,0,-1
 1373.1081262 165.000000017 l 2,1,2
 1503.45834632 165.006120583 1503.45834632 165.006120583 1570.57048175 235.830530665 c 128,-1,3
 1637.68261719 306.654940747 1637.68261719 306.654940747 1637.68261719 443.366210938 c 2,4,-1
 1637.68261719 624.75 l 1,5,-1
 1782.44042969 624.75 l 1,6,-1
 1782.44043695 445.859489205 l 2,7,8
 1782.22610591 228.082484988 1782.22610591 228.082484988 1679.24627917 121.553123482 c 128,-1,9
 1576.26645242 15.0237619757 1576.26645242 15.0237619757 1366.45919593 14.9999998989 c 2,10,-1
 533.770904707 14.9033199436 l 2,11,12
 323.412905134 14.9499714875 323.412905134 14.9499714875 220.320698943 120.557091475 c 128,-1,13
 117.228492752 226.164211462 117.228492752 226.164211462 117.227539062 441.977612056 c 2,14,-1
 117.226635493 627.66015625 l 1,15,-1
 261.984375 627.66015625 l 1,16,-1
 261.984375027 442.540122907 l 2,17,18
 261.989781069 351.704424541 261.989781069 351.704424541 293.039851449 289.795834822 c 128,-1,19
 324.089921829 227.887245102 324.089921829 227.887245102 385.352066695 196.443622551 c 128,-1,20
 446.614211562 165 446.614211562 165 536.549804688 165 c 2,0,-1
EndSplineSet
Substitution2: "'init' Initial Forms in Arabic lookup 13 subtable" uni066E.init
Substitution2: "'medi' Medial Forms in Arabic lookup 11 subtable" uni066E.medi
Substitution2: "'fina' Terminal Forms in Arabic lookup 9 subtable" uni066E.fina
EndChar

StartChar: uni066F
Encoding: 1647 1647 74
Width: 1434
VWidth: 2551
GlyphClass: 2
Flags: W
AnchorPoint: "Anchor-10" 353.676 1159.52 basechar 0
AnchorPoint: "Anchor-7" 425.271 -715.467 basechar 0
LayerCount: 2
Fore
SplineSet
1313.96796677 357.738288528 m 2,0,-1
 1316.15056143 -66.5442396083 l 2,1,2
 1317.03624776 -252.134074422 1317.03624776 -252.134074422 1187.1709402 -344.567037211 c 128,-1,3
 1057.30563264 -437 1057.30563264 -437 789.385742188 -437 c 2,4,-1
 691.232718188 -437.000077274 l 2,5,6
 402.787586506 -436.074204486 402.787586506 -436.074204486 260.745893873 -302.276480251 c 128,-1,7
 118.70420124 -168.478756015 118.70420124 -168.478756015 118.121092814 101.925219793 c 2,8,-1
 118.006255477 427.064266708 l 1,9,-1
 262.877929688 427.610344754 l 1,10,-1
 262.877930506 103.086840447 l 2,11,12
 262.941393732 -88.9765537349 262.941393732 -88.9765537349 371.964333998 -186.004487911 c 128,-1,13
 480.987274263 -283.032422087 480.987274263 -283.032422087 693.462385547 -281.711624239 c 2,14,-1
 787.867868549 -281.124755513 l 2,15,16
 1177.15235787 -278.902112826 1177.15235787 -278.902112826 1175.20996094 -62.9969805175 c 2,17,-1
 1175.20996094 0.98046875 l 1,18,-1
 1175.20996094 2.98046875 l 1,19,-1
 1175.20996094 17.98046875 l 1,20,-1
 1160.20996094 17.98046875 l 1,21,-1
 1158.20996094 17.98046875 l 1,22,-1
 997.347518325 17.9804687266 l 2,23,24
 827.87088726 17.9899440262 827.87088726 17.9899440262 745.794188107 98.5713767479 c 128,-1,25
 663.717488954 179.15280947 663.717488954 179.15280947 664.383706318 344.545880056 c 0,26,27
 664.583718697 404.762345909 664.583718697 404.762345909 674.146378633 455.176893636 c 128,-1,28
 683.709038569 505.591441362 683.709038569 505.591441362 702.234894694 545.695733094 c 128,-1,29
 720.760750819 585.800024826 720.760750819 585.800024826 748.342968377 616.615185774 c 0,30,31
 790.4299252 664.225795328 790.4299252 664.225795328 851.994516285 688.233185497 c 128,-1,32
 913.55910737 712.240575665 913.55910737 712.240575665 995.938333558 712.463962839 c 0,33,34
 1139.11775581 712.975287817 1139.11775581 712.975287817 1223.65675998 630.685841691 c 0,35,36
 1267.98703834 587.584190699 1267.98703834 587.584190699 1290.74253322 519.549989792 c 128,-1,37
 1313.49802809 451.515788885 1313.49802809 451.515788885 1313.96796677 357.738288528 c 2,0,-1
801.166986012 346.101245096 m 0,38,39
 801.076642133 257.787753061 801.076642133 257.787753061 851.17166293 211.851219883 c 128,-1,40
 901.266683728 165.914686705 901.266683728 165.914686705 996.300209117 165.874024816 c 2,41,-1
 1158.00929874 165.804689278 l 1,42,-1
 1160.01515811 165.803712715 l 1,43,-1
 1175.05903732 165.796388529 l 1,44,-1
 1175.0224165 180.840224948 l 1,45,-1
 1175.01752472 182.849598357 l 1,46,-1
 1174.56634788 351.92172943 l 2,47,48
 1174.26802629 458.855254464 1174.26802629 458.855254464 1128.01924898 515.256253939 c 128,-1,49
 1081.77047167 571.657253415 1081.77047167 571.657253415 991.895592306 571.24803161 c 0,50,51
 897.724440353 571.113681373 897.724440353 571.113681373 849.401671333 513.325006113 c 128,-1,52
 801.078902313 455.536330853 801.078902313 455.536330853 801.166986012 346.101245096 c 0,38,39
EndSplineSet
Substitution2: "'init' Initial Forms in Arabic lookup 13 subtable" uni066F.init
Substitution2: "'medi' Medial Forms in Arabic lookup 11 subtable" uni066F.medi
Substitution2: "'fina' Terminal Forms in Arabic lookup 9 subtable" uni066F.fina
EndChar

StartChar: uni0670
Encoding: 1648 1648 75
Width: 11
VWidth: 2551
GlyphClass: 4
Flags: W
AnchorPoint: "Anchor-10" 648 1488.29 mark 0
AnchorPoint: "Anchor-9" 648 1488.29 mark 0
AnchorPoint: "Anchor-1" 648 1994.6 basemark 0
AnchorPoint: "Anchor-1" 648 1488.29 mark 0
LayerCount: 2
Fore
SplineSet
614.571289062 1565.38378906 m 1,0,-1
 614.571289062 1917.51464844 l 1,1,-1
 681.427734375 1917.51757812 l 1,2,-1
 681.427734375 1565.38378906 l 1,3,-1
 614.571289062 1565.38378906 l 1,0,-1
EndSplineSet
EndChar

StartChar: uni0674
Encoding: 1652 1652 76
Width: 759
VWidth: 2551
GlyphClass: 2
Flags: W
LayerCount: 2
Fore
SplineSet
170.505859375 1767.37011719 m 1,0,-1
 272.588867188 1790.92578125 l 1,1,-1
 289.176757812 1794.75390625 l 1,2,-1
 293.916015625 1795.84765625 l 1,3,-1
 289.778320312 1798.40429688 l 1,4,-1
 275.295898438 1807.35253906 l 2,5,6
 203.000976562 1852.01855469 203.000976562 1852.01855469 203.018554688 1947.76953125 c 0,7,8
 203.000976562 2062.75292969 203.000976562 2062.75292969 299.186523438 2117.20214844 c 0,9,10
 311.946289062 2124.3828125 311.946289062 2124.3828125 325.671875 2129.79785156 c 0,11,12
 329.104492188 2131.15136719 329.104492188 2131.15136719 332.59765625 2132.39550781 c 128,-1,13
 336.091796875 2133.63867188 336.091796875 2133.63867188 339.646484375 2134.77246094 c 128,-1,14
 343.202148438 2135.90625 343.202148438 2135.90625 346.8203125 2136.93066406 c 128,-1,15
 350.4375 2137.95410156 350.4375 2137.95410156 354.1171875 2138.86816406 c 128,-1,16
 357.796875 2139.78125 357.796875 2139.78125 361.5390625 2140.58398438 c 128,-1,17
 365.28125 2141.38671875 365.28125 2141.38671875 369.0859375 2142.078125 c 128,-1,18
 372.890625 2142.76953125 372.890625 2142.76953125 376.758789062 2143.35058594 c 128,-1,19
 380.626953125 2143.93066406 380.626953125 2143.93066406 384.557617188 2144.39941406 c 0,20,21
 392.407226562 2145.33691406 392.407226562 2145.33691406 400.524414062 2145.83007812 c 128,-1,22
 408.641601562 2146.32226562 408.641601562 2146.32226562 416.958984375 2146.36621094 c 0,23,24
 491.184570312 2146.02636719 491.184570312 2146.02636719 550.309570312 2111.3125 c 1,25,-1
 550.309570312 2016.23046875 l 1,26,27
 538.375 2021.7890625 538.375 2021.7890625 525.749023438 2025.87890625 c 128,-1,28
 513.124023438 2029.96972656 513.124023438 2029.96972656 499.609375 2032.64355469 c 128,-1,29
 486.094726562 2035.31738281 486.094726562 2035.31738281 471.719726562 2036.61132812 c 128,-1,30
 457.345703125 2037.90527344 457.345703125 2037.90527344 441.751953125 2037.87792969 c 0,31,32
 381.310546875 2037.41992188 381.310546875 2037.41992188 349.166015625 2013.45605469 c 0,33,34
 316.748046875 1989.28808594 316.748046875 1989.28808594 316.44140625 1942.12890625 c 0,35,36
 316.28125 1915.87695312 316.28125 1915.87695312 326.866210938 1895.125 c 128,-1,37
 337.452148438 1874.37304688 337.452148438 1874.37304688 358.573242188 1859.28710938 c 128,-1,38
 379.6953125 1844.20214844 379.6953125 1844.20214844 411.270507812 1834.73339844 c 2,39,-1
 412.823242188 1834.26757812 l 1,40,-1
 413.724609375 1834.2109375 l 1,41,-1
 415.32421875 1834.47460938 l 1,42,-1
 576.682617188 1861.16015625 l 1,43,-1
 576.682617188 1758.10058594 l 1,44,-1
 170.505859375 1666.9140625 l 1,45,-1
 170.505859375 1767.37011719 l 1,0,-1
EndSplineSet
EndChar

StartChar: uni06A1
Encoding: 1697 1697 80
Width: 1886
VWidth: 2551
GlyphClass: 2
Flags: W
AnchorPoint: "Anchor-10" 504.245 1205.49 basechar 0
AnchorPoint: "Anchor-7" 521.19 -187.02 basechar 0
LayerCount: 2
Fore
SplineSet
1288.48829705 15 m 2,0,-1
 533.770904707 14.9033199436 l 2,1,2
 323.412905134 14.9499714875 323.412905134 14.9499714875 220.320698943 120.557091475 c 128,-1,3
 117.228492752 226.164211462 117.228492752 226.164211462 117.227539062 441.977612056 c 2,4,-1
 117.226635493 627.66015625 l 1,5,-1
 261.984375 627.66015625 l 1,6,-1
 261.984375027 442.540122907 l 2,7,8
 261.989781069 351.704424541 261.989781069 351.704424541 293.039851449 289.795834822 c 128,-1,9
 324.089921829 227.887245102 324.089921829 227.887245102 385.352066695 196.443622551 c 128,-1,10
 446.614211562 165 446.614211562 165 536.549804688 165 c 2,11,-1
 1291.0234375 165 l 2,12,13
 1635.86425781 165 1635.86425781 165 1635.86425781 327.958007812 c 2,14,-1
 1635.86425781 350.875976562 l 1,15,-1
 1635.86425781 353.0859375 l 1,16,-1
 1635.86425781 369.659286287 l 1,17,-1
 1619.37301446 368.011626538 l 1,18,-1
 1617.17440691 367.791961029 l 2,19,20
 1578.14821178 363.894421476 1578.14821178 363.894421476 1540.76941761 361.779853627 c 128,-1,21
 1503.39062344 359.665285777 1503.39062344 359.665285777 1467.85777001 359.339778529 c 0,22,23
 1294.23571467 359.174958167 1294.23571467 359.174958167 1210.59079949 425.432410541 c 128,-1,24
 1126.94588431 491.689862916 1126.94588431 491.689862916 1126.89745826 626.29377617 c 0,25,26
 1126.90984534 647.035225328 1126.90984534 647.035225328 1128.25192149 666.529392463 c 128,-1,27
 1129.59399763 686.023559598 1129.59399763 686.023559598 1132.25273831 704.177838763 c 128,-1,28
 1134.91147899 722.332117928 1134.91147899 722.332117928 1138.85851693 739.172457499 c 128,-1,29
 1142.80555487 756.01279707 1142.80555487 756.01279707 1148.04909963 771.59905781 c 0,30,31
 1168.85296614 833.439683655 1168.85296614 833.439683655 1210.14558393 876.171377581 c 0,32,33
 1253.08849335 920.498779599 1253.08849335 920.498779599 1313.3603779 942.850386703 c 128,-1,34
 1373.63226245 965.201993808 1373.63226245 965.201993808 1452.25297393 965.389658685 c 0,35,36
 1559.51681531 965.264275192 1559.51681531 965.264275192 1629.63944994 931.110980028 c 128,-1,37
 1699.76208457 896.957684865 1699.76208457 896.957684865 1734.30299813 827.987318714 c 128,-1,38
 1768.84391168 759.016952564 1768.84391168 759.016952564 1768.79882949 653.664600832 c 2,39,-1
 1768.66309342 335.383457074 l 2,40,41
 1768.76963285 228.704876354 1768.76963285 228.704876354 1717.17221662 157.932691888 c 128,-1,42
 1665.5748004 87.1605074214 1665.5748004 87.1605074214 1558.64396708 51.0802537107 c 128,-1,43
 1451.71313375 15 1451.71313375 15 1288.48829705 15 c 2,0,-1
1635.93553232 656.523826219 m 2,44,45
 1635.82062213 739.000480951 1635.82062213 739.000480951 1588.98861347 781.860883323 c 128,-1,46
 1542.15660481 824.721285696 1542.15660481 824.721285696 1453.82622211 824.40123309 c 0,47,48
 1448.27680648 824.377767612 1448.27680648 824.377767612 1442.89400983 824.185669665 c 128,-1,49
 1437.51121318 823.993571718 1437.51121318 823.993571718 1432.25413436 823.629314698 c 128,-1,50
 1426.99705555 823.265057678 1426.99705555 823.265057678 1421.90592961 822.72909003 c 128,-1,51
 1416.81480367 822.193122382 1416.81480367 822.193122382 1411.85255811 821.479911132 c 128,-1,52
 1406.89031255 820.766699881 1406.89031255 820.766699881 1402.09309853 819.878833601 c 128,-1,53
 1397.29588451 818.990967321 1397.29588451 818.990967321 1392.6307134 817.920772908 c 128,-1,54
 1387.96554229 816.850578496 1387.96554229 816.850578496 1383.46448139 815.602784652 c 128,-1,55
 1378.96342049 814.354990808 1378.96342049 814.354990808 1374.59756504 812.919784302 c 128,-1,56
 1370.23170959 811.484577796 1370.23170959 811.484577796 1366.02929825 809.868693699 c 0,57,58
 1346.95335911 802.53319933 1346.95335911 802.53319933 1331.29879777 791.388791156 c 128,-1,59
 1315.64423643 780.244382983 1315.64423643 780.244382983 1303.62685762 765.312984736 c 0,60,61
 1293.19371833 752.184792624 1293.19371833 752.184792624 1285.34545321 737.494490507 c 128,-1,62
 1277.49718809 722.80418839 1277.49718809 722.80418839 1272.29360007 706.717896027 c 128,-1,63
 1267.09001206 690.631603663 1267.09001206 690.631603663 1264.46031313 673.191250957 c 128,-1,64
 1261.83061419 655.75089825 1261.83061419 655.75089825 1261.76858354 636.95690756 c 0,65,66
 1261.85816642 591.283393763 1261.85816642 591.283393763 1287.76086682 560.936775885 c 128,-1,67
 1313.66356723 530.590158007 1313.66356723 530.590158007 1360.85984677 516.518707916 c 128,-1,68
 1408.05612632 502.447257826 1408.05612632 502.447257826 1476.00958056 502.682759084 c 0,69,70
 1550.19124384 503.005425762 1550.19124384 503.005425762 1621.42171395 512.767012416 c 2,71,-1
 1623.1521827 513.004317103 l 1,72,-1
 1636.12889142 514.783854473 l 1,73,-1
 1636.11424844 527.882003509 l 1,74,-1
 1636.11229013 529.633199569 l 1,75,-1
 1635.93553232 656.523826219 l 2,44,45
EndSplineSet
Substitution2: "'init' Initial Forms in Arabic lookup 13 subtable" uni06A1.init
Substitution2: "'medi' Medial Forms in Arabic lookup 11 subtable" uni06A1.medi
Substitution2: "'fina' Terminal Forms in Arabic lookup 9 subtable" uni06A1.fina
EndChar

StartChar: uni06A9
Encoding: 1705 1705 81
Width: 1855
VWidth: 2551
GlyphClass: 2
Flags: W
AnchorPoint: "Anchor-10" 599.382 1353.15 basechar 0
AnchorPoint: "Anchor-7" 849.692 -232.794 basechar 0
LayerCount: 2
Fore
SplineSet
536.550806652 165 m 2,0,-1
 1260.23540455 165.096680811 l 2,1,2
 1524.996383 164.994193893 1524.996383 164.994193893 1525.03222409 313.874822477 c 0,3,4
 1524.99702212 375.191327585 1524.99702212 375.191327585 1409.75294343 506.621768714 c 2,5,-1
 1089.10709089 872.303252369 l 2,6,7
 1045.06559852 922.567011813 1045.06559852 922.567011813 1045.94570606 998.357985352 c 0,8,9
 1046.90516848 1107.17827437 1046.90516848 1107.17827437 1151.91697858 1141.75642103 c 2,10,-1
 1756.82421875 1340.93945811 l 1,11,-1
 1756.82421875 1192.37329313 l 1,12,-1
 1199.2542077 1010.23798084 l 1,13,-1
 1196.36846551 1009.29462147 l 1,14,-1
 1174.73254809 1002.22176318 l 1,15,-1
 1189.76639265 985.130193188 l 1,16,-1
 1191.75234515 982.872459223 l 1,17,-1
 1501.50018815 629.367247531 l 2,18,19
 1660.06413281 448.287543476 1660.06413281 448.287543476 1661.66396576 307.913709537 c 0,20,21
 1662.45752761 234.64916317 1662.45752761 234.64916317 1638.68948961 180.108342366 c 128,-1,22
 1614.92145161 125.567521562 1614.92145161 125.567521562 1565.53888605 88.7166358751 c 128,-1,23
 1516.15632049 51.8657501882 1516.15632049 51.8657501882 1440.10115354 33.4842827128 c 128,-1,24
 1364.04598658 15.1028152373 1364.04598658 15.1028152373 1260.75585938 15.0019459724 c 2,25,-1
 1259.75614 15.0009696814 l 1,26,-1
 1258.74897625 14.9999998666 l 1,27,-1
 533.770936866 14.9033199365 l 2,28,29
 323.41302125 14.9504224494 323.41302125 14.9504224494 220.320805251 120.557552396 c 128,-1,30
 117.228589252 226.164682343 117.228589252 226.164682343 117.227539062 441.977612056 c 2,31,-1
 117.226635493 627.66015625 l 1,32,-1
 261.984375 627.66015625 l 1,33,-1
 261.984375027 442.540122907 l 2,34,35
 261.988428479 374.431478927 261.988428479 374.431478927 279.569694481 322.434398025 c 128,-1,36
 297.150960483 270.437317123 297.150960483 270.437317123 331.663623739 235.51794036 c 128,-1,37
 366.176286995 200.598563597 366.176286995 200.598563597 417.642916975 182.799281799 c 128,-1,38
 469.109546956 165 469.109546956 165 536.550806652 165 c 2,0,-1
EndSplineSet
Substitution2: "'init' Initial Forms in Arabic lookup 13 subtable" uniFB90
Substitution2: "'medi' Medial Forms in Arabic lookup 11 subtable" uniFB91
Substitution2: "'fina' Terminal Forms in Arabic lookup 9 subtable" uniFB8F
EndChar

StartChar: afii57514
Encoding: 1722 1722 83
Width: 1442
VWidth: 2551
GlyphClass: 2
Flags: W
AnchorPoint: "Anchor-10" 597.158 923.159 basechar 0
AnchorPoint: "Anchor-7" 701.132 -708.307 basechar 0
LayerCount: 2
Fore
SplineSet
1312.56640625 51.8447265625 m 2,0,1
 1306.99804688 -193.092773438 1306.99804688 -193.092773438 1167.875 -314.682617188 c 0,2,3
 1133.02734375 -344.961914062 1133.02734375 -344.961914062 1089.4375 -367.68359375 c 128,-1,4
 1045.84765625 -390.405273438 1045.84765625 -390.405273438 993.481445312 -405.579101562 c 128,-1,5
 941.115234375 -420.752929688 941.115234375 -420.752929688 879.936523438 -428.346679688 c 128,-1,6
 818.758789062 -435.940429688 818.758789062 -435.940429688 748.819335938 -435.940429688 c 2,7,-1
 694.1015625 -435.940429688 l 2,8,9
 403.788085938 -436 403.788085938 -436 260.813476562 -302.606445312 c 0,10,11
 118.216796875 -169.333984375 118.216796875 -169.333984375 118.12109375 101.282226562 c 2,12,-1
 118.005859375 427.002929688 l 1,13,-1
 264.877929688 427.030273438 l 1,14,-1
 264.877929688 102.443359375 l 2,15,16
 265.000976562 -88.892578125 265.000976562 -88.892578125 374.319335938 -187.041015625 c 0,17,18
 482.83203125 -284.639648438 482.83203125 -284.639648438 696.272460938 -284.639648438 c 2,19,-1
 747.369140625 -284.639648438 l 2,20,21
 959.671875 -285.000976562 959.671875 -285.000976562 1069.32128906 -201.74609375 c 0,22,23
 1179.01269531 -117.979492188 1179.01269531 -117.979492188 1179.16210938 46.1982421875 c 2,24,-1
 1178.82421875 615.827148438 l 1,25,-1
 1324.89746094 615.90234375 l 1,26,-1
 1312.56640625 51.8447265625 l 2,0,1
EndSplineSet
Substitution2: "'init' Initial Forms in Arabic lookup 13 subtable" uni06BA.init
Substitution2: "'medi' Medial Forms in Arabic lookup 11 subtable" uni06BA.medi
Substitution2: "'fina' Terminal Forms in Arabic lookup 9 subtable" uniFB9F
EndChar

StartChar: uni06F4
Encoding: 1780 1780 90
Width: 1156
VWidth: 2551
GlyphClass: 2
Flags: W
LayerCount: 2
Fore
SplineSet
433.057616853 724.601733972 m 2,0,1
 451.843806511 496.874906108 451.843806511 496.874906108 451.851562513 309.921252707 c 2,2,-1
 451.863635506 18.9091796873 l 1,3,-1
 311.093816994 18.9091796875 l 1,4,-1
 311.076171729 309.893693781 l 2,5,6
 311.001041377 848.534970517 311.001041377 848.534970517 194.87442213 1256.14109016 c 1,7,-1
 328.033560692 1297.21059066 l 1,8,9
 361.576631461 1130.03886571 361.576631461 1130.03886571 378.353298162 1045.98043141 c 128,-1,10
 395.129964863 961.921997115 395.129964863 961.921997115 396.167948355 955.814077668 c 0,11,12
 403.586175911 914.903478197 403.586175911 914.903478197 439.221256766 899.409964781 c 2,13,-1
 462.221786257 889.40973458 l 1,14,-1
 465.004989382 888.199773643 l 1,15,-1
 485.875310509 879.126676142 l 1,16,-1
 485.985176758 901.883638409 l 1,17,-1
 485.999823275 904.917421425 l 2,18,19
 486.978037473 1106.43432272 486.978037473 1106.43432272 569.580018456 1204.21716136 c 128,-1,20
 652.181999439 1302 652.181999439 1302 819 1302 c 0,21,22
 841.076841587 1302 841.076841587 1302 863.523664498 1299.72943122 c 128,-1,23
 885.970487408 1297.45886244 885.970487408 1297.45886244 908.281906339 1293.00438061 c 128,-1,24
 930.59332527 1288.54989879 930.59332527 1288.54989879 952.764448271 1281.97474681 c 128,-1,25
 974.935571272 1275.39959483 974.935571272 1275.39959483 996.703597402 1266.77120014 c 1,26,-1
 985.114333874 1148.41772368 l 1,27,28
 907.514220196 1170.95914309 907.514220196 1170.95914309 833.817686052 1170.49146271 c 0,29,30
 729.575017998 1168.90388961 729.575017998 1168.90388961 667.676521837 1105.32185841 c 0,31,32
 600 1037.18333452 600 1037.18333452 600 916 c 0,33,34
 600 801.94845454 600 801.94845454 826.766876627 802.726593607 c 0,35,36
 851.112390202 802.776174974 851.112390202 802.776174974 874.365127585 803.782885803 c 128,-1,37
 897.617864968 804.789596631 897.617864968 804.789596631 919.406967222 806.72591856 c 128,-1,38
 941.196069475 808.662240488 941.196069475 808.662240488 961.593536902 811.508334067 c 128,-1,39
 981.991004329 814.354427647 981.991004329 814.354427647 1000.79104693 818.089942974 c 128,-1,40
 1019.59108952 821.825458301 1019.59108952 821.825458301 1036.70063866 826.423387469 c 1,41,-1
 1038.65836692 695.337527053 l 1,42,43
 924.329546693 666.025296126 924.329546693 666.025296126 814.967863023 666.387668747 c 0,44,45
 781.187326553 666.324092028 781.187326553 666.324092028 748.726555591 668.370453061 c 128,-1,46
 716.26578463 670.416814095 716.26578463 670.416814095 685.158149549 674.569642211 c 128,-1,47
 654.050514468 678.722470327 654.050514468 678.722470327 624.266640726 684.970394984 c 128,-1,48
 594.482766984 691.218319641 594.482766984 691.218319641 566.014052058 699.567668956 c 128,-1,49
 537.545337133 707.917018271 537.545337133 707.917018271 510.407177568 718.345969664 c 128,-1,50
 483.269018003 728.774921058 483.269018003 728.774921058 457.410838385 741.29960143 c 2,51,-1
 454.257518072 742.82694518 l 1,52,-1
 430.60922321 754.281244705 l 1,53,-1
 432.769530915 728.093921472 l 1,54,-1
 433.057616853 724.601733972 l 2,0,1
EndSplineSet
PairPos2: "'kern' Horizontal Kerning lookup 15-4" uni06F5 dx=-40 dy=0 dh=-40 dv=0 dx=0 dy=0 dh=0 dv=0
EndChar

StartChar: uni06F5
Encoding: 1781 1781 91
Width: 1258
VWidth: 2551
GlyphClass: 2
Flags: W
LayerCount: 2
Fore
SplineSet
387.618703455 168.653412914 m 0,0,1
 440.588959334 168.418375472 440.588959334 168.418375472 479.141630667 195.77383093 c 128,-1,2
 517.694301999 223.129286389 517.694301999 223.129286389 540.423424937 274.206732405 c 128,-1,3
 563.152547874 325.284178422 563.152547874 325.284178422 571.754471601 399.513671875 c 1,4,-1
 683.215952837 399.513671875 l 1,5,6
 690.881064833 286.571204002 690.881064833 286.571204002 736.344933239 226.483044447 c 128,-1,7
 781.808801646 166.394884892 781.808801646 166.394884892 864.768289559 164.57040408 c 0,8,9
 912.076514467 163.620748148 912.076514467 163.620748148 944.610070664 182.085690979 c 128,-1,10
 977.143626861 200.55063381 977.143626861 200.55063381 993.357917702 236.641578517 c 128,-1,11
 1009.57220854 272.732523225 1009.57220854 272.732523225 1009.33379312 324.898988466 c 0,12,13
 1007.96742736 595.47631209 1007.96742736 595.47631209 642.408647153 1008.74356926 c 2,14,-1
 640.900834653 1010.44767082 l 1,15,-1
 629.594532333 1023.22584281 l 1,16,-1
 618.369971965 1010.37580794 l 1,17,-1
 616.87130068 1008.66010764 l 2,18,19
 433.724882309 798.922832331 433.724882309 798.922832331 341.450308865 628.573031873 c 0,20,21
 248.184096762 456.39155328 248.184096762 456.39155328 247.312211574 323.10461634 c 0,22,23
 246.600005584 248.754073228 246.600005584 248.754073228 282.54323352 208.799928079 c 128,-1,24
 318.486461455 168.84578293 318.486461455 168.84578293 387.618703455 168.653412914 c 0,0,1
383.276001011 14.5928413843 m 0,25,26
 248.245469733 14.7869046478 248.245469733 14.7869046478 182.640404717 84.1307344696 c 128,-1,27
 117.0353397 153.474564291 117.0353397 153.474564291 117.068359081 296.871132864 c 0,28,29
 117.00110274 636.686678729 117.00110274 636.686678729 524.37998449 1109.42431744 c 2,30,-1
 525.54795324 1110.77978619 l 1,31,-1
 534.306591103 1120.94449301 l 1,32,-1
 525.177056169 1130.77742715 l 1,33,-1
 523.96244896 1132.08561515 l 2,34,35
 515.752380334 1140.93204731 515.752380334 1140.93204731 507.273107709 1149.9948145 c 128,-1,36
 498.795406759 1159.05492304 498.795406759 1159.05492304 490.542592327 1167.80701806 c 0,37,38
 489.490126305 1168.92302402 489.490126305 1168.92302402 488.176210017 1170.31445425 c 128,-1,39
 486.862293729 1171.70588449 486.862293729 1171.70588449 485.735655115 1172.89795139 c 128,-1,40
 484.6090165 1174.09001829 484.6090165 1174.09001829 483.703918346 1175.04681374 c 2,41,-1
 582.475618572 1289.20040174 l 1,42,43
 589.575001474 1280.87369342 589.575001474 1280.87369342 598.027444791 1271.30944164 c 128,-1,44
 606.479888108 1261.74518987 606.479888108 1261.74518987 616.514753856 1250.68734172 c 128,-1,45
 626.549619605 1239.62949358 626.549619605 1239.62949358 638.061439465 1227.18023339 c 128,-1,46
 649.573259325 1214.73097319 649.573259325 1214.73097319 663.074321232 1200.32944258 c 0,47,48
 1140.0168521 684.328236205 1140.0168521 684.328236205 1140.93269775 323.547519364 c 0,49,50
 1141.1908506 244.779282341 1141.1908506 244.779282341 1124.49340044 186.756915277 c 128,-1,51
 1107.79595028 128.734548212 1107.79595028 128.734548212 1073.63704108 90.5510418732 c 128,-1,52
 1039.47813188 52.3675355339 1039.47813188 52.3675355339 988.172702777 33.6919319503 c 128,-1,53
 936.867273675 15.0163283666 936.867273675 15.0163283666 867.360533599 15.0214842704 c 0,54,55
 780.550518229 15.011234384 780.550518229 15.011234384 724.085874954 54.1593977529 c 128,-1,56
 667.621231678 93.3075611217 667.621231678 93.3075611217 638.638121245 173.47852809 c 2,57,-1
 636.762144683 178.668957778 l 1,58,-1
 622.69221312 217.597477448 l 1,59,-1
 608.556977781 178.692622484 l 1,60,-1
 606.692071914 173.559783125 l 2,61,62
 547.921762435 15.6307292912 547.921762435 15.6307292912 383.276001011 14.5928413843 c 0,25,26
EndSplineSet
PairPos2: "'kern' Horizontal Kerning lookup 15-4" uni06F7 dx=-100 dy=0 dh=-100 dv=0 dx=0 dy=0 dh=0 dv=0
PairPos2: "'kern' Horizontal Kerning lookup 15-4" uni06F6 dx=-30 dy=0 dh=-30 dv=0 dx=0 dy=0 dh=0 dv=0
PairPos2: "'kern' Horizontal Kerning lookup 15-4" uni06F4 dx=-30 dy=0 dh=-30 dv=0 dx=0 dy=0 dh=0 dv=0
PairPos2: "'kern' Horizontal Kerning lookup 15-4" uni06F3 dx=-100 dy=0 dh=-100 dv=0 dx=0 dy=0 dh=0 dv=0
PairPos2: "'kern' Horizontal Kerning lookup 15-4" uni06F2 dx=-70 dy=0 dh=-70 dv=0 dx=0 dy=0 dh=0 dv=0
EndChar

StartChar: uni06F6
Encoding: 1782 1782 92
Width: 1000
VWidth: 2551
GlyphClass: 2
Flags: W
LayerCount: 2
Fore
SplineSet
288.875457572 939.559115097 m 0,0,1
 289.178407937 897.098465053 289.178407937 897.098465053 303.055172117 863.171020573 c 128,-1,2
 316.931936296 829.243576092 316.931936296 829.243576092 343.634398502 804.71660034 c 128,-1,3
 370.336860709 780.189624588 370.336860709 780.189624588 409.247201462 764.65108923 c 128,-1,4
 448.157542215 749.112553872 448.157542215 749.112553872 498.773114252 742.828880743 c 0,5,6
 555.624177966 735.809008491 555.624177966 735.809008491 586.248955022 742.177041298 c 0,7,8
 604.806996774 746.095099966 604.806996774 746.095099966 623.174804539 754.47614043 c 128,-1,9
 641.542612305 762.857180895 641.542612305 762.857180895 659.790424234 775.615983355 c 0,10,11
 683.740211249 792.662510976 683.740211249 792.662510976 708.058320731 809.907070397 c 128,-1,12
 732.376430213 827.151629817 732.376430213 827.151629817 756.476438031 844.179751842 c 128,-1,13
 780.576445848 861.207873868 780.576445848 861.207873868 804.490103777 878.043221671 c 1,14,-1
 876.171550213 752.20276141 l 1,15,16
 699.230234321 656.222570777 699.230234321 656.222570777 350.421296285 -19.5843451043 c 1,17,-1
 223.391265529 40.7143335466 l 1,18,19
 463.218729136 489.484247728 463.218729136 489.484247728 527.013338844 582.376449586 c 2,20,-1
 528.938143531 585.179183961 l 1,21,-1
 543.375439152 606.201527152 l 1,22,-1
 517.986432121 608.604179866 l 1,23,-1
 514.610254485 608.923677162 l 2,24,25
 329.641392325 626.535278661 329.641392325 626.535278661 239.780833266 707.389546773 c 128,-1,26
 149.920274207 788.243814886 149.920274207 788.243814886 149.846672939 934.356864837 c 0,27,28
 149.994513304 1090.2088591 149.994513304 1090.2088591 241.617656669 1191.32350679 c 0,29,30
 340.665133987 1301 340.665133987 1301 506 1301 c 0,31,32
 618.236346179 1301 618.236346179 1301 699.465801706 1259.16422055 c 1,33,-1
 698.690326552 1131.6207252 l 1,34,35
 622.674773644 1165.02782892 622.674773644 1165.02782892 539.948597507 1165.30657148 c 0,36,37
 504.928469323 1165.2002426 504.928469323 1165.2002426 473.86574696 1159.12549635 c 128,-1,38
 442.803024597 1153.05075009 442.803024597 1153.05075009 415.537221259 1140.82303412 c 128,-1,39
 388.27141792 1128.59531816 388.27141792 1128.59531816 365.44276183 1110.31517668 c 0,40,41
 287.937648717 1049.22727813 287.937648717 1049.22727813 288.875457572 939.559115097 c 0,0,1
EndSplineSet
PairPos2: "'kern' Horizontal Kerning lookup 15-4" uni06F8 dx=-30 dy=0 dh=-30 dv=0 dx=0 dy=0 dh=0 dv=0
PairPos2: "'kern' Horizontal Kerning lookup 15-4" uni06F7 dx=-30 dy=0 dh=-30 dv=0 dx=0 dy=0 dh=0 dv=0
PairPos2: "'kern' Horizontal Kerning lookup 15-4" uni06F5 dx=-70 dy=0 dh=-70 dv=0 dx=0 dy=0 dh=0 dv=0
EndChar

StartChar: uniFB8F
Encoding: 64399 64399 107
Width: 2022
VWidth: 2551
GlyphClass: 2
Flags: W
AnchorPoint: "Anchor-7" 849.692 -232.794 basechar 0
AnchorPoint: "Anchor-10" 599.382 1353.15 basechar 0
LayerCount: 2
Fore
SplineSet
1259.0827531 15.3837798938 m 2,0,-1
 533.770936866 14.9033199365 l 2,1,2
 323.41302125 14.9504224494 323.41302125 14.9504224494 220.320805251 120.557552396 c 128,-1,3
 117.228589252 226.164682343 117.228589252 226.164682343 117.227539062 441.977612056 c 2,4,-1
 117.226635493 627.66015625 l 1,5,-1
 261.984375 627.66015625 l 1,6,-1
 261.984375107 442.539220212 l 2,7,8
 261.992470375 374.906294645 261.992470375 374.906294645 279.193933314 322.938860709 c 128,-1,9
 296.395396253 270.971426772 296.395396253 270.971426772 331.331841859 235.546509981 c 0,10,11
 400.383526205 165.335540296 400.383526205 165.335540296 536.532941013 165.200202723 c 2,12,-1
 1260.56242941 164.480497498 l 2,13,14
 1520.52047515 163.971542558 1520.52047515 163.971542558 1525.37771938 313.736032243 c 0,15,16
 1526.09591606 335.686132547 1526.09591606 335.686132547 1512.62477969 364.893489385 c 128,-1,17
 1499.15364332 394.100846223 1499.15364332 394.100846223 1474.22450432 428.206609642 c 128,-1,18
 1449.29536531 462.312373061 1449.29536531 462.312373061 1410.10646825 507.005547291 c 2,19,-1
 1089.49746164 872.645549705 l 2,20,21
 1046.02057183 922.590522217 1046.02057183 922.590522217 1046.29941601 998.740416454 c 0,22,23
 1047.08504314 1054.24828952 1047.08504314 1054.24828952 1073.05979341 1089.42951895 c 128,-1,24
 1099.03454369 1124.61074838 1099.03454369 1124.61074838 1152.27049421 1142.14021009 c 2,25,-1
 1757.17773438 1341.32324717 l 1,26,-1
 1757.17773438 1192.75708219 l 1,27,-1
 1199.60923349 1010.62226349 l 1,28,-1
 1196.72544443 1009.67988068 l 1,29,-1
 1175.09766162 1002.61221715 l 1,30,-1
 1190.11707453 985.520403521 l 1,31,-1
 1192.07153478 983.296263971 l 1,32,-1
 1759.21554821 325.009920189 l 2,33,34
 1894.57953882 167.624107697 1894.57953882 167.624107697 2003.89771952 165.483344089 c 2,35,-1
 2027.42497356 165.022612956 l 1,36,37
 2030.91554306 160.302969685 2030.91554306 160.302969685 2033.8308184 142.306247351 c 128,-1,38
 2036.74609375 124.309525018 2036.74609375 124.309525018 2036.74609375 97 c 2,39,-1
 2036.74615913 85.9498518267 l 2,40,41
 2036.761532 28.6666011373 2036.761532 28.6666011373 2027.39068943 15 c 1,42,-1
 2014.12792969 15 l 2,43,44
 1818.66814811 15 1818.66814811 15 1675.91106411 210.50585703 c 2,45,-1
 1673.62493129 213.636716405 l 1,46,-1
 1656.47963319 237.117205822 l 1,47,-1
 1647.28124858 209.536699101 l 1,48,-1
 1646.06633575 205.893753391 l 2,49,50
 1614.34515851 111.550196079 1614.34515851 111.550196079 1518.57332414 63.6180597869 c 128,-1,51
 1422.80148977 15.6859234946 1422.80148977 15.6859234946 1259.0827531 15.3837798938 c 2,0,-1
EndSplineSet
EndChar

StartChar: uniFB95
Encoding: 64405 64405 113
Width: 1086
VWidth: 2186
GlyphClass: 2
Flags: W
AnchorPoint: "Anchor-7" 340 -260 basechar 0
AnchorPoint: "Anchor-10" 281.5 1656.22 basechar 0
LayerCount: 2
Fore
SplineSet
760 1461 m 1054
EndSplineSet
Refer: 272 -1 N 1.07 0 0 1.07 163.84 -399.43 2
Refer: 109 64401 N 1 0 0 1 0 0 2
EndChar

StartChar: uniFB9F
Encoding: 64415 64415 115
Width: 1590
VWidth: 2551
GlyphClass: 2
Flags: W
AnchorPoint: "Anchor-7" 691 -667.5 basechar 0
AnchorPoint: "Anchor-10" 644.402 805.573 basechar 0
LayerCount: 2
Fore
SplineSet
1593.36132812 15 m 1,0,-1
 1557.31738281 15 l 2,1,2
 1394.91601562 15 1394.91601562 15 1316.0859375 106.446289062 c 2,3,-1
 1312.57128906 110.5234375 l 1,4,-1
 1312.57128906 105.140625 l 1,5,-1
 1312.57128906 80.068359375 l 1,6,-1
 1312.57128906 51.8466796875 l 2,7,8
 1312.99804688 -194.086914062 1312.99804688 -194.086914062 1173.45996094 -314.7265625 c 0,9,10
 1034.31933594 -435.940429688 1034.31933594 -435.940429688 748.819335938 -435.940429688 c 2,11,-1
 694.099609375 -435.940429688 l 2,12,13
 207.740234375 -436 207.740234375 -436 132.2265625 -55.4921875 c 0,14,15
 118.151367188 14.4453125 118.151367188 14.4453125 118.12109375 101.282226562 c 2,16,-1
 118.005859375 427.002929688 l 1,17,-1
 264.877929688 427.030273438 l 1,18,-1
 264.877929688 102.443359375 l 2,19,20
 265.000976562 -88.892578125 265.000976562 -88.892578125 374.319335938 -187.041015625 c 0,21,22
 482.83203125 -284.639648438 482.83203125 -284.639648438 696.272460938 -284.639648438 c 2,23,-1
 747.369140625 -284.639648438 l 2,24,25
 959.671875 -285.000976562 959.671875 -285.000976562 1069.32128906 -201.74609375 c 0,26,27
 1179.01269531 -117.979492188 1179.01269531 -117.979492188 1179.16210938 46.1982421875 c 2,28,-1
 1178.82421875 615.827148438 l 1,29,-1
 1325.26757812 615.90234375 l 1,30,-1
 1325.26757812 417.31640625 l 2,31,32
 1324.99804688 293.1953125 1324.99804688 293.1953125 1386.45410156 229.415039062 c 0,33,34
 1448.14648438 165 1448.14648438 165 1566.40722656 165 c 2,35,-1
 1593.84375 165 l 2,36,37
 1595.15917969 162.736328125 1595.15917969 162.736328125 1596.94824219 156.599609375 c 0,38,39
 1597.45800781 154.887695312 1597.45800781 154.887695312 1597.97363281 152.557617188 c 128,-1,40
 1598.48925781 150.2265625 1598.48925781 150.2265625 1599.00683594 147.296875 c 128,-1,41
 1599.5234375 144.368164062 1599.5234375 144.368164062 1600.04296875 140.814453125 c 128,-1,42
 1600.56152344 137.260742188 1600.56152344 137.260742188 1601.06933594 133.159179688 c 0,43,44
 1601.70410156 127.805664062 1601.70410156 127.805664062 1602.12792969 122.006835938 c 128,-1,45
 1602.55175781 116.20703125 1602.55175781 116.20703125 1602.76367188 109.952148438 c 128,-1,46
 1602.9765625 103.697265625 1602.9765625 103.697265625 1602.9765625 97 c 2,47,-1
 1602.9765625 85.9951171875 l 2,48,49
 1602.99902344 27.80859375 1602.99902344 27.80859375 1593.36132812 15 c 1,0,-1
EndSplineSet
EndChar

StartChar: uniFBE8
Encoding: 64488 64488 118
Width: 707
VWidth: 2551
GlyphClass: 2
Flags: W
AnchorPoint: "Anchor-10" 399.938 1218.35 basechar 0
AnchorPoint: "Anchor-7" 417.497 -144.32 basechar 0
LayerCount: 2
Fore
SplineSet
-5.0185546875 15 m 2,0,1
 -23.2099609375 15 -23.2099609375 15 -33.0947265625 30.2568359375 c 0,2,3
 -43.0234375 46.556640625 -43.0234375 46.556640625 -43.0234375 86 c 2,4,-1
 -43.0234375 96.9951171875 l 2,5,6
 -43.0185546875 116.145507812 -43.0185546875 116.145507812 -40.529296875 129.536132812 c 128,-1,7
 -38.041015625 142.927734375 -38.041015625 142.927734375 -33.2421875 150.328125 c 0,8,9
 -23.740234375 164.981445312 -23.740234375 164.981445312 -5.0068359375 165 c 2,10,-1
 227.578125 165.23046875 l 2,11,12
 444.56640625 164.98046875 444.56640625 164.98046875 444.56640625 372.623046875 c 2,13,-1
 444.56640625 651.689453125 l 1,14,-1
 589.322265625 651.689453125 l 1,15,-1
 589.322265625 372.502929688 l 2,16,17
 589.014648438 14.8310546875 589.014648438 14.8310546875 228.693359375 14.93359375 c 2,18,-1
 -5.0185546875 15 l 2,0,1
EndSplineSet
EndChar

StartChar: uniFBE9
Encoding: 64489 64489 119
Width: 857
VWidth: 2551
GlyphClass: 2
Flags: W
AnchorPoint: "Anchor-10" 369.939 1124.45 basechar 0
AnchorPoint: "Anchor-7" 368.812 -149.016 basechar 0
LayerCount: 2
Fore
SplineSet
860.51171875 15 m 1,0,-1
 841.33203125 15 l 2,1,2
 622.08984375 15 622.08984375 15 535.161132812 149.71875 c 2,3,-1
 533.609375 152.123046875 l 1,4,-1
 531.884765625 149.840820312 l 2,5,6
 430.004882812 15 430.004882812 15 176.1484375 15 c 2,7,-1
 -5.0234375 15 l 2,8,9
 -23.8720703125 15 -23.8720703125 15 -33.125 30.3056640625 c 0,10,11
 -43.0234375 46.5986328125 -43.0234375 46.5986328125 -43.0234375 86 c 2,12,-1
 -43.0234375 96.9951171875 l 2,13,14
 -43 135.404296875 -43 135.404296875 -33.2421875 150.35546875 c 0,15,16
 -23.9033203125 165 -23.9033203125 165 -5.0234375 165 c 2,17,-1
 181.162109375 165 l 2,18,19
 451.671875 165 451.671875 165 451.671875 375.358398438 c 2,20,-1
 451.671875 618.372070312 l 1,21,-1
 598.15625 618.372070312 l 1,22,-1
 598.15625 375.39453125 l 2,23,24
 598.103515625 305.3984375 598.103515625 305.3984375 625.133789062 258.599609375 c 128,-1,25
 652.1640625 211.80078125 652.1640625 211.80078125 706.03125 188.400390625 c 128,-1,26
 759.8984375 165 759.8984375 165 840.405273438 165 c 2,27,-1
 860.784179688 165 l 1,28,29
 865.356445312 159.15625 865.356445312 159.15625 867.791992188 142.041015625 c 128,-1,30
 870.2265625 124.92578125 870.2265625 124.92578125 870.2265625 97 c 2,31,-1
 870.2265625 86.0458984375 l 2,32,33
 870.010742188 27.8056640625 870.010742188 27.8056640625 860.51171875 15 c 1,0,-1
EndSplineSet
EndChar

StartChar: uniFE73
Encoding: 65139 65139 127
Width: 683
VWidth: 2551
GlyphClass: 2
Flags: W
AnchorPoint: "Anchor-10" 252.404 1488.29 basechar 0
AnchorPoint: "Anchor-7" 252.404 -144.32 basechar 0
LayerCount: 2
Fore
SplineSet
340.298828125 398.2109375 m 2,0,1
 341.198242188 317.33203125 341.198242188 317.33203125 406.791992188 251.193359375 c 0,2,3
 440.083007812 217.903320312 440.083007812 217.903320312 490.678710938 201.301757812 c 128,-1,4
 541.2734375 184.700195312 541.2734375 184.700195312 609.067382812 184.700195312 c 2,5,-1
 675.61328125 184.700195312 l 1,6,-1
 675.61328125 8.9091796875 l 1,7,-1
 539.997070312 8.9091796875 l 2,8,9
 373.116210938 8.9091796875 373.116210938 8.9091796875 268.813476562 113.212890625 c 128,-1,10
 164.509765625 217.515625 164.509765625 217.515625 164.509765625 383.141601562 c 2,11,-1
 164.509765625 409.498046875 l 1,12,-1
 340.298828125 409.498046875 l 1,13,-1
 340.298828125 398.2109375 l 2,0,1
EndSplineSet
EndChar

StartChar: uniFE8E
Encoding: 65166 65166 153
Width: 557
VWidth: 2551
GlyphClass: 2
Flags: W
AnchorPoint: "Anchor-10" 246.923 1511.04 basechar 0
AnchorPoint: "Anchor-7" 273.009 -246.554 basechar 0
LayerCount: 2
Fore
SplineSet
561.210970461 15 m 1,0,-1
 487.231445312 15 l 2,1,2
 382.348637208 15 382.348637208 15 313.452488315 54.0575608669 c 128,-1,3
 244.556339421 93.1151217338 244.556339421 93.1151217338 210.123872835 173.042475959 c 128,-1,4
 175.69140625 252.969830185 175.69140625 252.969830185 175.69140625 375.251953125 c 2,5,-1
 175.69140625 1318.18847656 l 1,6,-1
 315 1318.18847656 l 1,7,-1
 315 374.139648438 l 2,8,9
 315 272.649025544 315 272.649025544 359.351508372 218.824512772 c 128,-1,10
 403.703016745 165 403.703016745 165 490.014648438 165 c 2,11,-1
 561.607358531 165 l 1,12,13
 570.901367188 152.422781763 570.901367188 152.422781763 570.901367188 97 c 2,14,-1
 570.901404879 85.9644206446 l 2,15,16
 570.995134257 44.1536936575 570.995134257 44.1536936575 565.467670701 25.4507926738 c 0,17,18
 563.516342043 18.3856371891 563.516342043 18.3856371891 561.210970461 15 c 1,0,-1
EndSplineSet
EndChar

StartChar: uniFEA2
Encoding: 65186 65186 173
Width: 1359
VWidth: 2551
GlyphClass: 2
Flags: W
AnchorPoint: "Anchor-7" 471.334 -835.653 basechar 0
AnchorPoint: "Anchor-10" 631.761 1273.94 basechar 0
LayerCount: 2
Fore
SplineSet
932.490234375 479.727539062 m 1,0,-1
 814.174804688 547.93359375 l 2,1,2
 536.299804688 707.583007812 536.299804688 707.583007812 307.130859375 525.50390625 c 2,3,-1
 246.716796875 477.502929688 l 1,4,-1
 151.274414062 584.72265625 l 1,5,-1
 200.776367188 627.291015625 l 2,6,7
 505.05859375 888.366210938 505.05859375 888.366210938 838.154296875 694.500976562 c 2,8,-1
 1027.17480469 584.489257812 l 2,9,10
 1120.9609375 530.072265625 1120.9609375 530.072265625 1199.53320312 510.646484375 c 1,11,-1
 1199.54 357.653320312 l 1,12,13
 1129.75484375 350.665039062 1129.75484375 350.665039062 1074.73632812 340.140625 c 2,14,-1
 1062.52832031 337.751953125 l 1,15,-1
 1060.90039062 337.43359375 l 1,16,-1
 1060.91210938 335.775390625 l 1,17,-1
 1061 323.336914062 l 2,18,19
 1061.28222656 283.4921875 1061.28222656 283.4921875 1077.82714844 253.610351562 c 128,-1,20
 1094.37109375 223.728515625 1094.37109375 223.728515625 1127.05761719 204.079101562 c 128,-1,21
 1159.62890625 184.498046875 1159.62890625 184.498046875 1206.14355469 174.749023438 c 128,-1,22
 1252.65722656 165 1252.65722656 165 1313.16308594 165 c 2,23,-1
 1362.55273438 165 l 1,24,25
 1371.9765625 153.268554688 1371.9765625 153.268554688 1371.9765625 97 c 2,26,-1
 1371.9765625 85.9951171875 l 2,27,28
 1371.984375 56.8916015625 1371.984375 56.8916015625 1369.42089844 38.8447265625 c 128,-1,29
 1366.85742188 20.7978515625 1366.85742188 20.7978515625 1362.37890625 15 c 1,30,-1
 1311.75683594 15 l 2,31,32
 1226.15429688 15 1226.15429688 15 1160.53613281 31.818359375 c 128,-1,33
 1094.91796875 48.6376953125 1094.91796875 48.6376953125 1049.27050781 82.19140625 c 0,34,35
 958.028320312 149.262695312 958.028320312 149.262695312 940.866210938 285.130859375 c 2,36,-1
 938.93359375 300.4296875 l 1,37,-1
 938.67578125 302.469726562 l 1,38,-1
 936.643554688 302.15625 l 1,39,-1
 921.403320312 299.80078125 l 2,40,41
 260.052734375 197.58203125 260.052734375 197.58203125 258.6875 -179.690429688 c 0,42,43
 258.490234375 -219.21484375 258.490234375 -219.21484375 265.302734375 -254.396484375 c 128,-1,44
 272.116210938 -289.578125 272.116210938 -289.578125 285.9609375 -320.432617188 c 128,-1,45
 299.8046875 -351.288085938 299.8046875 -351.288085938 320.66796875 -377.7421875 c 0,46,47
 383.189453125 -457.018554688 383.189453125 -457.018554688 504.528320312 -495.696289062 c 0,48,49
 625.581054688 -534.282226562 625.581054688 -534.282226562 804.486328125 -534.172851562 c 2,50,-1
 1201.33007812 -533.9296875 l 1,51,-1
 1201.33007812 -680.438476562 l 1,52,-1
 792.473632812 -679.58203125 l 2,53,54
 599.881835938 -679.294921875 599.881835938 -679.294921875 464.86328125 -641.392578125 c 0,55,56
 330.0625 -603.552734375 330.0625 -603.552734375 252.8515625 -529.59375 c 0,57,58
 114.103515625 -395.874023438 114.103515625 -395.874023438 117.108398438 -185.842773438 c 0,59,60
 122.837890625 327.340820312 122.837890625 327.340820312 926.52734375 448.189453125 c 2,61,-1
 968.987304688 454.573242188 l 1,62,-1
 974.6484375 455.424804688 l 1,63,-1
 969.688476562 458.284179688 l 1,64,-1
 932.490234375 479.727539062 l 1,0,-1
EndSplineSet
EndChar

StartChar: uniFEA3
Encoding: 65187 65187 174
Width: 1282
VWidth: 2551
GlyphClass: 2
Flags: W
AnchorPoint: "Anchor-10" 470.912 1237.39 basechar 0
AnchorPoint: "Anchor-7" 425.185 -251.728 basechar 0
LayerCount: 2
Fore
SplineSet
-5.0234375 15 m 2,0,1
 -23.5624285164 15 -23.5624285164 15 -33.2929330082 30.7516495598 c 128,-1,2
 -43.0234375 46.5032991196 -43.0234375 46.5032991196 -43.0234375 86 c 2,3,-1
 -43.0234398354 96.9906530977 l 2,4,5
 -43.0024684874 134.572182629 -43.0024684874 134.572182629 -32.2215818506 151.259196209 c 0,6,7
 -23.0012359813 165 -23.0012359813 165 -5.0234375 165 c 2,8,-1
 300 165 l 2,9,10
 512.781049747 165 512.781049747 165 692.861659775 258.926936885 c 2,11,-1
 970.860816892 403.926497286 l 1,12,-1
 974.085426267 405.608137911 l 1,13,-1
 998.272445036 418.221719474 l 1,14,-1
 974.665116889 431.889505488 l 1,15,-1
 971.517505074 433.711858464 l 1,16,-1
 781.523452543 543.708568563 l 2,17,18
 504.570533768 704.163768414 504.570533768 704.163768414 274.424775489 521.309827225 c 2,19,-1
 214.010173632 473.309602769 l 1,20,-1
 118.665066142 580.421263752 l 1,21,-1
 167.976596431 622.018875498 l 2,22,23
 474.170440746 880.361766048 474.170440746 880.361766048 805.500293709 689.277552776 c 2,24,-1
 994.49351888 580.281573809 l 2,25,26
 1041.99793905 552.875654487 1041.99793905 552.875654487 1085.14019616 534.388891396 c 128,-1,27
 1128.28245327 515.902128305 1128.28245327 515.902128305 1166.83 506.429957469 c 1,28,-1
 1166.83 348.14154743 l 1,29,-1
 766.873001217 130.931370637 l 2,30,31
 660.477060624 72.9394104838 660.477060624 72.9394104838 544.349801504 43.9697052419 c 128,-1,32
 428.222542385 15 428.222542385 15 302 15 c 2,33,-1
 -5.0234375 15 l 2,0,1
EndSplineSet
EndChar

StartChar: uniFEA4
Encoding: 65188 65188 175
Width: 1329
VWidth: 2551
GlyphClass: 2
Flags: W
AnchorPoint: "Anchor-7" 425.185 -251.728 basechar 0
AnchorPoint: "Anchor-10" 470.912 1237.39 basechar 0
LayerCount: 2
Fore
SplineSet
883.86559276 194.669427811 m 1,0,-1
 766.873001217 130.931370637 l 2,1,2
 660.477060624 72.9394104838 660.477060624 72.9394104838 544.349801504 43.9697052419 c 128,-1,3
 428.222542385 15 428.222542385 15 302 15 c 2,4,-1
 -5.0234375 15 l 2,5,6
 -23.5624285164 15 -23.5624285164 15 -33.2929330082 30.7516495598 c 128,-1,7
 -43.0234375 46.5032991196 -43.0234375 46.5032991196 -43.0234375 86 c 2,8,-1
 -43.0234398354 96.9906530977 l 2,9,10
 -43.0024684874 134.572182629 -43.0024684874 134.572182629 -32.2215818506 151.259196209 c 0,11,12
 -23.0012359813 165 -23.0012359813 165 -5.0234375 165 c 2,13,-1
 300 165 l 2,14,15
 512.781049747 165 512.781049747 165 692.861659775 258.926936885 c 2,16,-1
 970.860816892 403.926497286 l 1,17,-1
 974.085426267 405.608137911 l 1,18,-1
 998.272445036 418.221719474 l 1,19,-1
 974.665116889 431.889505488 l 1,20,-1
 971.517505074 433.711858464 l 1,21,-1
 781.523452543 543.708568563 l 2,22,23
 504.570533768 704.163768414 504.570533768 704.163768414 274.424775489 521.309827225 c 2,24,-1
 214.010173632 473.309602769 l 1,25,-1
 118.665066142 580.421263752 l 1,26,-1
 167.976596431 622.018875498 l 2,27,28
 474.171601341 880.362745269 474.171601341 880.362745269 805.500245193 689.277580756 c 2,29,-1
 994.485316043 580.285378669 l 2,30,31
 1088.25151665 526.045636429 1088.25151665 526.045636429 1166.82757432 506.501106684 c 1,32,-1
 1166.83 348.141519938 l 1,33,-1
 1020.86755259 269.309167381 l 1,34,-1
 1018.54235728 268.042565819 l 1,35,-1
 1001.09881798 258.540562262 l 1,36,-1
 1015.01205114 244.363571124 l 1,37,-1
 1016.85223719 242.488519919 l 2,38,39
 1054.68629773 203.832002284 1054.68629773 203.832002284 1104.0353498 184.416001142 c 128,-1,40
 1153.38440186 165 1153.38440186 165 1213.06835938 165 c 2,41,-1
 1332.68255384 165 l 1,42,43
 1336.14353862 160.316384735 1336.14353862 160.316384735 1339.06005056 142.295860859 c 128,-1,44
 1341.9765625 124.275336982 1341.9765625 124.275336982 1341.9765625 97 c 2,45,-1
 1341.97656473 85.9908473809 l 2,46,47
 1341.99887614 45.0577727364 1341.99887614 45.0577727364 1336.47543981 25.3464423778 c 0,48,49
 1334.5426201 18.3914756345 1334.5426201 18.3914756345 1332.23688318 15 c 2,50,-1
 1216.07324219 15 l 2,51,52
 1006.82010429 15 1006.82010429 15 906.719349101 188.247453181 c 2,53,-1
 905.743763164 189.935929743 l 1,54,-1
 898.424056257 202.604371427 l 1,55,-1
 885.57728663 195.602369281 l 1,56,-1
 883.86559276 194.669427811 l 1,0,-1
EndSplineSet
EndChar

StartChar: uniFEAA
Encoding: 65194 65194 181
Width: 1204
VWidth: 2551
GlyphClass: 2
Flags: W
AnchorPoint: "Anchor-7" 428.382 -244.53 basechar 0
AnchorPoint: "Anchor-10" 403.659 1298.16 basechar 0
LayerCount: 2
Fore
SplineSet
1207.37890625 15 m 1,0,-1
 1193.35644531 15 l 2,1,2
 1103.6953125 15 1103.6953125 15 1026.25585938 56.064453125 c 128,-1,3
 948.745117188 97.16796875 948.745117188 97.16796875 882.297851562 180.591796875 c 2,4,-1
 865.859375 201.228515625 l 1,5,-1
 863.66796875 203.98046875 l 1,6,-1
 862.424804688 200.689453125 l 1,7,-1
 853.09765625 176.009765625 l 2,8,9
 792.250976562 15 792.250976562 15 482.64453125 15 c 2,10,-1
 118.899414062 15 l 1,11,-1
 118.899414062 165 l 1,12,-1
 469.596679688 165 l 2,13,14
 488.469726562 165 488.469726562 165 506.005859375 165.631835938 c 0,15,16
 748.290039062 174.361328125 748.290039062 174.361328125 743.5 305.592773438 c 0,17,18
 742.955078125 321.217773438 742.955078125 321.217773438 738.344726562 338.513671875 c 128,-1,19
 733.733398438 355.80859375 733.733398438 355.80859375 725.091796875 374.725585938 c 128,-1,20
 716.44921875 393.641601562 716.44921875 393.641601562 703.75 414.260742188 c 128,-1,21
 691.05078125 434.879882812 691.05078125 434.879882812 674.372070312 457.1171875 c 128,-1,22
 657.693359375 479.354492188 657.693359375 479.354492188 636.965820312 503.326171875 c 2,23,-1
 372.502929688 809.189453125 l 1,24,-1
 474.978515625 921.393554688 l 1,25,-1
 999.921875 289.138671875 l 2,26,27
 1051.38964844 227.16796875 1051.38964844 227.16796875 1101.49511719 196.083984375 c 128,-1,28
 1151.6015625 165 1151.6015625 165 1200.41015625 165 c 2,29,-1
 1207.55273438 165 l 1,30,31
 1212.10253906 159.3359375 1212.10253906 159.3359375 1214.54003906 142.205078125 c 128,-1,32
 1216.9765625 125.075195312 1216.9765625 125.075195312 1216.9765625 97 c 2,33,-1
 1216.9765625 85.9951171875 l 2,34,35
 1216.984375 56.8916015625 1216.984375 56.8916015625 1214.42089844 38.8447265625 c 128,-1,36
 1211.85742188 20.7978515625 1211.85742188 20.7978515625 1207.37890625 15 c 1,0,-1
EndSplineSet
EndChar

StartChar: uniFEAE
Encoding: 65198 65198 185
Width: 883
VWidth: 2551
GlyphClass: 2
Flags: W
AnchorPoint: "Anchor-10" 450.527 953.269 basechar 0
AnchorPoint: "Anchor-7" 297.433 -669.366 basechar 0
LayerCount: 2
Fore
SplineSet
896.022460938 86.0048828125 m 6,0,1
 896.022460938 28.0303830918 896.022460938 28.0303830918 886.389648438 15 c 5,2,-1
 871.923828125 15 l 6,3,4
 717 15 717 15 643.43359375 110.537109375 c 5,5,-1
 643.3828125 66.0205078125 l 6,6,7
 643 -193 643 -193 507.810546875 -320.370117188 c 4,8,9
 373.412721722 -447.60926184 373.412721722 -447.60926184 95.365234375 -447.412109375 c 6,10,-1
 38.8974609375 -447.372070312 l 5,11,-1
 38.900390625 -298.213867188 l 5,12,-1
 90.5498046875 -298.265625 l 5,13,14
 498.584960937 -297.07400292 498.584960937 -297.07400292 498.584960938 69.4990234375 c 6,15,-1
 498.584960938 589.727539062 l 5,16,-1
 642.209960938 590.579101562 l 5,17,-1
 642.209960938 383.18359375 l 6,18,19
 642 255 642 255 724.32381575 202 c 4,20,21
 781 165 781 165 871.923828125 165 c 6,22,-1
 886.590820312 165 l 5,23,24
 896.022460938 152.971354436 896.022460938 152.971354436 896.022460938 97 c 6,25,-1
 896.022460938 86.0048828125 l 6,0,1
EndSplineSet
PairPos2: "'kern' Horizontal Kerning lookup 15-2" uniFBFE dx=60 dy=0 dh=60 dv=0 dx=0 dy=0 dh=0 dv=0
PairPos2: "'kern' Horizontal Kerning lookup 15-2" uniFEF3 dx=60 dy=0 dh=60 dv=0 dx=0 dy=0 dh=0 dv=0
PairPos2: "'kern' Horizontal Kerning lookup 15-1" uniFEFB dx=-100 dy=0 dh=-100 dv=0 dx=0 dy=0 dh=0 dv=0
PairPos2: "'kern' Horizontal Kerning lookup 15-1" uniFEDF dx=-100 dy=0 dh=-100 dv=0 dx=0 dy=0 dh=0 dv=0
PairPos2: "'kern' Horizontal Kerning lookup 15-1" uni062F dx=-100 dy=0 dh=-100 dv=0 dx=0 dy=0 dh=0 dv=0
PairPos2: "'kern' Horizontal Kerning lookup 15-2" uniFB90 dx=-142 dy=0 dh=-142 dv=0 dx=0 dy=0 dh=0 dv=0
PairPos2: "'kern' Horizontal Kerning lookup 15-2" uniFB8E dx=-142 dy=0 dh=-142 dv=0 dx=0 dy=0 dh=0 dv=0
PairPos2: "'kern' Horizontal Kerning lookup 15-2" uni06A9 dx=-142 dy=0 dh=-142 dv=0 dx=0 dy=0 dh=0 dv=0
PairPos2: "'kern' Horizontal Kerning lookup 15-2" uniFEEB dx=-100 dy=0 dh=-100 dv=0 dx=0 dy=0 dh=0 dv=0
PairPos2: "'kern' Horizontal Kerning lookup 15-2" uni0647 dx=-100 dy=0 dh=-100 dv=0 dx=0 dy=0 dh=0 dv=0
PairPos2: "'kern' Horizontal Kerning lookup 15-2" uniFEE7 dx=-100 dy=0 dh=-100 dv=0 dx=0 dy=0 dh=0 dv=0
PairPos2: "'kern' Horizontal Kerning lookup 15-2" uniFEE3 dx=-100 dy=0 dh=-100 dv=0 dx=0 dy=0 dh=0 dv=0
PairPos2: "'kern' Horizontal Kerning lookup 15-2" uni0645 dx=-100 dy=0 dh=-100 dv=0 dx=0 dy=0 dh=0 dv=0
PairPos2: "'kern' Horizontal Kerning lookup 15-2" uniFEDB dx=-142 dy=0 dh=-142 dv=0 dx=0 dy=0 dh=0 dv=0
PairPos2: "'kern' Horizontal Kerning lookup 15-2" uni0643 dx=-100 dy=0 dh=-100 dv=0 dx=0 dy=0 dh=0 dv=0
PairPos2: "'kern' Horizontal Kerning lookup 15-2" uniFED7 dx=-100 dy=0 dh=-100 dv=0 dx=0 dy=0 dh=0 dv=0
PairPos2: "'kern' Horizontal Kerning lookup 15-2" uniFED3 dx=-100 dy=0 dh=-100 dv=0 dx=0 dy=0 dh=0 dv=0
PairPos2: "'kern' Horizontal Kerning lookup 15-2" uni0641 dx=-100 dy=0 dh=-100 dv=0 dx=0 dy=0 dh=0 dv=0
PairPos2: "'kern' Horizontal Kerning lookup 15-2" uniFECF dx=-100 dy=0 dh=-100 dv=0 dx=0 dy=0 dh=0 dv=0
PairPos2: "'kern' Horizontal Kerning lookup 15-2" uniFECB dx=-100 dy=0 dh=-100 dv=0 dx=0 dy=0 dh=0 dv=0
PairPos2: "'kern' Horizontal Kerning lookup 15-2" uniFEC7 dx=-100 dy=0 dh=-100 dv=0 dx=0 dy=0 dh=0 dv=0
PairPos2: "'kern' Horizontal Kerning lookup 15-2" uni0638 dx=-100 dy=0 dh=-100 dv=0 dx=0 dy=0 dh=0 dv=0
PairPos2: "'kern' Horizontal Kerning lookup 15-2" uniFEC3 dx=-100 dy=0 dh=-100 dv=0 dx=0 dy=0 dh=0 dv=0
PairPos2: "'kern' Horizontal Kerning lookup 15-2" uni0637 dx=-100 dy=0 dh=-100 dv=0 dx=0 dy=0 dh=0 dv=0
PairPos2: "'kern' Horizontal Kerning lookup 15-2" uniFEBF dx=-100 dy=0 dh=-100 dv=0 dx=0 dy=0 dh=0 dv=0
PairPos2: "'kern' Horizontal Kerning lookup 15-2" uni0636 dx=-100 dy=0 dh=-100 dv=0 dx=0 dy=0 dh=0 dv=0
PairPos2: "'kern' Horizontal Kerning lookup 15-2" uniFEBB dx=-100 dy=0 dh=-100 dv=0 dx=0 dy=0 dh=0 dv=0
PairPos2: "'kern' Horizontal Kerning lookup 15-2" uni0635 dx=-100 dy=0 dh=-100 dv=0 dx=0 dy=0 dh=0 dv=0
PairPos2: "'kern' Horizontal Kerning lookup 15-2" uniFEB7 dx=-100 dy=0 dh=-100 dv=0 dx=0 dy=0 dh=0 dv=0
PairPos2: "'kern' Horizontal Kerning lookup 15-2" uni0634 dx=-100 dy=0 dh=-100 dv=0 dx=0 dy=0 dh=0 dv=0
PairPos2: "'kern' Horizontal Kerning lookup 15-2" uniFEB3 dx=-100 dy=0 dh=-100 dv=0 dx=0 dy=0 dh=0 dv=0
PairPos2: "'kern' Horizontal Kerning lookup 15-2" uni0633 dx=-100 dy=0 dh=-100 dv=0 dx=0 dy=0 dh=0 dv=0
PairPos2: "'kern' Horizontal Kerning lookup 15-2" uniFEA7 dx=-100 dy=0 dh=-100 dv=0 dx=0 dy=0 dh=0 dv=0
PairPos2: "'kern' Horizontal Kerning lookup 15-2" uniFEA3 dx=-100 dy=0 dh=-100 dv=0 dx=0 dy=0 dh=0 dv=0
PairPos2: "'kern' Horizontal Kerning lookup 15-2" uniFE9F dx=-100 dy=0 dh=-100 dv=0 dx=0 dy=0 dh=0 dv=0
PairPos2: "'kern' Horizontal Kerning lookup 15-2" uniFE9B dx=-100 dy=0 dh=-100 dv=0 dx=0 dy=0 dh=0 dv=0
PairPos2: "'kern' Horizontal Kerning lookup 15-2" uni062B dx=-100 dy=0 dh=-100 dv=0 dx=0 dy=0 dh=0 dv=0
PairPos2: "'kern' Horizontal Kerning lookup 15-2" uniFE97 dx=-100 dy=0 dh=-100 dv=0 dx=0 dy=0 dh=0 dv=0
PairPos2: "'kern' Horizontal Kerning lookup 15-2" uni062A dx=-100 dy=0 dh=-100 dv=0 dx=0 dy=0 dh=0 dv=0
PairPos2: "'kern' Horizontal Kerning lookup 15-2" uni0629 dx=-100 dy=0 dh=-100 dv=0 dx=0 dy=0 dh=0 dv=0
PairPos2: "'kern' Horizontal Kerning lookup 15-2" uniFE91 dx=-47 dy=0 dh=-47 dv=0 dx=0 dy=0 dh=0 dv=0
PairPos2: "'kern' Horizontal Kerning lookup 15-2" uni0628 dx=-100 dy=0 dh=-100 dv=0 dx=0 dy=0 dh=0 dv=0
PairPos2: "'kern' Horizontal Kerning lookup 15-2" uni0627 dx=-160 dy=0 dh=-160 dv=0 dx=0 dy=0 dh=0 dv=0
PairPos2: "'kern' Horizontal Kerning lookup 15-2" uni0622 dx=-160 dy=0 dh=-160 dv=0 dx=0 dy=0 dh=0 dv=0
PairPos2: "'kern' Horizontal Kerning lookup 15-2" uni0621 dx=-100 dy=0 dh=-100 dv=0 dx=0 dy=0 dh=0 dv=0
PairPos2: "'kern' Horizontal Kerning lookup 15-2" uniFB94 dx=-142 dy=0 dh=-142 dv=0 dx=0 dy=0 dh=0 dv=0
PairPos2: "'kern' Horizontal Kerning lookup 15-2" uniFB92 dx=-142 dy=0 dh=-142 dv=0 dx=0 dy=0 dh=0 dv=0
PairPos2: "'kern' Horizontal Kerning lookup 15-2" afii57509 dx=-142 dy=0 dh=-142 dv=0 dx=0 dy=0 dh=0 dv=0
PairPos2: "'kern' Horizontal Kerning lookup 15-2" uniFB7C dx=-100 dy=0 dh=-100 dv=0 dx=0 dy=0 dh=0 dv=0
PairPos2: "'kern' Horizontal Kerning lookup 15-2" afii57506 dx=-100 dy=0 dh=-100 dv=0 dx=0 dy=0 dh=0 dv=0
PairPos2: "'kern' Horizontal Kerning lookup 15-2" afii57440 dx=-100 dy=0 dh=-100 dv=0 dx=0 dy=0 dh=0 dv=0
EndChar

StartChar: uniFEB2
Encoding: 65202 65202 189
Width: 2632
VWidth: 2551
GlyphClass: 2
Flags: W
AnchorPoint: "Anchor-10" 1778.4 1063.57 basechar 0
AnchorPoint: "Anchor-7" 691 -667.5 basechar 0
LayerCount: 2
Fore
SplineSet
1864.80957031 373.534179688 m 2,0,1
 1865.88769531 166.0234375 1865.88769531 166.0234375 2048.26660156 163.966796875 c 0,2,3
 2227.88183594 161.979492188 2227.88183594 161.979492188 2227.66210938 372.692382812 c 2,4,-1
 2227.40527344 618.62109375 l 1,5,-1
 2370.5703125 618.62109375 l 1,6,-1
 2371.53027344 375.418945312 l 2,7,8
 2372.77539062 270.38671875 2372.77539062 270.38671875 2432.54394531 217.66015625 c 128,-1,9
 2492.31347656 164.93359375 2492.31347656 164.93359375 2609.88574219 164.93359375 c 2,10,-1
 2636.16113281 164.93359375 l 1,11,-1
 2638.12304688 159.772460938 l 1,12,-1
 2641.46386719 146.721679688 l 2,13,14
 2641.97949219 144.06640625 2641.97949219 144.06640625 2642.45703125 140.830078125 c 128,-1,15
 2642.93457031 137.59375 2642.93457031 137.59375 2643.37597656 133.755859375 c 128,-1,16
 2643.81738281 129.918945312 2643.81738281 129.918945312 2644.22070312 125.493164062 c 0,17,18
 2644.40917969 118.852539062 2644.40917969 118.852539062 2644.58691406 113.411132812 c 128,-1,19
 2644.76464844 107.970703125 2644.76464844 107.970703125 2644.90332031 104.5 c 128,-1,20
 2645.04199219 101.029296875 2645.04199219 101.029296875 2645.1484375 99.04296875 c 128,-1,21
 2645.25390625 97.0576171875 2645.25390625 97.0576171875 2645.31738281 96.728515625 c 2,22,-1
 2645.31738281 85.998046875 l 2,23,24
 2645.01464844 27.7998046875 2645.01464844 27.7998046875 2635.56347656 14.93359375 c 1,25,-1
 2617.31835938 14.93359375 l 2,26,27
 2573.99511719 14.947265625 2573.99511719 14.947265625 2535.6015625 20.658203125 c 128,-1,28
 2497.20800781 26.369140625 2497.20800781 26.369140625 2463.75683594 37.765625 c 128,-1,29
 2430.30566406 49.1630859375 2430.30566406 49.1630859375 2401.75097656 66.255859375 c 128,-1,30
 2373.19628906 83.3486328125 2373.19628906 83.3486328125 2349.54980469 106.108398438 c 128,-1,31
 2325.90429688 128.868164062 2325.90429688 128.868164062 2307.12011719 157.321289062 c 2,32,-1
 2305.11230469 160.36328125 l 1,33,-1
 2303.625 157.036132812 l 2,34,35
 2238.4765625 14.57421875 2238.4765625 14.57421875 2056.42871094 13.93359375 c 0,36,37
 1875.22851562 14 1875.22851562 14 1800.16601562 162.158203125 c 2,38,-1
 1798.31835938 165.8046875 l 1,39,-1
 1796.57324219 162.107421875 l 2,40,41
 1725.73828125 12.0126953125 1725.73828125 12.0126953125 1533.50683594 13.9326171875 c 0,42,43
 1405.86132812 14.9931640625 1405.86132812 14.9931640625 1316.015625 108.858398438 c 2,44,-1
 1312.57128906 112.45703125 l 1,45,-1
 1312.57128906 107.475585938 l 1,46,-1
 1312.57128906 80.068359375 l 1,47,-1
 1312.57128906 51.8466796875 l 2,48,49
 1312.78515625 -71.232421875 1312.78515625 -71.232421875 1277.99707031 -162.828125 c 128,-1,50
 1243.20898438 -254.423828125 1243.20898438 -254.423828125 1173.45996094 -314.7265625 c 0,51,52
 1034.31933594 -435.940429688 1034.31933594 -435.940429688 748.819335938 -435.940429688 c 2,53,-1
 694.099609375 -435.940429688 l 2,54,55
 403.788085938 -436 403.788085938 -436 260.813476562 -302.63671875 c 0,56,57
 189.549804688 -236.017578125 189.549804688 -236.017578125 153.859375 -135.073242188 c 128,-1,58
 118.168945312 -34.12890625 118.168945312 -34.12890625 118.12109375 101.282226562 c 2,59,-1
 118.005859375 427.002929688 l 1,60,-1
 264.877929688 427.030273438 l 1,61,-1
 264.877929688 102.443359375 l 2,62,63
 265.000976562 -88.892578125 265.000976562 -88.892578125 374.319335938 -187.041015625 c 0,64,65
 482.83203125 -284.639648438 482.83203125 -284.639648438 696.272460938 -284.639648438 c 2,66,-1
 747.369140625 -284.639648438 l 2,67,68
 959.671875 -285.000976562 959.671875 -285.000976562 1069.3203125 -201.74609375 c 0,69,70
 1179.01269531 -117.979492188 1179.01269531 -117.979492188 1179.16210938 46.1982421875 c 2,71,-1
 1178.82421875 615.827148438 l 1,72,-1
 1325.26757812 615.90234375 l 1,73,-1
 1325.26757812 397.315429688 l 2,74,75
 1325.17871094 320.520507812 1325.17871094 320.520507812 1348.36523438 268.879882812 c 128,-1,76
 1371.55078125 217.239257812 1371.55078125 217.239257812 1417.97851562 190.950195312 c 128,-1,77
 1464.40625 164.662109375 1464.40625 164.662109375 1533.87597656 163.93359375 c 0,78,79
 1570.42871094 163.543945312 1570.42871094 163.543945312 1599.76171875 171.673828125 c 128,-1,80
 1629.09472656 179.8046875 1629.09472656 179.8046875 1651.11230469 196.405273438 c 128,-1,81
 1673.13085938 213.004882812 1673.13085938 213.004882812 1687.88085938 238.029296875 c 128,-1,82
 1702.63085938 263.053710938 1702.63085938 263.053710938 1710.06445312 296.469726562 c 128,-1,83
 1717.49804688 329.885742188 1717.49804688 329.885742188 1717.61328125 371.62890625 c 2,84,-1
 1718.29394531 617.62109375 l 1,85,-1
 1863.54199219 617.62109375 l 1,86,-1
 1864.80957031 373.534179688 l 2,0,1
EndSplineSet
EndChar

StartChar: uniFEB3
Encoding: 65203 65203 190
Width: 1643
VWidth: 2551
GlyphClass: 2
Flags: W
AnchorPoint: "Anchor-10" 804.679 1111.53 basechar 0
AnchorPoint: "Anchor-7" 934.307 -329.179 basechar 0
LayerCount: 2
Fore
SplineSet
1023.34570312 374.600585938 m 2,0,1
 1023.88378906 271.141601562 1023.88378906 271.141601562 1072.3828125 218.57421875 c 128,-1,2
 1120.8828125 166.005859375 1120.8828125 166.005859375 1216.86816406 165.000976562 c 0,3,4
 1300.00878906 163.987304688 1300.00878906 163.987304688 1339.28808594 217.969726562 c 0,5,6
 1380.484375 276.045898438 1380.484375 276.045898438 1380.484375 370.9921875 c 2,7,-1
 1380.484375 651.362304688 l 1,8,-1
 1525.2421875 651.362304688 l 1,9,-1
 1525.2421875 363.041992188 l 2,10,11
 1525.00195312 186.158203125 1525.00195312 186.158203125 1450.77636719 100.384765625 c 0,12,13
 1375.70800781 15 1375.70800781 15 1224.95898438 15 c 0,14,15
 1035.20703125 15 1035.20703125 15 958.395507812 160.889648438 c 2,16,-1
 956.518554688 164.455078125 l 1,17,-1
 954.813476562 160.8046875 l 2,18,19
 886.7265625 15 886.7265625 15 681.8984375 15 c 0,20,21
 495.202148438 15 495.202148438 15 419.182617188 158.178710938 c 2,22,-1
 417.53125 161.290039062 l 1,23,-1
 415.706054688 158.27734375 l 2,24,25
 328.873046875 15 328.873046875 15 88.82421875 15 c 2,26,-1
 -5.0234375 15 l 2,27,28
 -23.8720703125 15 -23.8720703125 15 -33.125 30.3056640625 c 0,29,30
 -43.0234375 46.5986328125 -43.0234375 46.5986328125 -43.0234375 86 c 2,31,-1
 -43.0234375 96.9951171875 l 2,32,33
 -43 135.404296875 -43 135.404296875 -33.2421875 150.35546875 c 0,34,35
 -23.9033203125 165 -23.9033203125 165 -5.0234375 165 c 2,36,-1
 89.7529296875 165 l 2,37,38
 209.723632812 165 209.723632812 165 273.182617188 217.833984375 c 128,-1,39
 336.680664062 270.797851562 336.680664062 270.797851562 336.87890625 373.948242188 c 2,40,-1
 337.348632812 618.6875 l 1,41,-1
 483.526367188 618.6875 l 1,42,-1
 484.108398438 372.102539062 l 2,43,44
 485.008789062 166.009765625 485.008789062 166.009765625 682.421875 165 c 0,45,46
 875.571289062 163.9921875 875.571289062 163.9921875 876.149414062 372.6953125 c 2,47,-1
 876.830078125 618.6875 l 1,48,-1
 1022.078125 618.6875 l 1,49,-1
 1023.34570312 374.600585938 l 2,0,1
EndSplineSet
EndChar

StartChar: uniFEB4
Encoding: 65204 65204 191
Width: 1791
VWidth: 2546
GlyphClass: 2
Flags: W
AnchorPoint: "Anchor-10" 880.65 1105.67 basechar 0
LayerCount: 2
Fore
SplineSet
1531.01757812 375.481445312 m 2,0,1
 1531.84863281 165 1531.84863281 165 1769.37304688 165 c 2,2,-1
 1795.38476562 165 l 1,3,4
 1804.8046875 153.340820312 1804.8046875 153.340820312 1804.8046875 97 c 2,5,-1
 1804.8046875 85.9599609375 l 2,6,7
 1804.99121094 28.7578125 1804.99121094 28.7578125 1795.21386719 15 c 1,8,-1
 1776.80078125 15 l 2,9,10
 1668.30078125 15 1668.30078125 15 1590.828125 50.6220703125 c 128,-1,11
 1513.35546875 86.244140625 1513.35546875 86.244140625 1466.63671875 157.478515625 c 2,12,-1
 1464.62890625 160.540039062 l 1,13,-1
 1463.13769531 157.196289062 l 2,14,15
 1399.70214844 15 1399.70214844 15 1208.8984375 15 c 0,16,17
 1033.21582031 15 1033.21582031 15 958.375976562 159.216796875 c 2,18,-1
 956.614257812 162.611328125 l 1,19,-1
 954.831054688 159.228515625 l 2,20,21
 878.793945312 15 878.793945312 15 681.8984375 15 c 0,22,23
 495.20703125 15 495.20703125 15 419.1875 159.337890625 c 2,24,-1
 417.533203125 162.479492188 l 1,25,-1
 415.704101562 159.436523438 l 2,26,27
 328.869140625 15 328.869140625 15 88.82421875 15 c 2,28,-1
 -5.0234375 15 l 2,29,30
 -23.8720703125 15 -23.8720703125 15 -33.125 30.3056640625 c 0,31,32
 -43.0234375 46.5986328125 -43.0234375 46.5986328125 -43.0234375 86 c 2,33,-1
 -43.0234375 96.9951171875 l 2,34,35
 -43 135.404296875 -43 135.404296875 -33.2421875 150.35546875 c 0,36,37
 -23.9033203125 165 -23.9033203125 165 -5.0234375 165 c 2,38,-1
 89.7529296875 165 l 2,39,40
 336.477539062 165 336.477539062 165 336.87890625 373.948242188 c 2,41,-1
 337.348632812 618.6875 l 1,42,-1
 483.526367188 618.6875 l 1,43,-1
 484.108398438 372.102539062 l 2,44,45
 485.008789062 167.020507812 485.008789062 167.020507812 682.412109375 165 c 0,46,47
 876.473632812 162.973632812 876.473632812 162.973632812 876.87890625 373.948242188 c 2,48,-1
 877.348632812 618.6875 l 1,49,-1
 1023.52636719 618.6875 l 1,50,-1
 1024.10839844 372.102539062 l 2,51,52
 1025.00390625 166.044921875 1025.00390625 166.044921875 1209.41308594 165 c 0,53,54
 1387.3671875 163.986328125 1387.3671875 163.986328125 1387.14941406 372.758789062 c 2,55,-1
 1386.89257812 618.6875 l 1,56,-1
 1530.05761719 618.6875 l 1,57,-1
 1531.01757812 375.481445312 l 2,0,1
EndSplineSet
EndChar

StartChar: uniFEBA
Encoding: 65210 65210 197
Width: 2583
VWidth: 2551
GlyphClass: 2
Flags: W
AnchorPoint: "Anchor-7" 691 -667.5 basechar 0
AnchorPoint: "Anchor-10" 2006.4 1267.57 basechar 0
LayerCount: 2
Fore
SplineSet
1961.43945312 15 m 2,0,-1
 1616 15 l 2,1,2
 1391.31272711 15 1391.31272711 15 1343.89719893 89.2214736035 c 2,3,-1
 1340.21165205 94.990028291 l 1,4,-1
 1312.57128906 138.252249856 l 1,5,-1
 1312.57128906 86.9140625 l 1,6,-1
 1312.57128906 80.068359375 l 1,7,-1
 1312.57129447 51.8485967358 l 2,8,9
 1312.77955913 -193.526732948 1312.77955913 -193.526732948 1173.27421864 -314.733581318 c 128,-1,10
 1033.76887816 -435.940429688 1033.76887816 -435.940429688 748.819335938 -435.940429688 c 2,11,-1
 694.100050013 -435.940429764 l 2,12,13
 207.530092088 -435.989491803 207.530092088 -435.989491803 132.314204758 -55.8013457179 c 0,14,15
 118.240358345 16.4185709444 118.240358345 16.4185709444 118.121092818 101.282631798 c 2,16,-1
 118.00626455 427.00281651 l 1,17,-1
 264.877929688 427.030387079 l 1,18,-1
 264.877930508 102.443281792 l 2,19,20
 264.941393588 -89.4660513208 264.941393588 -89.4660513208 374.156429728 -187.052849879 c 128,-1,21
 483.371465868 -284.639648437 483.371465868 -284.639648437 696.272460938 -284.639648438 c 2,22,-1
 747.370755456 -284.639642775 l 2,23,24
 959.962800596 -284.824365577 959.962800596 -284.824365577 1069.61133343 -201.653269283 c 128,-1,25
 1179.25986627 -118.482172989 1179.25986627 -118.482172989 1179.16210673 46.5674942186 c 2,26,-1
 1178.82432822 615.827059064 l 1,27,-1
 1325.26757812 615.90243373 l 1,28,-1
 1325.2675939 417.319604377 l 2,29,30
 1324.9810457 219.725932393 1324.9810457 219.725932393 1434.06034133 192.505448611 c 2,31,-1
 1435.74393508 192.085526736 l 1,32,-1
 1448.37028086 188.936264156 l 1,33,-1
 1453.27010196 200.99172831 l 1,34,-1
 1453.92369628 202.599824391 l 2,35,36
 1680.44458891 760.006783841 1680.44458891 760.006783841 2017.65834357 760.200202329 c 0,37,38
 2218.07963494 760.006354911 2218.07963494 760.006354911 2317.48631839 625.02700787 c 0,39,40
 2397.06720062 516.965965009 2397.06720062 516.965965009 2397.73743277 354.599144136 c 0,41,42
 2397.98784036 294.006114333 2397.98784036 294.006114333 2378.46370914 241.088189366 c 2,43,-1
 2378.04183414 239.945611241 l 1,44,-1
 2374.87682102 231.373700702 l 1,45,-1
 2381.04199298 224.629398438 l 1,46,-1
 2381.8586625 223.736016739 l 2,47,48
 2409.1966545 193.802577017 2409.1966545 193.802577017 2456.45243372 179.233269223 c 0,49,50
 2479.42197675 172.151071067 2479.42197675 172.151071067 2506.83533982 168.67563319 c 128,-1,51
 2534.24870289 165.200195312 2534.24870289 165.200195312 2566.29296875 165.200195312 c 2,52,-1
 2587.63474641 165.200195312 l 1,53,54
 2597.15136719 152.349591518 2597.15136719 152.349591518 2597.15136719 94.2001953125 c 2,55,-1
 2597.15139065 83.2306341282 l 2,56,57
 2597.08096111 43.4138463689 2597.08096111 43.4138463689 2591.63155697 24.8464832617 c 0,58,59
 2589.62803722 18.0203576495 2589.62803722 18.0203576495 2587.43643558 15 c 2,60,-1
 2560.16699219 15 l 2,61,62
 2465.90241213 15 2465.90241213 15 2398.97608047 36.2475604623 c 128,-1,63
 2332.0497488 57.4951209247 2332.0497488 57.4951209247 2291.83057504 99.026366712 c 2,64,-1
 2290.57666879 100.321288587 l 1,65,-1
 2281.17173447 110.033860949 l 1,66,-1
 2270.53776482 101.684876516 l 1,67,-1
 2269.12004406 100.571789962 l 2,68,69
 2160.1238897 15 2160.1238897 15 1961.43945312 15 c 2,0,-1
2007.29679165 607.213876864 m 0,70,71
 1995.24165033 607.200882626 1995.24165033 607.200882626 1983.24985776 605.82168136 c 128,-1,72
 1971.25806519 604.442480094 1971.25806519 604.442480094 1959.42894702 601.725571421 c 128,-1,73
 1947.59982885 599.008662747 1947.59982885 599.008662747 1935.84063226 594.951354831 c 128,-1,74
 1924.08143567 590.894046914 1924.08143567 590.894046914 1912.48709381 585.542201677 c 128,-1,75
 1900.89275194 580.190356439 1900.89275194 580.190356439 1889.37519731 573.522762256 c 128,-1,76
 1877.85764268 566.855168074 1877.85764268 566.855168074 1866.5071231 558.936206656 c 128,-1,77
 1855.15660351 551.017245239 1855.15660351 551.017245239 1843.88973683 541.807185174 c 128,-1,78
 1832.62287014 532.597125109 1832.62287014 532.597125109 1821.52521881 522.178867896 c 128,-1,79
 1810.42756749 511.760610683 1810.42756749 511.760610683 1799.42014189 500.077062607 c 0,80,81
 1701.31395789 395.945838211 1701.31395789 395.945838211 1607.697728 189.551318717 c 2,82,-1
 1606.41452487 186.723193717 l 1,83,-1
 1596.78981502 165.510743379 l 1,84,-1
 1620.08365271 165.525393592 l 1,85,-1
 1623.18806949 165.527346092 l 1,86,-1
 1981.46692435 165.727564218 l 2,87,88
 2136.32043277 166.011165717 2136.32043277 166.011165717 2198.35427882 219.39239542 c 0,89,90
 2247.98164954 263.329213238 2247.98164954 263.329213238 2248.17469026 344.266598573 c 0,91,92
 2247.99297688 390.78724329 2247.99297688 390.78724329 2241.36265869 422.562361637 c 0,93,94
 2220.74262319 513.581750241 2220.74262319 513.581750241 2161.38449831 560.341118132 c 128,-1,95
 2102.02637343 607.100486023 2102.02637343 607.100486023 2007.29679165 607.213876864 c 0,70,71
EndSplineSet
EndChar

StartChar: uniFEBB
Encoding: 65211 65211 198
Width: 1645
VWidth: 2551
GlyphClass: 2
Flags: W
AnchorPoint: "Anchor-10" 1002.11 1266.04 basechar 0
AnchorPoint: "Anchor-7" 654.109 -250.146 basechar 0
LayerCount: 2
Fore
SplineSet
1399.68874981 98.3882880987 m 0,0,1
 1289.94758889 15 1289.94758889 15 1091.26464844 15 c 2,2,-1
 751.32421875 15 l 2,3,4
 458.723156342 15 458.723156342 15 383.652524888 142.428255366 c 2,5,-1
 381.970884263 145.282747554 l 1,6,-1
 369.361540381 166.686413157 l 1,7,-1
 356.291013614 145.561220035 l 1,8,-1
 354.542292721 142.734848941 l 2,9,10
 275.63488716 15 275.63488716 15 58.154296875 15 c 2,11,-1
 -5.0234375 15 l 2,12,13
 -23.5624285164 15 -23.5624285164 15 -33.2929330082 30.7516495598 c 128,-1,14
 -43.0234375 46.5032991196 -43.0234375 46.5032991196 -43.0234375 86 c 2,15,-1
 -43.0234398354 96.9906530977 l 2,16,17
 -43.0024684874 134.572182629 -43.0024684874 134.572182629 -32.2215818506 151.259196209 c 0,18,19
 -23.0012359813 165 -23.0012359813 165 -5.0234375 165 c 2,20,-1
 51.2724609375 165 l 2,21,22
 165.522580732 165 165.522580732 165 225.148497397 221.083147187 c 128,-1,23
 284.774414062 277.166294375 284.774414062 277.166294375 284.774414062 385.534179688 c 2,24,-1
 284.774414062 618.1796875 l 1,25,-1
 427.821647569 618.1796875 l 1,26,-1
 428.829437367 381.884005562 l 2,27,28
 429.440603247 290.548603491 429.440603247 290.548603491 464.386814424 241.274301746 c 128,-1,29
 499.333025601 192 499.333025601 192 568 192 c 2,30,-1
 569.345703125 192 l 1,31,-1
 579.437918973 192 l 1,32,-1
 583.240327383 201.348503143 l 1,33,-1
 583.750361126 202.602465316 l 2,34,35
 810.098386125 760 810.098386125 760 1147.5 760 c 0,36,37
 1345.51842612 760 1345.51842612 760 1447.4658143 624.620290566 c 0,38,39
 1487.24434494 572.268954142 1487.24434494 572.268954142 1507.26672656 508.155201418 c 128,-1,40
 1527.28910819 444.041448695 1527.28910819 444.041448695 1527.56299214 367.330640793 c 0,41,42
 1528.93988212 197.360495043 1528.93988212 197.360495043 1399.68874981 98.3882880987 c 0,0,1
1371.16034938 425.489095738 m 0,43,44
 1350.07746042 515.118950339 1350.07746042 515.118950339 1290.72517744 561.062720897 c 128,-1,45
 1231.37289446 607.006491455 1231.37289446 607.006491455 1137.12007556 607.01367184 c 0,46,47
 926.011906313 606.999341935 926.011906313 606.999341935 737.505297886 188.511778109 c 2,48,-1
 736.233813511 185.690489046 l 1,49,-1
 726.696113554 164.52734375 l 1,50,-1
 749.909179688 164.52734375 l 1,51,-1
 753.00390625 164.52734375 l 1,52,-1
 1111.31622392 164.527422631 l 2,53,54
 1263.4571247 165.020826238 1263.4571247 165.020826238 1328.27584081 222.277775428 c 0,55,56
 1378 266.351906652 1378 266.351906652 1378 347 c 0,57,58
 1378 393.814950287 1378 393.814950287 1371.16034938 425.489095738 c 0,43,44
EndSplineSet
EndChar

StartChar: uniFEBC
Encoding: 65212 65212 199
Width: 1713
VWidth: 2551
GlyphClass: 2
Flags: W
AnchorPoint: "Anchor-7" 654.109 -250.146 basechar 0
AnchorPoint: "Anchor-10" 1002.11 1266.04 basechar 0
LayerCount: 2
Fore
SplineSet
1091.26464844 15 m 2,0,-1
 751.32421875 15 l 2,1,2
 458.716582509 15 458.716582509 15 383.652524888 142.428255366 c 2,3,-1
 381.970884263 145.282747554 l 1,4,-1
 369.361540381 166.686413157 l 1,5,-1
 356.291013614 145.561220035 l 1,6,-1
 354.547144147 142.742697002 l 2,7,8
 275.26114854 14.571380415 275.26114854 14.571380415 58.1801796865 14.903302751 c 2,9,-1
 -5.0234375 15 l 2,10,11
 -23.5624285164 15 -23.5624285164 15 -33.2929330082 30.7516495598 c 128,-1,12
 -43.0234375 46.5032991196 -43.0234375 46.5032991196 -43.0234375 86 c 2,13,-1
 -43.0234380834 96.9948400179 l 2,14,15
 -43.0129543337 134.585197997 -43.0129543337 134.585197997 -32.15747821 151.358427416 c 0,16,17
 -23.3281307734 165 -23.3281307734 165 -5.0234375 165 c 2,18,-1
 51.2730643002 165.000000012 l 2,19,20
 165.522879194 165.004595618 165.522879194 165.004595618 225.148646628 221.087599981 c 128,-1,21
 284.774414062 277.170604344 284.774414062 277.170604344 284.774414062 385.534179688 c 2,22,-1
 284.774414062 618.1796875 l 1,23,-1
 427.821647569 618.1796875 l 1,24,-1
 428.829445255 381.882833662 l 2,25,26
 429.238204407 321.501052905 429.238204407 321.501052905 444.460847175 279.43551284 c 128,-1,27
 459.683489942 237.369972775 459.683489942 237.369972775 490.876607068 214.684986388 c 128,-1,28
 522.069724194 192 522.069724194 192 568 192 c 2,29,-1
 569.348632812 192 l 1,30,-1
 579.460059831 192 l 1,31,-1
 583.253194788 201.372997576 l 1,32,-1
 583.761327085 202.628617329 l 2,33,34
 809.454131033 760.973911647 809.454131033 760.973911647 1147.48357572 760.200202293 c 0,35,36
 1346.4741921 760.008227236 1346.4741921 760.008227236 1447.32159176 625.01270925 c 0,37,38
 1526.05224571 518.334793364 1526.05224571 518.334793364 1527.56285308 354.552353957 c 0,39,40
 1527.9782673 294.009233318 1527.9782673 294.009233318 1508.30461413 241.130178802 c 2,41,-1
 1507.87785632 239.983694427 l 1,42,-1
 1504.67792241 231.387075652 l 1,43,-1
 1510.87227266 224.621615103 l 1,44,-1
 1511.70410587 223.713091516 l 2,45,46
 1539.13320438 193.788655894 1539.13320438 193.788655894 1585.35172353 179.494425603 c 128,-1,47
 1631.57024269 165.200195312 1631.57024269 165.200195312 1696.11816406 165.200195312 c 2,48,-1
 1717.46050404 165.200195312 l 1,49,50
 1720.96520191 160.467877682 1720.96520191 160.467877682 1723.9708822 141.591636067 c 128,-1,51
 1726.9765625 122.715394452 1726.9765625 122.715394452 1726.9765625 94.2001953125 c 2,52,-1
 1726.97656305 83.1951692643 l 2,53,54
 1726.99161214 27.45069956 1726.99161214 27.45069956 1717.67992007 15 c 1,55,-1
 1689.9921875 15 l 2,56,57
 1595.81481826 15 1595.81481826 15 1528.88466708 36.2487737961 c 128,-1,58
 1461.95451591 57.4975475923 1461.95451591 57.4975475923 1421.64679676 99.0355955592 c 2,59,-1
 1420.39191395 100.329540872 l 1,60,-1
 1410.97959312 110.034852232 l 1,61,-1
 1400.35203537 101.67782715 l 1,62,-1
 1398.93546086 100.563897763 l 2,63,64
 1290.11664677 15 1290.11664677 15 1091.26464844 15 c 2,0,-1
1137.34469848 607.212574864 m 0,65,66
 1029.63135724 608.712369016 1029.63135724 608.712369016 930.347755166 503.225615862 c 128,-1,67
 831.064153096 397.738862708 831.064153096 397.738862708 737.483466019 188.464780485 c 2,68,-1
 736.219794144 185.637632047 l 1,69,-1
 726.743200116 164.436133044 l 1,70,-1
 749.966096246 164.516691813 l 1,71,-1
 753.060993778 164.527427924 l 1,72,-1
 1111.29210691 165.727564195 l 2,73,74
 1162.46254624 165.821235157 1162.46254624 165.821235157 1202.86835199 171.40387429 c 128,-1,75
 1243.27415775 176.986513424 1243.27415775 176.986513424 1275.02308685 188.950787413 c 128,-1,76
 1306.77201594 200.915061402 1306.77201594 200.915061402 1328.17575986 219.390221987 c 0,77,78
 1344.90114615 234.1385198 1344.90114615 234.1385198 1356.04797942 253.308876511 c 128,-1,79
 1367.19481269 272.479233221 1367.19481269 272.479233221 1372.59740635 295.148469575 c 128,-1,80
 1378 317.817705928 1378 317.817705928 1378 344.200195312 c 0,81,82
 1378 367.479222672 1378 367.479222672 1376.32291936 386.960038527 c 128,-1,83
 1374.64583872 406.440854381 1374.64583872 406.440854381 1371.17518402 422.622402167 c 0,84,85
 1350.64282761 512.600313833 1350.64282761 512.600313833 1291.3473123 559.320364638 c 128,-1,86
 1232.05179698 606.040415443 1232.05179698 606.040415443 1137.34469848 607.212574864 c 0,65,66
EndSplineSet
EndChar

